<?xml version="1.0" encoding="UTF-8"?>
<!DOCTYPE svg PUBLIC "-//W3C//DTD SVG 1.0//EN" "http://www.w3.org/TR/2001/REC-SVG-20010904/DTD/svg10.dtd">
<!-- Creator: CorelDRAW Home & Student X8 -->
<svg xmlns="http://www.w3.org/2000/svg" xml:space="preserve" width="100%" height="100%" version="1.0" style="shape-rendering:geometricPrecision; text-rendering:geometricPrecision; image-rendering:optimizeQuality; fill-rule:evenodd; clip-rule:evenodd"
viewBox="0 0 105236 63750"
 xmlns:xlink="http://www.w3.org/1999/xlink">
 <defs>
  <style type="text/css">
   <![CDATA[
    .str1 {stroke:#00CCFF;stroke-width:750}
    .str0 {stroke:black;stroke-width:200}
    .fil4 {fill:none}
    .fil6 {fill:black}
    .fil13 {fill:#00CCFF}
    .fil14 {fill:gray}
    .fil10 {fill:gray}
    .fil0 {fill:#CCCCCC}
    .fil11 {fill:#D9FF99}
    .fil1 {fill:#F4FFE0}
    .fil3 {fill:#FF6600}
    .fil9 {fill:#FFCC00}
    .fil12 {fill:#FFCC99}
    .fil7 {fill:#FFFF99}
    .fil8 {fill:black;fill-rule:nonzero}
    .fil2 {fill:black;fill-rule:nonzero}
    .fil5 {fill:#00CCFF;fill-rule:nonzero}
    .fnt2 {font-weight:normal;font-size:1411.1px;font-family:'Arial'}
    .fnt3 {font-weight:normal;font-size:2636px;font-family:'Arial'}
    .fnt0 {font-weight:normal;font-size:3527.7px;font-family:'Arial'}
    .fnt1 {font-weight:normal;font-size:10660.9px;font-family:'Arial'}
   ]]>
  </style>
 </defs>
 <g id="Ebene_x0020_1">
  <metadata id="CorelCorpID_0Corel-Layer"/>
  <g id="_793037120">
   <ellipse class="fil0" cx="34732" cy="8099" rx="6075" ry="4050"/>
   <ellipse class="fil0" cx="37875" cy="3438" rx="5167" ry="3438"/>
   <ellipse class="fil0" cx="41819" cy="8099" rx="7087" ry="4050"/>
   <ellipse class="fil0" cx="43099" cy="4176" rx="2801" ry="2300"/>
  </g>
  <g id="_793037624">
   <rect class="fil0" x="95514" y="47708" width="972" height="972"/>
   <rect class="fil0" x="95514" y="49653" width="972" height="972"/>
   <rect class="fil0" x="95514" y="51597" width="972" height="972"/>
   <rect class="fil0" x="95514" y="53542" width="972" height="972"/>
   <rect class="fil0" x="95514" y="55486" width="972" height="972"/>
   <rect class="fil0" x="95514" y="57431" width="972" height="972"/>
   <rect class="fil0" x="95514" y="59375" width="972" height="972"/>
   <rect class="fil0" x="95514" y="61319" width="972" height="972"/>
   <rect class="fil0" x="104264" y="49653" width="972" height="972"/>
   <rect class="fil0" x="104264" y="51597" width="972" height="972"/>
   <rect class="fil0" x="104264" y="53542" width="972" height="972"/>
   <rect class="fil0" x="104264" y="55486" width="972" height="972"/>
   <rect class="fil0" x="104264" y="57431" width="972" height="972"/>
   <rect class="fil0" x="104264" y="59375" width="972" height="972"/>
   <rect class="fil0" x="104264" y="61319" width="972" height="972"/>
   <rect class="fil0" x="104264" y="47708" width="972" height="972"/>
   <path class="fil0" d="M96486 46250l2917 0c0,537 435,972 972,972 537,0 972,-435 972,-972l2917 0 0 17500 -7778 0 0 -17500z"/>
  </g>
  <rect class="fil1 str0" x="15375" y="52500" width="42500" height="10000"/>
  <g>
   <path class="fil2" d="M68454 57875l-18079 0 0 -750 18079 0 0 750zm1918 -375l-1944 972 0 -1944 1944 972z"/>
  </g>
  <rect class="fil3 str0" x="34250" y="53750" width="7250" height="7500" rx="1188" ry="1229"/>
  <rect class="fil1 str0" x="12875" y="50000" width="42500" height="10000"/>
  <rect class="fil3 str0" x="31750" y="51250" width="7250" height="7500" rx="1188" ry="1229"/>
  <rect class="fil3 str0" x="39250" y="51250" width="7250" height="7500" rx="1188" ry="1229"/>
  <rect class="fil3 str0" x="46750" y="51250" width="7250" height="7500" rx="1188" ry="1229"/>
  <rect class="fil1 str0" x="10375" y="47500" width="42500" height="10000"/>
  <rect class="fil3 str0" x="29250" y="48750" width="7250" height="7500" rx="1188" ry="1229"/>
  <line class="fil4 str1" x1="375" y1="55000" x2="10375" y2= "55000" />
  <polyline class="fil4 str1" points="12875,57500 375,57500 375,25000 27875,25000 "/>
  <g>
   <path class="fil5" d="M8454 52875l-8079 0 0 -750 8079 0 0 750zm1918 -375l-1944 972 0 -1944 1944 972z"/>
  </g>
  <text x="14702" y="54016"  class="fil6 fnt0">gd</text>
  <text x="18688" y="54016"  class="fil6 fnt0">XXX</text>
  <rect class="fil7 str0" x="27875" y="17500" width="20000" height="15000"/>
  <text x="31539" y="24015"  class="fil6 fnt0">Variable</text>
  <text x="57833" y="27761"  class="fil6 fnt1">{ }</text>
  <g>
   <path class="fil8" d="M55954 25375l-8079 0 0 -750 8079 0 0 750zm1918 -375l-1944 972 0 -1944 1944 972z"/>
  </g>
  <path class="fil9 str0" d="M47375 22500l500 0 0 5000 -500 0c-1100,0 -2000,-900 -2000,-2000l0 -1000c0,-1100 900,-2000 2000,-2000z"/>
  <text x="10247" y="57204"  class="fil10 fnt2">./dev/plugins/gadgets/gdXXX.py</text>
  <text x="27747" y="32204"  class="fil10 fnt2">./dev/Variable.py</text>
  <g>
   <path class="fil2" d="M65954 55375l-11954 0 0 -750 11954 0 0 750zm1918 -375l-1944 972 0 -1944 1944 972z"/>
  </g>
  <g>
   <rect class="fil11 str0" x="70375" y="52500" width="20000" height="10000"/>
   <rect class="fil11 str0" x="67875" y="50000" width="20000" height="10000"/>
   <rect class="fil11 str0" x="65375" y="47500" width="20000" height="10000"/>
  </g>
  <text x="69313" y="54016"  class="fil10 fnt0">GPIO</text>
  <text x="78568" y="54016"  class="fil10 fnt0">...</text>
  <g>
   <path class="fil2" d="M91532 53250l-6157 0 0 -1500 6157 0 0 1500zm3837 -750l-3888 1944 0 -3888 3888 1944z"/>
  </g>
  <g>
   <path class="fil2" d="M94032 55750l-6157 0 0 -1500 6157 0 0 1500zm3837 -750l-3888 1944 0 -3888 3888 1944z"/>
  </g>
  <g>
   <path class="fil2" d="M96532 58250l-6157 0 0 -1500 6157 0 0 1500zm3837 -750l-3888 1944 0 -3888 3888 1944z"/>
  </g>
  <text x="65096" y="46244"  class="fil12 fnt0">external Libs</text>
  <text x="26274" y="50098"  class="fil3 fnt3">{ }</text>
  <rect class="fil3 str0" x="36625" y="48750" width="7250" height="7500" rx="1188" ry="1229"/>
  <text x="36529" y="46244"  class="fil3 fnt0">Instances</text>
  <g>
   <path class="fil8" d="M37500 15578l0 -11313 750 0 0 11313 -750 0zm375 1919l-972 -1944 1944 0 -972 1944z"/>
  </g>
  <g>
   <path class="fil8" d="M35000 15578l0 -9549 750 0 0 9549 -750 0zm375 1919l-972 -1944 1944 0 -972 1944z"/>
  </g>
  <g>
   <path class="fil8" d="M40000 15578l0 -13078 750 0 0 13078 -750 0zm375 1919l-972 -1944 1944 0 -972 1944z"/>
  </g>
  <text x="769" y="23744"  class="fil13 fnt0">Notify</text>
  <g>
   <path class="fil8" d="M33250 34422l0 14328 -750 0 0 -14328 750 0zm-375 -1919l972 1944 -1944 0 972 -1944z"/>
  </g>
  <text x="50375" y="12461"  class="fil14 fnt0">Write Variables</text>
  <text x="50375" y="39961"  class="fil14 fnt0">Read new / updated Variables</text>
  <g>
   <path class="fil8" d="M40750 34422l0 14328 -750 0 0 -14328 750 0zm-375 -1919l972 1944 -1944 0 972 -1944z"/>
  </g>
  <g>
   <path class="fil2" d="M63454 52875l-19579 0 0 -750 19579 0 0 750zm1918 -375l-1944 972 0 -1944 1944 972z"/>
  </g>
 </g>
</svg>
