<?xml version="1.0" encoding="UTF-8"?>
<!DOCTYPE svg PUBLIC "-//W3C//DTD SVG 1.0//EN" "http://www.w3.org/TR/2001/REC-SVG-20010904/DTD/svg10.dtd">
<!-- Creator: CorelDRAW Home & Student X8 -->
<svg xmlns="http://www.w3.org/2000/svg" xml:space="preserve" width="100%" height="100%" version="1.0" style="shape-rendering:geometricPrecision; text-rendering:geometricPrecision; image-rendering:optimizeQuality; fill-rule:evenodd; clip-rule:evenodd"
viewBox="0 0 165100 45200"
 xmlns:xlink="http://www.w3.org/1999/xlink">
 <defs>
  <style type="text/css">
   <![CDATA[
    .str1 {stroke:black;stroke-width:200}
    .str0 {stroke:black;stroke-width:200}
    .str2 {stroke:black;stroke-width:200;stroke-linejoin:bevel}
    .fil9 {fill:black}
    .fil4 {fill:#003399}
    .fil13 {fill:#99FFFF}
    .fil1 {fill:#CCCCCC}
    .fil11 {fill:#E6E6E6}
    .fil0 {fill:#F4F4F4}
    .fil5 {fill:#FF6600}
    .fil8 {fill:#FF6600}
    .fil12 {fill:#FFFF99}
    .fil10 {fill:white}
    .fil7 {fill:black;fill-rule:nonzero}
    .fil2 {fill:#003399;fill-rule:nonzero}
    .fil6 {fill:red;fill-rule:nonzero}
    .fil3 {fill:#FF6600;fill-rule:nonzero}
    .fnt1 {font-weight:normal;font-size:1984.3px;font-family:'Arial'}
    .fnt0 {font-weight:normal;font-size:3527.7px;font-family:'Arial'}
   ]]>
  </style>
 </defs>
 <g id="Ebene_x0020_1">
  <metadata id="CorelCorpID_0Corel-Layer"/>
  <path class="fil0 str0" d="M3100 100l24000 0c1650,0 3000,1350 3000,3000l0 39000c0,1650 -1350,3000 -3000,3000l-24000 0c-1650,0 -3000,-1350 -3000,-3000l0 -39000c0,-1650 1350,-3000 3000,-3000z"/>
  <path class="fil0 str0" d="M98100 100l39000 0c1650,0 3000,1350 3000,3000l0 39000c0,1650 -1350,3000 -3000,3000l-39000 0c-1650,0 -3000,-1350 -3000,-3000l0 -39000c0,-1650 1350,-3000 3000,-3000z"/>
  <g id="_832712472">
   <ellipse class="fil1" cx="49302" cy="25751" rx="18335" ry="10835"/>
   <ellipse class="fil1" cx="58787" cy="13279" rx="15597" ry="9199"/>
   <ellipse class="fil1" cx="70692" cy="25751" rx="21391" ry="10835"/>
   <ellipse class="fil1" cx="74556" cy="15252" rx="8453" ry="6153"/>
  </g>
  <g>
   <path class="fil2" d="M96257 25850l-26157 0 0 -1500 26157 0 0 1500zm3837 -750l-3888 1944 0 -3888 3888 1944z"/>
  </g>
  <g>
   <path class="fil3" d="M46257 25850l-21157 0 0 -1500 21157 0 0 1500zm3837 -750l-3888 1944 0 -3888 3888 1944z"/>
  </g>
  <text x="75658" y="23948"  class="fil4 fnt0">Telnet</text>
  <text x="71734" y="29036"  class="fil4 fnt0">Port 10123</text>
  <text x="36190" y="23948"  class="fil5 fnt0">HTTP</text>
  <text x="32352" y="29180"  class="fil5 fnt0">Port 10180</text>
  <g>
   <ellipse class="fil1" cx="150926" cy="33199" rx="6075" ry="4050"/>
   <ellipse class="fil1" cx="154069" cy="28538" rx="5167" ry="3438"/>
   <ellipse class="fil1" cx="158013" cy="33199" rx="7087" ry="4050"/>
   <ellipse class="fil1" cx="159293" cy="29276" rx="2801" ry="2300"/>
  </g>
  <g>
   <path class="fil6" d="M144076 33350l-23976 0 0 -1500 23976 0 0 1500zm3837 -750l-3888 1944 0 -3888 3888 1944z"/>
  </g>
  <g>
   <rect class="fil1" x="125378" y="11558" width="972" height="972"/>
   <rect class="fil1" x="125378" y="13503" width="972" height="972"/>
   <rect class="fil1" x="125378" y="15447" width="972" height="972"/>
   <rect class="fil1" x="125378" y="17392" width="972" height="972"/>
   <rect class="fil1" x="125378" y="19336" width="972" height="972"/>
   <rect class="fil1" x="125378" y="21281" width="972" height="972"/>
   <rect class="fil1" x="125378" y="23225" width="972" height="972"/>
   <rect class="fil1" x="125378" y="25169" width="972" height="972"/>
   <rect class="fil1" x="134128" y="13503" width="972" height="972"/>
   <rect class="fil1" x="134128" y="15447" width="972" height="972"/>
   <rect class="fil1" x="134128" y="17392" width="972" height="972"/>
   <rect class="fil1" x="134128" y="19336" width="972" height="972"/>
   <rect class="fil1" x="134128" y="21281" width="972" height="972"/>
   <rect class="fil1" x="134128" y="23225" width="972" height="972"/>
   <rect class="fil1" x="134128" y="25169" width="972" height="972"/>
   <rect class="fil1" x="134128" y="11558" width="972" height="972"/>
   <path class="fil1" d="M126350 10100l2917 0c0,537 435,972 972,972 537,0 972,-435 972,-972l2917 0 0 17500 -7778 0 0 -17500z"/>
  </g>
  <g>
   <path class="fil7" d="M126257 18350l-6157 0 0 -1500 6157 0 0 1500zm3837 -750l-3888 1944 0 -3888 3888 1944z"/>
  </g>
  <rect class="fil8 str1" x="5100" y="10100" width="20000" height="30000"/>
  <text x="8636" y="19116"  class="fil9 fnt0">Browser</text>
  <text x="6916" y="6873"  class="fil9 fnt0">Admin </text>
  <text x="17957" y="6873"  class="fil9 fnt0">PC</text>
  <g>
   <polygon class="fil10 str1" points="11337,25178 18368,25178 19775,26585 19775,36428 11337,36428 "/>
   <polygon class="fil11 str2" points="18368,26585 18368,25178 19775,26585 "/>
  </g>
  <text x="12754" y="31507"  class="fil9 fnt1">HTML</text>
  <rect class="fil12 str1" x="100100" y="10100" width="20000" height="30000"/>
  <text x="107556" y="19116"  class="fil9 fnt0">IoT</text>
  <text x="106870" y="23057"  class="fil9 fnt0">Part</text>
  <text x="104588" y="6873"  class="fil9 fnt0">Device</text>
  <rect class="fil13 str1" x="50100" y="10100" width="20000" height="30000"/>
  <text x="56510" y="19116"  class="fil9 fnt0">Web</text>
  <text x="56870" y="23057"  class="fil9 fnt0">Part</text>
 </g>
</svg>
