<?xml version="1.0" encoding="UTF-8"?>
<!DOCTYPE svg PUBLIC "-//W3C//DTD SVG 1.0//EN" "http://www.w3.org/TR/2001/REC-SVG-20010904/DTD/svg10.dtd">
<!-- Creator: CorelDRAW Home & Student X8 -->
<svg xmlns="http://www.w3.org/2000/svg" xml:space="preserve" width="100%" height="100%" version="1.0" style="shape-rendering:geometricPrecision; text-rendering:geometricPrecision; image-rendering:optimizeQuality; fill-rule:evenodd; clip-rule:evenodd"
viewBox="0 0 140200 40200"
 xmlns:xlink="http://www.w3.org/1999/xlink">
 <defs>
  <style type="text/css">
   <![CDATA[
    .str1 {stroke:white;stroke-width:500}
    .str0 {stroke:black;stroke-width:200}
    .fil9 {fill:none;fill-rule:nonzero}
    .fil1 {fill:black}
    .fil7 {fill:#00CCFF}
    .fil6 {fill:gray}
    .fil5 {fill:#CCFF66}
    .fil0 {fill:#E6E6E6}
    .fil8 {fill:#FF6600}
    .fil4 {fill:#FFFF99}
    .fil3 {fill:#00CCFF;fill-rule:nonzero}
    .fil2 {fill:#FF6600;fill-rule:nonzero}
    .fnt1 {font-weight:normal;font-size:1411.1px;font-family:'Arial'}
    .fnt0 {font-weight:normal;font-size:3527.7px;font-family:'Arial'}
   ]]>
  </style>
 </defs>
 <g id="Ebene_x0020_1">
  <metadata id="CorelCorpID_0Corel-Layer"/>
  <rect class="fil0 str0" x="55100" y="100" width="30000" height="40000"/>
  <text x="65109" y="5648"  class="fil1 fnt0">MQTT</text>
  <text x="64910" y="9589"  class="fil1 fnt0">Broker</text>
  <g>
   <path class="fil2" d="M60094 20101l-3759 2182 -242 -3880 4001 1698zm-40041 1751l36165 -2261 94 1497 -36165 2261 -94 -1497z"/>
  </g>
  <g>
   <path class="fil3" d="M120094 22600l-4001 1697 242 -3880 3759 2183zm-39947 -3248l36165 2260 -94 1497 -36165 -2260 94 -1497z"/>
  </g>
  <g>
   <path class="fil2" d="M80106 30099l3759 -2182 242 3880 -4001 -1698zm40041 -1750l-36165 2260 -94 -1497 36165 -2260 94 1497z"/>
  </g>
  <g>
   <path class="fil3" d="M20106 27600l4001 -1697 -242 3880 -3759 -2183zm39947 3249l-36165 -2261 94 -1497 36165 2261 -94 1497z"/>
  </g>
  <rect class="fil4 str0" x="120100" y="20100" width="20000" height="10000"/>
  <text x="124028" y="25366"  class="fil1 fnt0">Client F</text>
  <rect class="fil4 str0" x="100" y="20100" width="20000" height="10000"/>
  <text x="3929" y="25366"  class="fil1 fnt0">Client E</text>
  <rect class="fil5 str0" x="60100" y="12600" width="20000" height="10000" rx="2000" ry="2000"/>
  <text x="64516" y="17866"  class="fil1 fnt0">Topic 3</text>
  <rect class="fil5 str0" x="60100" y="27600" width="20000" height="10000" rx="2000" ry="2000"/>
  <text x="64516" y="32866"  class="fil1 fnt0">Topic 4</text>
  <text x="65166" y="20473"  class="fil6 fnt1">/lorem/ipsum/sit</text>
  <text x="66381" y="36072"  class="fil6 fnt1">/lorem/amet</text>
  <text x="125469" y="27600"  class="fil7 fnt1">/lorem/ipsum/sit</text>
  <text x="5167" y="27600"  class="fil8 fnt1">/lorem/ipsum/sit</text>
  <text x="6382" y="28982"  class="fil7 fnt1">/lorem/amet</text>
  <text x="126684" y="28982"  class="fil8 fnt1">/lorem/amet</text>
  <g>
   <path class="fil9 str1" d="M33828 22049l-177 -2523 282 -20 17 237c60,-97 130,-172 210,-224 80,-52 180,-83 299,-91 156,-11 296,19 421,91 125,72 222,179 293,321 71,141 113,299 124,473 14,187 -8,357 -65,511 -56,154 -146,276 -267,364 -123,89 -254,138 -395,148 -103,7 -197,-8 -282,-46 -85,-38 -156,-88 -213,-151l62 888 -309 22zm168 -1620c16,234 76,404 179,510 103,105 222,153 357,144 137,-9 251,-76 340,-199 90,-123 127,-307 110,-551 -17,-232 -77,-402 -180,-512 -104,-108 -222,-158 -355,-149 -132,9 -244,79 -337,209 -93,130 -131,313 -114,548z"/>
  </g>
  <g>
   <path id="1" class="fil9 str1" d="M36931 21129l-19 -267c-127,215 -312,332 -556,349 -108,7 -210,-6 -306,-41 -96,-34 -169,-81 -219,-141 -49,-59 -86,-133 -111,-222 -17,-60 -30,-156 -39,-288l-79 -1130 309 -21 71 1011c11,162 25,270 42,326 24,80 70,140 137,182 65,42 145,60 238,53 93,-6 178,-36 256,-89 78,-53 131,-122 159,-206 28,-84 37,-204 26,-360l-69 -977 310 -22 127 1824 -277 19z"/>
  </g>
  <g>
   <path id="2" class="fil9 str1" d="M37978 21056l-287 20 -175 -2517 309 -22 63 898c119,-173 280,-267 482,-281 112,-7 220,8 323,46 104,38 191,96 261,174 70,77 128,172 173,285 44,113 71,236 81,367 21,312 -39,559 -181,741 -143,182 -322,280 -539,295 -215,15 -390,-63 -525,-234l15 228zm-68 -925c15,219 57,374 123,467 108,153 245,223 412,211 135,-9 247,-76 338,-200 90,-124 127,-303 110,-535 -16,-238 -76,-411 -178,-518 -102,-106 -220,-155 -354,-145 -136,9 -249,76 -338,200 -91,124 -128,298 -113,520z"/>
  </g>
  <g>
   <polygon id="3" class="fil9 str1" points="39644,20939 39468,18422 39777,18400 39953,20918 "/>
  </g>
  <g>
   <path id="4" class="fil9 str1" d="M40283 18722l-25 -355 309 -22 25 356 -309 21zm151 2162l-128 -1824 310 -21 127 1823 -309 22z"/>
  </g>
  <g>
   <path id="5" class="fil9 str1" d="M41052 20294l303 -69c25,121 80,211 163,271 83,60 195,85 336,75 141,-10 245,-46 310,-109 64,-62 94,-133 88,-210 -4,-70 -38,-123 -102,-159 -45,-24 -152,-52 -323,-82 -231,-42 -392,-80 -482,-116 -91,-36 -161,-89 -212,-160 -50,-70 -78,-150 -85,-239 -5,-82 8,-159 40,-230 33,-72 80,-133 140,-184 46,-39 109,-73 191,-103 81,-31 169,-50 264,-56 143,-10 270,2 381,35 111,34 195,84 252,151 56,67 98,158 126,275l-300 63c-20,-93 -65,-164 -134,-212 -70,-48 -164,-68 -285,-59 -142,9 -241,40 -299,91 -57,51 -84,109 -79,171 2,40 18,76 45,106 27,31 69,56 124,74 32,9 125,29 279,60 222,43 379,80 468,111 89,32 160,81 215,149 54,67 84,153 92,259 7,103 -16,202 -70,297 -54,95 -136,171 -246,230 -109,57 -236,91 -379,101 -237,17 -421,-20 -552,-110 -131,-90 -220,-230 -269,-421z"/>
  </g>
  <g>
   <path id="6" class="fil9 str1" d="M42973 20706l-175 -2517 309 -21 63 903c133,-177 309,-274 528,-289 136,-9 255,9 358,55 103,46 180,115 229,206 50,91 81,225 93,404l81 1156 -309 21 -81 -1155c-11,-155 -52,-265 -124,-331 -72,-65 -169,-94 -291,-85 -92,6 -177,35 -254,89 -77,53 -130,122 -159,205 -29,84 -38,197 -28,341l70 997 -310 21z"/>
  </g>
  <g transform="matrix(0.997564 -0.0697565 0.0697565 0.997564 50034.7 85271.4)">
   <text x="-11990" y="-64900" id="6" class="fil8 fnt0">publish</text>
  </g>
  <g>
   <path class="fil9 str1" d="M95321 29499l-176 -2522 281 -20 17 237c60,-98 130,-172 210,-225 81,-51 181,-82 299,-90 156,-11 296,19 421,91 125,72 223,179 293,320 71,142 113,300 125,474 13,187 -8,357 -65,511 -57,154 -146,275 -268,364 -122,88 -254,138 -394,148 -103,7 -197,-8 -283,-46 -84,-38 -155,-88 -213,-151l62 888 -309 21zm168 -1619c17,234 77,404 179,510 103,105 222,153 357,144 137,-9 251,-76 341,-199 90,-123 126,-307 109,-551 -16,-232 -76,-402 -180,-512 -104,-109 -222,-158 -355,-149 -132,9 -243,79 -336,209 -93,130 -131,312 -115,548z"/>
  </g>
  <g>
   <path id="1" class="fil9 str1" d="M98425 28580l-19 -268c-128,216 -313,333 -557,350 -107,7 -210,-6 -306,-41 -96,-35 -169,-82 -218,-141 -50,-59 -87,-133 -111,-222 -17,-60 -30,-156 -40,-288l-79 -1130 310 -22 70 1012c11,161 25,270 42,325 25,80 71,141 137,183 66,42 146,60 238,53 93,-6 178,-36 256,-89 78,-54 131,-122 159,-207 28,-84 37,-204 26,-359l-68 -978 309 -21 128 1824 -277 19z"/>
  </g>
  <g>
   <path id="2" class="fil9 str1" d="M99472 28507l-287 20 -176 -2517 309 -22 63 898c119,-173 280,-267 482,-281 113,-7 220,8 324,46 103,38 190,96 261,173 70,78 127,173 172,286 45,113 72,235 81,367 22,312 -39,559 -181,741 -143,182 -322,280 -538,294 -216,16 -391,-62 -526,-234l16 229zm-68 -925c15,218 56,374 122,467 109,152 246,223 412,211 135,-9 248,-76 338,-200 90,-124 127,-303 111,-535 -17,-238 -76,-411 -178,-518 -103,-106 -221,-155 -355,-145 -135,9 -248,76 -338,200 -91,124 -128,298 -112,520z"/>
  </g>
  <g>
   <polygon id="3" class="fil9 str1" points="101137,28390 100961,25873 101270,25851 101446,28369 "/>
  </g>
  <g>
   <path id="4" class="fil9 str1" d="M101776 26173l-24 -356 309 -21 25 355 -310 22zm151 2162l-127 -1824 309 -21 128 1823 -310 22z"/>
  </g>
  <g>
   <path id="5" class="fil9 str1" d="M102546 27745l302 -70c26,121 80,212 163,272 83,60 195,85 336,75 142,-10 245,-46 310,-109 65,-62 94,-133 89,-211 -5,-70 -39,-122 -103,-158 -44,-24 -152,-52 -323,-83 -231,-41 -391,-80 -482,-115 -91,-36 -161,-89 -211,-160 -51,-70 -79,-150 -85,-240 -6,-81 7,-158 40,-230 32,-71 79,-132 140,-183 45,-39 109,-73 190,-103 81,-31 169,-50 265,-56 142,-10 270,1 381,35 111,34 195,84 251,151 57,67 98,158 126,275l-299 63c-20,-93 -65,-164 -135,-212 -69,-48 -164,-68 -284,-59 -142,9 -242,39 -300,91 -57,51 -83,108 -79,171 3,40 18,76 45,106 28,31 70,56 125,74 32,9 125,29 279,60 222,43 378,80 467,111 89,31 160,81 215,148 54,67 85,154 92,260 8,103 -16,201 -69,297 -55,95 -136,171 -246,230 -110,57 -237,91 -379,101 -237,17 -421,-20 -553,-110 -131,-90 -220,-230 -268,-421z"/>
  </g>
  <g>
   <path id="6" class="fil9 str1" d="M104467 28157l-176 -2517 309 -21 63 903c133,-177 309,-274 529,-289 135,-9 254,9 357,55 104,46 180,115 230,205 49,92 80,226 93,405l81 1156 -310 21 -80 -1155c-11,-155 -52,-265 -124,-331 -72,-66 -170,-94 -292,-86 -91,7 -176,36 -253,90 -78,53 -131,122 -160,205 -28,83 -38,197 -28,340l70 998 -309 21z"/>
  </g>
  <g transform="matrix(0.997564 -0.0697565 0.0697565 0.997564 111528 92722.3)">
   <text x="-11990" y="-64900" id="6" class="fil8 fnt0">publish</text>
  </g>
  <g>
   <path class="fil9 str1" d="M93382 19856l308 -27c9,124 50,221 125,292 73,70 181,110 322,120 141,10 249,-11 321,-64 73,-53 112,-119 118,-197 5,-69 -22,-126 -80,-171 -40,-30 -143,-73 -308,-127 -223,-73 -377,-133 -462,-181 -84,-48 -147,-110 -187,-188 -40,-77 -57,-159 -50,-249 6,-82 29,-155 71,-222 42,-66 97,-121 165,-162 50,-32 118,-57 202,-76 85,-19 175,-26 270,-18 143,10 267,39 372,88 106,49 182,110 228,184 47,74 76,170 87,290l-305 20c-7,-95 -42,-171 -104,-228 -62,-57 -153,-90 -274,-99 -141,-10 -244,7 -308,49 -64,43 -98,96 -103,159 -3,40 7,77 30,110 23,36 61,66 113,92 30,13 120,45 268,97 214,74 363,132 447,176 84,43 148,102 192,176 45,75 63,165 56,270 -7,103 -44,198 -111,285 -66,87 -158,151 -275,193 -116,42 -246,58 -390,48 -237,-17 -414,-79 -531,-186 -117,-107 -187,-259 -207,-454z"/>
  </g>
  <g>
   <path id="1" class="fil9 str1" d="M96422 20615l19 -268c-157,197 -357,286 -601,269 -107,-8 -206,-35 -297,-83 -90,-48 -156,-105 -197,-170 -41,-66 -67,-144 -79,-236 -8,-61 -8,-158 1,-289l80 -1131 308 22 -70 1012c-11,161 -13,270 -4,327 14,83 50,149 110,200 59,51 136,80 229,86 93,7 181,-11 266,-53 84,-42 147,-102 186,-182 39,-79 65,-197 75,-353l69 -977 309 22 -127 1824 -277 -20z"/>
  </g>
  <g>
   <path id="2" class="fil9 str1" d="M97469 20689l-287 -21 176 -2518 310 22 -63 899c141,-155 314,-226 516,-211 113,8 217,38 315,90 96,52 174,121 234,208 58,86 102,188 131,307 28,118 38,243 28,375 -21,312 -115,548 -282,708 -166,160 -358,232 -574,217 -215,-15 -378,-117 -488,-305l-16 229zm61 -926c-15,218 4,378 56,480 87,166 213,255 378,266 136,10 257,-41 363,-151 107,-111 168,-282 185,-515 16,-238 -18,-417 -105,-537 -87,-120 -197,-185 -331,-194 -135,-10 -256,41 -363,151 -106,111 -167,277 -183,500z"/>
  </g>
  <g>
   <path id="3" class="fil9 str1" d="M99056 20252l308 -27c9,124 50,221 124,292 74,71 181,111 323,121 141,10 249,-12 321,-65 73,-53 112,-118 118,-196 5,-69 -22,-126 -80,-171 -40,-31 -143,-73 -308,-127 -223,-73 -377,-134 -462,-181 -84,-48 -147,-111 -187,-188 -40,-77 -57,-160 -50,-249 6,-82 29,-155 71,-222 42,-67 97,-121 165,-162 50,-32 118,-58 202,-76 85,-19 175,-26 270,-19 143,10 267,40 372,88 106,49 182,111 228,185 47,74 76,170 87,289l-305 20c-7,-94 -42,-170 -104,-228 -62,-57 -153,-90 -274,-98 -141,-10 -244,7 -308,49 -64,43 -99,96 -103,159 -3,40 7,77 30,110 23,36 61,65 113,91 30,14 120,46 268,98 214,74 363,132 447,176 84,43 148,102 192,176 44,75 63,165 56,270 -7,103 -44,198 -111,284 -66,88 -158,152 -275,193 -117,43 -246,59 -390,49 -237,-17 -414,-79 -531,-186 -117,-107 -187,-259 -207,-455z"/>
  </g>
  <g>
   <path id="4" class="fil9 str1" d="M102138 20344l301 60c-48,208 -144,365 -290,475 -145,108 -317,156 -516,142 -250,-18 -444,-113 -585,-287 -141,-173 -200,-413 -179,-717 14,-197 59,-367 134,-511 76,-142 183,-247 322,-311 138,-64 286,-91 443,-80 198,14 357,75 475,184 119,109 190,257 213,444l-304 25c-20,-125 -65,-220 -133,-287 -68,-67 -154,-104 -257,-111 -155,-11 -286,36 -391,141 -105,105 -167,278 -183,519 -17,245 17,426 103,544 86,118 205,182 356,192 121,9 225,-21 312,-90 86,-68 146,-180 179,-332z"/>
  </g>
  <g>
   <path id="5" class="fil9 str1" d="M102657 21051l127 -1824 279 20 -20 277c80,-125 151,-206 215,-243 63,-37 130,-53 202,-48 104,7 208,48 311,122l-126 279c-73,-50 -147,-77 -223,-82 -67,-5 -129,11 -186,48 -56,36 -99,91 -127,161 -42,107 -67,226 -76,357l-67 955 -309 -22z"/>
  </g>
  <g>
   <path id="6" class="fil9 str1" d="M103985 18971l25 -355 309 21 -25 356 -309 -22zm-151 2163l127 -1824 309 21 -127 1824 -309 -21z"/>
  </g>
  <g>
   <path id="7" class="fil9 str1" d="M104899 21208l-287 -20 176 -2518 309 22 -62 898c141,-154 314,-225 516,-211 113,8 217,38 314,91 97,52 175,121 234,207 59,87 103,189 131,307 29,118 39,244 29,375 -22,312 -116,549 -282,709 -166,160 -358,232 -574,217 -216,-16 -378,-117 -488,-305l-16 228zm61 -926c-15,219 3,379 56,481 87,165 213,254 378,266 136,9 257,-41 363,-152 107,-110 168,-282 185,-514 16,-238 -18,-418 -106,-538 -86,-120 -196,-184 -330,-194 -135,-9 -256,42 -363,152 -106,111 -167,277 -183,499z"/>
  </g>
  <g>
   <path id="8" class="fil9 str1" d="M107861 20825l316 62c-63,183 -167,321 -310,415 -143,93 -321,133 -533,118 -267,-19 -473,-116 -617,-291 -145,-175 -207,-411 -186,-708 21,-307 117,-539 287,-697 170,-159 380,-229 632,-212 244,17 437,114 581,291 143,177 203,416 183,717 -2,18 -5,46 -8,82l-1361 -95c-2,201 44,358 139,472 94,114 217,176 369,187 114,7 213,-15 297,-70 84,-53 154,-144 211,-271zm-980 -571l1018 71c-3,-154 -34,-272 -93,-353 -90,-126 -213,-194 -370,-206 -142,-10 -265,30 -368,118 -104,88 -166,212 -187,370z"/>
  </g>
  <g transform="matrix(0.997564 0.0697565 -0.0697565 0.997564 102623 86107.2)">
   <text x="-13949" y="-64900" id="8" class="fil7 fnt0">subscribe</text>
  </g>
  <g>
   <path class="fil9 str1" d="M32418 27367l308 -27c9,124 50,221 125,292 73,71 181,111 322,121 141,10 249,-12 321,-65 73,-53 112,-118 118,-196 5,-70 -22,-127 -80,-171 -40,-31 -143,-73 -308,-127 -223,-73 -377,-134 -462,-181 -84,-49 -147,-111 -187,-188 -40,-77 -57,-160 -50,-249 6,-82 29,-156 71,-223 42,-66 97,-120 165,-161 50,-33 118,-58 202,-77 85,-18 175,-25 270,-18 143,10 267,39 372,88 106,49 182,110 228,184 47,74 76,171 87,290l-305 20c-7,-95 -42,-170 -104,-228 -62,-57 -153,-90 -274,-98 -141,-10 -244,6 -308,49 -64,43 -98,95 -103,158 -3,40 7,77 30,111 23,35 61,65 113,91 30,14 120,46 268,98 214,74 363,132 447,175 84,43 148,103 192,177 45,74 63,164 56,270 -7,103 -44,197 -111,284 -66,87 -158,151 -275,193 -116,42 -246,58 -390,48 -237,-17 -414,-78 -531,-185 -117,-107 -187,-259 -207,-455z"/>
  </g>
  <g>
   <path id="1" class="fil9 str1" d="M35458 28127l19 -268c-157,196 -357,285 -601,268 -107,-7 -206,-35 -297,-82 -90,-48 -156,-105 -197,-170 -41,-66 -67,-144 -79,-236 -8,-62 -8,-158 1,-290l80 -1130 308 22 -70 1011c-11,162 -13,270 -4,327 14,83 50,150 110,201 59,50 136,79 229,86 93,6 181,-11 266,-54 84,-41 147,-102 186,-181 39,-80 65,-197 75,-353l69 -977 309 21 -127 1824 -277 -19z"/>
  </g>
  <g>
   <path id="2" class="fil9 str1" d="M36505 28200l-287 -20 176 -2518 310 22 -63 898c141,-154 314,-225 516,-211 113,8 217,38 315,91 96,52 174,121 234,207 58,87 102,189 131,307 28,118 38,243 28,375 -21,312 -115,549 -282,709 -166,160 -358,232 -574,217 -215,-16 -378,-117 -488,-305l-16 228zm61 -926c-15,219 4,379 56,481 87,165 213,254 378,266 136,9 257,-41 363,-152 107,-110 168,-282 185,-514 16,-238 -18,-418 -105,-538 -87,-120 -197,-184 -331,-194 -135,-9 -256,41 -363,152 -106,111 -167,277 -183,499z"/>
  </g>
  <g>
   <path id="3" class="fil9 str1" d="M38092 27764l308 -27c9,124 50,221 124,292 74,71 181,111 323,121 141,10 249,-12 321,-65 73,-53 112,-118 118,-197 5,-69 -22,-126 -80,-171 -40,-30 -143,-73 -308,-127 -223,-72 -377,-133 -462,-181 -84,-48 -147,-110 -187,-187 -40,-77 -57,-160 -50,-250 6,-81 29,-155 71,-222 42,-66 97,-120 165,-162 50,-32 118,-57 202,-76 85,-19 175,-25 270,-18 143,10 267,39 372,88 106,49 182,110 228,184 47,74 76,171 87,290l-305 20c-7,-95 -42,-171 -104,-228 -62,-57 -153,-90 -274,-98 -141,-10 -244,6 -308,48 -64,43 -99,96 -103,159 -3,40 7,77 30,111 23,35 61,65 113,91 30,13 120,46 268,97 214,74 363,133 447,176 84,43 148,103 192,177 44,74 63,164 56,270 -7,102 -44,197 -111,284 -66,87 -158,151 -275,193 -117,42 -246,58 -390,48 -237,-17 -414,-79 -531,-186 -117,-107 -187,-258 -207,-454z"/>
  </g>
  <g>
   <path id="4" class="fil9 str1" d="M41174 27855l301 61c-48,207 -144,365 -290,474 -145,109 -317,157 -516,142 -250,-17 -444,-113 -585,-287 -141,-173 -200,-412 -179,-717 14,-197 59,-367 134,-510 76,-143 183,-247 322,-311 138,-65 286,-92 443,-81 198,14 357,76 475,184 119,110 190,257 213,444l-304 25c-20,-124 -65,-219 -133,-286 -68,-67 -154,-105 -257,-112 -155,-11 -286,36 -391,141 -105,105 -167,278 -183,520 -17,245 17,426 103,544 86,117 205,181 356,192 121,9 225,-21 312,-90 86,-69 146,-180 179,-333z"/>
  </g>
  <g>
   <path id="5" class="fil9 str1" d="M41693 28563l127 -1824 279 19 -20 277c80,-125 151,-205 215,-242 63,-37 130,-53 202,-48 104,7 208,48 311,121l-126 280c-73,-50 -147,-77 -223,-83 -67,-4 -129,11 -186,49 -56,36 -99,90 -127,161 -42,107 -67,226 -76,357l-67 954 -309 -21z"/>
  </g>
  <g>
   <path id="6" class="fil9 str1" d="M43021 26483l25 -355 309 21 -25 355 -309 -21zm-151 2162l127 -1824 309 21 -127 1825 -309 -22z"/>
  </g>
  <g>
   <path id="7" class="fil9 str1" d="M43935 28720l-287 -21 176 -2517 309 21 -62 899c141,-155 314,-225 516,-211 113,8 217,38 314,90 97,53 175,121 234,208 59,86 103,188 131,307 29,118 39,243 29,375 -22,312 -116,548 -282,708 -166,160 -358,233 -574,217 -216,-15 -378,-117 -488,-305l-16 229zm61 -926c-15,218 3,378 56,480 87,166 213,255 378,266 136,10 257,-41 363,-151 107,-111 168,-282 185,-515 16,-238 -18,-417 -106,-537 -86,-120 -196,-185 -330,-194 -135,-9 -256,41 -363,152 -106,110 -167,277 -183,499z"/>
  </g>
  <g>
   <path id="8" class="fil9 str1" d="M46897 28336l316 62c-63,183 -167,322 -310,415 -143,94 -321,133 -533,118 -267,-19 -473,-116 -617,-291 -145,-175 -207,-411 -186,-707 21,-307 117,-540 287,-698 170,-159 380,-229 632,-212 244,17 437,114 581,291 143,177 203,416 183,717 -2,19 -5,46 -8,82l-1361 -94c-2,201 44,358 139,472 94,113 217,176 369,186 114,8 213,-15 297,-69 84,-54 154,-144 211,-272zm-980 -571l1018 71c-3,-154 -34,-271 -93,-352 -90,-127 -213,-195 -370,-206 -142,-10 -265,29 -368,118 -104,88 -166,211 -187,369z"/>
  </g>
  <g transform="matrix(0.997564 0.0697565 -0.0697565 0.997564 41659 93618.7)">
   <text x="-13949" y="-64900" id="8" class="fil7 fnt0">subscribe</text>
  </g>
 </g>
</svg>
