<?xml version="1.0" encoding="UTF-8"?>
<!DOCTYPE svg PUBLIC "-//W3C//DTD SVG 1.0//EN" "http://www.w3.org/TR/2001/REC-SVG-20010904/DTD/svg10.dtd">
<!-- Creator: CorelDRAW Home & Student X8 -->
<svg xmlns="http://www.w3.org/2000/svg" xml:space="preserve" width="100%" height="100%" version="1.0" style="shape-rendering:geometricPrecision; text-rendering:geometricPrecision; image-rendering:optimizeQuality; fill-rule:evenodd; clip-rule:evenodd"
viewBox="0 0 140200 100200"
 xmlns:xlink="http://www.w3.org/1999/xlink">
 <defs>
  <style type="text/css">
   <![CDATA[
    .str1 {stroke:#00CCFF;stroke-width:1000}
    .str2 {stroke:white;stroke-width:500}
    .str0 {stroke:black;stroke-width:200}
    .str3 {stroke:#999999;stroke-width:200}
    .fil4 {fill:none}
    .fil10 {fill:none;fill-rule:nonzero}
    .fil3 {fill:black}
    .fil9 {fill:#00CCFF}
    .fil7 {fill:gray}
    .fil15 {fill:#CCCCCC}
    .fil13 {fill:#CCCCFF}
    .fil6 {fill:#CCFF66}
    .fil0 {fill:#E6E6E6}
    .fil14 {fill:#F4F4F4}
    .fil8 {fill:#FF6600}
    .fil5 {fill:#FFFF99}
    .fil1 {fill:#00CCFF;fill-rule:nonzero}
    .fil12 {fill:#CCCCCC;fill-rule:nonzero}
    .fil2 {fill:#FF6600;fill-rule:nonzero}
    .fil11 {fill:#FF6600;fill-rule:nonzero}
    .fnt1 {font-weight:normal;font-size:1411.1px;font-family:'Arial'}
    .fnt0 {font-weight:normal;font-size:3527.7px;font-family:'Arial'}
   ]]>
  </style>
 </defs>
 <g id="Ebene_x0020_1">
  <metadata id="CorelCorpID_0Corel-Layer"/>
  <rect class="fil0 str0" x="55100" y="100" width="30000" height="100000"/>
  <g>
   <path class="fil1" d="M120094 92600l-3888 1944 0 -3888 3888 1944zm-39994 -750l36157 0 0 1500 -36157 0 0 -1500z"/>
  </g>
  <g>
   <path class="fil2" d="M60094 30099l-4099 1447 482 -3858 3617 2411zm-39901 -5743l36187 4523 -186 1489 -36187 -4524 186 -1488z"/>
  </g>
  <g>
   <path class="fil2" d="M60094 35100l-3759 2183 -242 -3880 4001 1697zm-40041 1751l36165 -2260 94 1497 -36165 2260 -94 -1497z"/>
  </g>
  <g>
   <path class="fil2" d="M60094 50101l-3759 2182 -242 -3880 4001 1698zm-40041 1751l36165 -2261 94 1497 -36165 2261 -94 -1497z"/>
  </g>
  <g>
   <path class="fil1" d="M120094 25101l-3617 2411 -482 -3858 4099 1447zm-40087 4255l36187 -4523 186 1488 -36187 4523 -186 -1488z"/>
  </g>
  <g>
   <path class="fil1" d="M120094 40100l-3888 1944 0 -3888 3888 1944zm-37494 -750l33657 0 0 1500 -33657 0 0 -1500z"/>
  </g>
  <g>
   <path class="fil1" d="M120094 52600l-4001 1697 242 -3880 3759 2183zm-39947 -3248l36165 2260 -94 1497 -36165 -2260 94 -1497z"/>
  </g>
  <g>
   <path class="fil2" d="M80106 60099l3759 -2182 242 3880 -4001 -1698zm40041 -1750l-36165 2260 -94 -1497 36165 -2260 94 1497z"/>
  </g>
  <g>
   <path class="fil1" d="M20106 57600l4001 -1697 -242 3880 -3759 -2183zm39947 3249l-36165 -2261 94 -1497 36165 2261 -94 1497z"/>
  </g>
  <text x="65109" y="5648"  class="fil3 fnt0">MQTT</text>
  <text x="64910" y="9589"  class="fil3 fnt0">Broker</text>
  <g>
   <path class="fil2" d="M60094 45100l-4001 1697 242 -3880 3759 2183zm-39947 -3249l36165 2261 -94 1497 -36165 -2261 94 -1497z"/>
  </g>
  <polyline class="fil4 str1" points="80100,35100 82600,35100 82600,45100 80100,45100 "/>
  <rect class="fil5 str0" x="120100" y="20100" width="20000" height="10000"/>
  <text x="123929" y="25366"  class="fil3 fnt0">Client B</text>
  <rect class="fil5 str0" x="120100" y="35100" width="20000" height="10000"/>
  <text x="123832" y="40366"  class="fil3 fnt0">Client D</text>
  <rect class="fil5 str0" x="120100" y="50100" width="20000" height="10000"/>
  <text x="124028" y="55366"  class="fil3 fnt0">Client F</text>
  <rect class="fil5 str0" x="100" y="20100" width="20000" height="10000"/>
  <text x="4026" y="25366"  class="fil3 fnt0">Client A</text>
  <rect class="fil5 str0" x="100" y="35100" width="20000" height="10000"/>
  <text x="3832" y="40366"  class="fil3 fnt0">Client C</text>
  <rect class="fil5 str0" x="100" y="50100" width="20000" height="10000"/>
  <text x="3929" y="55366"  class="fil3 fnt0">Client E</text>
  <rect class="fil6 str0" x="60100" y="27600" width="20000" height="10000" rx="2000" ry="2000"/>
  <text x="64516" y="32866"  class="fil3 fnt0">Topic 2</text>
  <rect class="fil6 str0" x="60100" y="42600" width="20000" height="10000" rx="2000" ry="2000"/>
  <text x="64516" y="47866"  class="fil3 fnt0">Topic 3</text>
  <rect class="fil6 str0" x="60100" y="57600" width="20000" height="10000" rx="2000" ry="2000"/>
  <text x="64516" y="62866"  class="fil3 fnt0">Topic 4</text>
  <g>
   <path class="fil2" d="M20103 77600l1944 -972 0 1944 -1944 -972zm37497 375l-35579 0 0 -750 35579 0 0 750z"/>
  </g>
  <g>
   <path class="fil2" d="M60097 78600l-1944 972 0 -1944 1944 972zm-37497 -375l35579 0 0 750 -35579 0 0 -750z"/>
  </g>
  <g>
   <path class="fil2" d="M60097 76600l-1944 972 0 -1944 1944 972zm-37497 -375l35579 0 0 750 -35579 0 0 -750z"/>
  </g>
  <rect class="fil5 str0" x="100" y="72600" width="20000" height="10000"/>
  <text x="3733" y="77866"  class="fil3 fnt0">Client G</text>
  <rect class="fil6 str0" x="60100" y="72600" width="20000" height="10000" rx="2000" ry="2000"/>
  <text x="64516" y="77866"  class="fil3 fnt0">Topic 5</text>
  <rect class="fil5 str0" x="120100" y="72600" width="20000" height="10000"/>
  <text x="123832" y="77866"  class="fil3 fnt0">Client H</text>
  <text x="64287" y="35473"  class="fil7 fnt1">/lorem/ipsum/dolor</text>
  <text x="65166" y="50473"  class="fil7 fnt1">/lorem/ipsum/sit</text>
  <text x="66381" y="66072"  class="fil7 fnt1">/lorem/amet</text>
  <text x="67424" y="81077"  class="fil7 fnt1">/lorem/jk</text>
  <text x="4287" y="27973"  class="fil8 fnt1">/lorem/ipsum/dolor</text>
  <text x="4393" y="42600"  class="fil8 fnt1">/lorem/ipsum/dolor</text>
  <text x="124287" y="27973"  class="fil9 fnt1">/lorem/ipsum/dolor</text>
  <text x="5273" y="43850"  class="fil8 fnt1">/lorem/ipsum/sit</text>
  <text x="125463" y="42973"  class="fil9 fnt1">/lorem/ipsum/#</text>
  <text x="125469" y="57600"  class="fil9 fnt1">/lorem/ipsum/sit</text>
  <text x="5167" y="57600"  class="fil8 fnt1">/lorem/ipsum/sit</text>
  <text x="6382" y="58982"  class="fil9 fnt1">/lorem/amet</text>
  <text x="4620" y="80473"  class="fil8 fnt1">/lorem/jk   QoS=1</text>
  <text x="124760" y="81358"  class="fil9 fnt1">/lorem/jk   QoS=1</text>
  <text x="126684" y="58982"  class="fil8 fnt1">/lorem/amet</text>
  <g>
   <path class="fil1" d="M80103 77600l1944 -972 0 1944 -1944 -972zm37497 375l-35579 0 0 -750 35579 0 0 750z"/>
  </g>
  <g>
   <path class="fil1" d="M120097 78600l-1944 972 0 -1944 1944 972zm-37497 -375l35579 0 0 750 -35579 0 0 -750z"/>
  </g>
  <g>
   <path class="fil1" d="M120097 76600l-1944 972 0 -1944 1944 972zm-37497 -375l35579 0 0 750 -35579 0 0 -750z"/>
  </g>
  <g>
   <path class="fil10 str2" d="M33712 27037l308 -2509 280 34 -29 235c77,-84 161,-144 250,-180 89,-35 192,-46 311,-32 154,19 286,76 395,170 109,95 185,218 227,370 42,153 53,316 32,490 -23,185 -77,348 -162,489 -85,140 -195,242 -332,305 -137,65 -276,87 -415,71 -103,-13 -193,-46 -269,-99 -76,-54 -136,-117 -180,-189l-109 883 -307 -38zm474 -1558c-29,234 -3,412 78,535 81,123 189,193 323,210 137,17 261,-27 372,-130 112,-104 183,-277 213,-520 28,-231 1,-410 -79,-537 -81,-127 -188,-198 -320,-214 -131,-16 -255,31 -370,141 -116,110 -189,281 -217,515z"/>
  </g>
  <g>
   <path id="1" class="fil10 str2" d="M36934 26727l33 -267c-167,188 -371,267 -614,237 -107,-13 -205,-45 -292,-98 -88,-52 -151,-112 -188,-180 -38,-67 -60,-147 -67,-240 -5,-61 1,-158 17,-289l138 -1125 307 39 -123 1006c-20,161 -27,269 -21,326 9,84 42,153 99,206 57,54 132,87 224,98 92,12 182,-1 269,-39 86,-37 151,-95 195,-172 43,-77 74,-194 94,-348l119 -973 308 39 -223 1814 -275 -34z"/>
  </g>
  <g>
   <path id="2" class="fil10 str2" d="M37976 26855l-286 -35 308 -2505 308 38 -110 893c150,-147 325,-207 527,-183 112,14 215,49 309,107 94,57 168,130 223,220 54,89 92,193 114,313 22,119 26,245 10,376 -39,311 -145,541 -320,692 -174,151 -369,213 -584,187 -215,-26 -372,-136 -472,-330l-27 227zm109 -921c-26,217 -16,378 31,482 78,170 199,265 364,286 134,16 258,-28 370,-132 112,-105 183,-273 211,-504 29,-237 4,-418 -76,-542 -80,-124 -187,-195 -321,-211 -134,-17 -257,27 -370,132 -112,105 -182,267 -209,489z"/>
  </g>
  <g>
   <polygon id="3" class="fil10 str2" points="39633,27059 39940,24553 40248,24591 39940,27096 "/>
  </g>
  <g>
   <path id="4" class="fil10 str2" d="M40683 25004l43 -354 308 38 -43 354 -308 -38zm-264 2151l223 -1815 307 38 -223 1815 -307 -38z"/>
  </g>
  <g>
   <path id="5" class="fil10 str2" d="M41138 26693l311 -10c2,124 38,223 108,298 70,74 175,120 315,138 141,17 249,1 325,-48 76,-49 118,-113 127,-190 9,-70 -14,-128 -70,-175 -39,-33 -139,-81 -301,-143 -219,-85 -370,-153 -451,-206 -83,-52 -141,-117 -177,-196 -37,-80 -49,-164 -38,-252 10,-81 38,-154 83,-218 45,-65 103,-116 172,-153 53,-30 121,-52 207,-66 85,-14 175,-16 270,-4 142,17 265,53 368,107 102,55 175,120 218,197 42,75 66,174 71,293l-306 5c-2,-96 -33,-173 -92,-234 -59,-60 -148,-98 -268,-113 -141,-17 -244,-6 -311,33 -66,40 -103,91 -110,153 -5,40 3,78 24,112 21,37 57,69 108,97 29,15 116,53 262,112 210,85 357,151 438,199 81,48 142,109 183,186 39,77 54,167 41,272 -13,103 -55,196 -125,279 -72,83 -166,142 -285,178 -119,36 -250,45 -392,27 -236,-28 -409,-100 -521,-212 -112,-114 -173,-269 -184,-466z"/>
  </g>
  <g>
   <path id="6" class="fil10 str2" d="M42945 27465l308 -2504 308 37 -110 899c164,-149 355,-210 573,-183 135,17 248,57 341,123 93,65 154,147 186,245 31,99 36,237 14,415l-141 1150 -308 -38 141 -1150c19,-154 0,-270 -59,-348 -57,-78 -147,-125 -269,-140 -92,-11 -180,2 -266,40 -86,37 -151,94 -195,171 -45,76 -75,186 -93,328l-122 993 -308 -38z"/>
  </g>
  <g transform="matrix(0.992546 0.121869 -0.121869 0.992546 -88081.4 -74361.9)">
   <text x="133010" y="85100" id="6" class="fil8 fnt0">publish</text>
  </g>
  <g>
   <path class="fil10 str2" d="M33774 36968l-176 -2523 282 -20 17 237c60,-97 130,-172 210,-224 80,-52 180,-83 299,-91 156,-11 296,19 421,91 124,72 222,179 293,321 71,141 113,299 124,473 14,187 -8,357 -65,511 -56,155 -146,276 -267,364 -123,89 -254,138 -395,148 -103,7 -197,-8 -282,-46 -85,-38 -156,-88 -213,-151l62 888 -310 22zm169 -1620c16,234 76,404 179,510 103,105 222,154 357,144 137,-9 251,-76 340,-199 90,-123 127,-307 110,-551 -17,-232 -77,-402 -180,-512 -104,-108 -223,-158 -356,-149 -131,9 -243,79 -336,209 -93,130 -131,313 -114,548z"/>
  </g>
  <g>
   <path id="1" class="fil10 str2" d="M36878 36048l-19 -267c-127,215 -313,332 -557,349 -107,7 -209,-6 -305,-41 -97,-34 -169,-81 -219,-141 -49,-59 -86,-133 -111,-222 -17,-60 -30,-156 -39,-288l-79 -1130 309 -21 71 1012c11,161 25,269 41,325 25,80 71,140 137,182 66,42 146,60 238,53 93,-6 179,-36 257,-89 77,-53 131,-122 159,-206 28,-84 37,-204 25,-360l-68 -977 309 -22 128 1824 -277 19z"/>
  </g>
  <g>
   <path id="2" class="fil10 str2" d="M37925 35975l-287 20 -175 -2517 309 -22 63 898c118,-173 280,-267 482,-281 112,-7 220,8 323,46 104,38 191,96 261,174 70,77 128,172 172,285 45,113 72,236 82,367 21,312 -39,559 -181,741 -143,182 -323,280 -539,295 -215,15 -390,-63 -526,-234l16 228zm-68 -925c15,219 57,374 123,467 108,153 245,223 411,211 136,-9 248,-76 339,-200 89,-124 126,-303 110,-535 -16,-238 -76,-411 -178,-517 -102,-107 -221,-156 -355,-146 -135,9 -248,76 -338,200 -90,124 -127,298 -112,520z"/>
  </g>
  <g>
   <polygon id="3" class="fil10 str2" points="39591,35859 39414,33341 39724,33319 39900,35837 "/>
  </g>
  <g>
   <path id="4" class="fil10 str2" d="M40230 33641l-25 -355 309 -22 25 356 -309 21zm151 2162l-128 -1824 310 -21 127 1823 -309 22z"/>
  </g>
  <g>
   <path id="5" class="fil10 str2" d="M40999 35213l302 -69c26,121 81,211 164,271 83,60 194,85 336,75 141,-10 245,-46 309,-109 65,-62 94,-133 89,-210 -5,-70 -39,-123 -102,-159 -45,-24 -152,-52 -324,-82 -231,-42 -391,-80 -482,-116 -90,-36 -160,-89 -211,-160 -50,-70 -78,-150 -85,-239 -5,-82 8,-159 40,-230 32,-72 79,-133 140,-184 46,-39 109,-73 191,-103 81,-31 169,-50 264,-56 143,-10 270,2 381,35 111,34 195,84 252,151 56,67 98,158 125,275l-299 63c-20,-93 -65,-164 -134,-212 -70,-48 -164,-68 -285,-59 -142,9 -242,40 -299,91 -57,51 -84,109 -80,171 3,40 19,76 46,106 27,31 69,56 124,74 32,9 125,29 279,60 222,43 379,80 467,111 90,32 161,81 216,149 54,67 84,153 92,259 7,103 -17,202 -70,297 -54,95 -136,172 -246,230 -109,57 -236,91 -379,101 -237,17 -421,-20 -552,-110 -131,-89 -221,-230 -269,-421z"/>
  </g>
  <g>
   <path id="6" class="fil10 str2" d="M42920 35626l-175 -2518 309 -21 63 903c133,-177 308,-274 528,-289 136,-9 255,9 358,55 103,46 180,115 229,206 49,91 81,225 93,404l81 1156 -309 21 -81 -1155c-11,-155 -52,-265 -124,-331 -72,-65 -169,-94 -291,-85 -92,6 -177,36 -254,89 -77,53 -130,122 -159,205 -29,84 -38,197 -28,341l70 997 -310 22z"/>
  </g>
  <g transform="matrix(0.997564 -0.0697565 0.0697565 0.997564 -105129 -39329.5)">
   <text x="133010" y="85100" id="6" class="fil8 fnt0">publish</text>
  </g>
  <g>
   <path class="fil10 str2" d="M33828 52049l-177 -2523 282 -20 17 237c60,-97 130,-172 210,-224 80,-52 180,-83 299,-91 156,-11 296,19 421,91 125,72 222,179 293,321 71,141 113,299 124,473 14,187 -8,357 -65,511 -56,154 -146,276 -267,364 -123,89 -254,138 -395,148 -103,7 -197,-8 -282,-46 -85,-38 -156,-88 -213,-151l62 888 -309 22zm168 -1620c16,234 76,404 179,510 103,105 222,153 357,144 137,-9 251,-76 340,-199 90,-123 127,-307 110,-551 -17,-232 -77,-402 -180,-512 -104,-108 -222,-158 -355,-149 -132,9 -244,79 -337,209 -93,130 -131,313 -114,548z"/>
  </g>
  <g>
   <path id="1" class="fil10 str2" d="M36931 51129l-19 -267c-127,215 -312,332 -556,349 -108,7 -210,-6 -306,-41 -96,-34 -169,-81 -219,-141 -49,-59 -86,-133 -111,-222 -17,-60 -30,-156 -39,-288l-79 -1130 309 -21 71 1011c11,162 25,270 42,326 24,80 70,140 137,182 65,42 145,60 238,53 93,-6 178,-36 256,-89 78,-53 131,-122 159,-206 28,-84 37,-204 26,-360l-69 -977 310 -22 127 1824 -277 19z"/>
  </g>
  <g>
   <path id="2" class="fil10 str2" d="M37978 51056l-287 20 -175 -2517 309 -22 63 898c119,-173 280,-267 482,-281 112,-7 220,8 323,46 104,38 191,96 261,174 70,77 128,172 173,285 44,113 71,236 81,367 21,312 -39,559 -181,741 -143,182 -322,280 -539,295 -215,15 -390,-63 -525,-234l15 228zm-68 -925c15,219 57,374 123,467 108,153 245,223 412,211 135,-9 247,-76 338,-200 90,-124 127,-303 110,-535 -16,-238 -76,-411 -178,-518 -102,-106 -220,-155 -354,-145 -136,9 -249,76 -338,200 -91,124 -128,298 -113,520z"/>
  </g>
  <g>
   <polygon id="3" class="fil10 str2" points="39644,50939 39468,48422 39777,48400 39953,50918 "/>
  </g>
  <g>
   <path id="4" class="fil10 str2" d="M40283 48722l-25 -355 309 -22 25 356 -309 21zm151 2162l-128 -1824 310 -21 127 1823 -309 22z"/>
  </g>
  <g>
   <path id="5" class="fil10 str2" d="M41052 50294l303 -69c25,121 80,211 163,271 83,60 195,85 336,75 141,-10 245,-46 310,-109 64,-62 94,-133 88,-210 -4,-70 -38,-123 -102,-159 -45,-24 -152,-52 -323,-82 -231,-42 -392,-80 -482,-116 -91,-36 -161,-89 -212,-160 -50,-70 -78,-150 -85,-239 -5,-82 8,-159 40,-230 33,-72 80,-133 140,-184 46,-39 109,-73 191,-103 81,-31 169,-50 264,-56 143,-10 270,2 381,35 111,34 195,84 252,151 56,67 98,158 126,275l-300 63c-20,-93 -65,-164 -134,-212 -70,-48 -164,-68 -285,-59 -142,9 -241,40 -299,91 -57,51 -84,109 -79,171 2,40 18,76 45,106 27,31 69,56 124,74 32,9 125,29 279,60 222,43 379,80 468,111 89,32 160,81 215,149 54,67 84,153 92,259 7,103 -16,202 -70,297 -54,95 -136,171 -246,230 -109,57 -236,91 -379,101 -237,17 -421,-20 -552,-110 -131,-90 -220,-230 -269,-421z"/>
  </g>
  <g>
   <path id="6" class="fil10 str2" d="M42973 50706l-175 -2517 309 -21 63 903c133,-177 309,-274 528,-289 136,-9 255,9 358,55 103,46 180,115 229,206 50,91 81,225 93,404l81 1156 -309 21 -81 -1155c-11,-155 -52,-265 -124,-331 -72,-65 -169,-94 -291,-85 -92,6 -177,35 -254,89 -77,53 -130,122 -159,205 -29,84 -38,197 -28,341l70 997 -310 21z"/>
  </g>
  <g transform="matrix(0.997564 -0.0697565 0.0697565 0.997564 -105076 -24248.5)">
   <text x="133010" y="85100" id="6" class="fil8 fnt0">publish</text>
  </g>
  <g>
   <path class="fil10 str2" d="M95321 59499l-176 -2522 281 -20 17 237c60,-98 130,-172 210,-225 81,-51 181,-82 299,-90 156,-11 296,19 421,91 125,72 223,179 293,320 71,142 113,300 125,474 13,187 -8,357 -65,511 -57,154 -146,275 -268,364 -122,88 -254,138 -394,148 -103,7 -197,-8 -283,-46 -84,-38 -155,-88 -213,-151l62 888 -309 21zm168 -1619c17,234 77,404 179,510 103,105 222,153 357,144 137,-9 251,-76 341,-199 90,-123 126,-307 109,-551 -16,-232 -76,-402 -180,-512 -104,-109 -222,-158 -355,-149 -132,9 -243,79 -336,209 -93,130 -131,312 -115,548z"/>
  </g>
  <g>
   <path id="1" class="fil10 str2" d="M98425 58580l-19 -268c-128,216 -313,333 -557,350 -107,7 -210,-6 -306,-41 -96,-35 -169,-82 -218,-141 -50,-59 -87,-133 -111,-222 -17,-60 -30,-156 -40,-288l-79 -1130 310 -22 70 1012c11,161 25,270 42,325 25,80 71,141 137,183 66,42 146,60 238,53 93,-6 178,-36 256,-89 78,-54 131,-122 159,-207 28,-84 37,-204 26,-359l-68 -978 309 -21 128 1824 -277 19z"/>
  </g>
  <g>
   <path id="2" class="fil10 str2" d="M99472 58507l-287 20 -176 -2517 309 -22 63 898c119,-173 280,-267 482,-281 113,-7 220,8 324,46 103,38 190,96 261,173 70,78 127,173 172,286 45,113 72,235 81,367 22,312 -39,559 -181,741 -143,182 -322,280 -538,294 -216,16 -391,-62 -526,-234l16 229zm-68 -925c15,218 56,374 122,467 109,152 246,223 412,211 135,-9 248,-76 338,-200 90,-124 127,-303 111,-535 -17,-238 -76,-411 -178,-518 -103,-106 -221,-155 -355,-145 -135,9 -248,76 -338,200 -91,124 -128,298 -112,520z"/>
  </g>
  <g>
   <polygon id="3" class="fil10 str2" points="101137,58390 100961,55873 101270,55851 101446,58369 "/>
  </g>
  <g>
   <path id="4" class="fil10 str2" d="M101776 56173l-24 -356 309 -21 25 355 -310 22zm151 2162l-127 -1824 309 -21 128 1823 -310 22z"/>
  </g>
  <g>
   <path id="5" class="fil10 str2" d="M102546 57745l302 -70c26,121 80,212 163,272 83,60 195,85 336,75 142,-10 245,-46 310,-109 65,-62 94,-133 89,-211 -5,-70 -39,-122 -103,-158 -44,-24 -152,-52 -323,-83 -231,-41 -391,-80 -482,-115 -91,-36 -161,-89 -211,-160 -51,-70 -79,-150 -85,-240 -6,-81 7,-158 40,-230 32,-71 79,-132 140,-183 45,-39 109,-73 190,-103 81,-31 169,-50 265,-56 142,-10 270,1 381,35 111,34 195,84 251,151 57,67 98,158 126,275l-299 63c-20,-93 -65,-164 -135,-212 -69,-48 -164,-68 -284,-59 -142,9 -242,39 -300,91 -57,51 -83,108 -79,171 3,40 18,76 45,106 28,31 70,56 125,74 32,9 125,29 279,60 222,43 378,80 467,111 89,31 160,81 215,148 54,67 85,154 92,260 8,103 -16,201 -69,297 -55,95 -136,171 -246,230 -110,57 -237,91 -379,101 -237,17 -421,-20 -553,-110 -131,-90 -220,-230 -268,-421z"/>
  </g>
  <g>
   <path id="6" class="fil10 str2" d="M104467 58157l-176 -2517 309 -21 63 903c133,-177 309,-274 529,-289 135,-9 254,9 357,55 104,46 180,115 230,205 49,92 80,226 93,405l81 1156 -310 21 -80 -1155c-11,-155 -52,-265 -124,-331 -72,-66 -170,-94 -292,-86 -91,7 -176,36 -253,90 -78,53 -131,122 -160,205 -28,83 -38,197 -28,340l70 998 -309 21z"/>
  </g>
  <g transform="matrix(0.997564 -0.0697565 0.0697565 0.997564 -43582.2 -16797.6)">
   <text x="133010" y="85100" id="6" class="fil8 fnt0">publish</text>
  </g>
  <g>
   <path class="fil10 str2" d="M92872 27495l298 -85c32,120 91,207 177,262 86,56 199,75 339,57 142,-17 243,-58 304,-124 61,-66 87,-138 77,-215 -8,-70 -45,-121 -110,-153 -45,-23 -155,-44 -328,-66 -232,-29 -394,-59 -486,-90 -93,-31 -166,-80 -220,-148 -54,-68 -86,-147 -97,-235 -10,-82 -1,-159 27,-232 29,-74 73,-137 131,-191 43,-41 105,-78 184,-113 80,-35 167,-58 262,-69 142,-18 269,-13 382,15 113,28 199,73 259,137 60,64 107,153 140,269l-295 77c-26,-92 -74,-159 -146,-204 -72,-44 -168,-59 -287,-44 -142,17 -239,53 -294,107 -55,54 -78,112 -70,175 4,40 21,74 51,103 28,30 71,53 127,68 33,7 126,23 282,45 224,31 382,60 473,86 90,27 164,73 222,137 58,65 93,150 106,254 12,103 -6,203 -54,301 -49,98 -127,179 -233,242 -107,64 -232,104 -374,121 -236,29 -422,3 -558,-80 -135,-83 -232,-218 -289,-407z"/>
  </g>
  <g>
   <path id="1" class="fil10 str2" d="M96001 27660l-33 -266c-116,222 -295,349 -538,378 -107,14 -209,5 -307,-25 -98,-29 -173,-72 -226,-128 -52,-58 -94,-129 -122,-217 -21,-59 -39,-154 -55,-285l-138 -1124 308 -38 123 1006c20,161 40,268 59,323 29,78 78,137 146,175 69,38 149,52 241,41 92,-11 176,-45 251,-103 75,-57 125,-128 148,-214 24,-86 26,-206 7,-361l-119 -972 307 -38 223 1815 -275 33z"/>
  </g>
  <g>
   <path id="2" class="fil10 str2" d="M97043 27533l-286 35 -307 -2505 307 -38 110 893c110,-178 266,-280 468,-305 111,-13 219,-4 325,29 105,32 195,86 269,159 75,74 137,166 188,276 50,111 84,232 99,363 39,311 -9,561 -142,749 -133,189 -307,296 -522,323 -215,26 -393,-43 -537,-207l28 228zm-116 -921c26,218 75,371 146,461 116,146 257,209 422,189 135,-17 243,-89 327,-218 84,-128 112,-309 83,-540 -29,-237 -97,-406 -205,-507 -108,-102 -229,-144 -362,-127 -135,16 -243,88 -327,217 -83,129 -112,304 -84,525z"/>
  </g>
  <g>
   <path id="3" class="fil10 str2" d="M98517 26802l298 -86c32,120 91,208 177,263 86,55 199,75 339,57 142,-17 243,-59 304,-124 61,-66 87,-138 78,-216 -8,-69 -45,-120 -111,-152 -45,-23 -154,-45 -327,-66 -232,-29 -395,-59 -487,-90 -92,-31 -166,-80 -219,-148 -54,-69 -87,-147 -98,-236 -10,-81 0,-158 28,-231 29,-74 72,-137 130,-191 44,-41 105,-78 185,-113 79,-35 166,-58 261,-70 142,-17 270,-12 383,16 112,28 198,73 258,137 60,64 107,153 141,268l-296 78c-25,-92 -73,-159 -146,-204 -71,-44 -167,-59 -287,-44 -141,17 -239,53 -294,107 -54,54 -78,112 -70,175 5,40 22,74 51,103 29,30 72,52 128,68 32,7 125,23 281,45 225,31 382,60 473,86 91,27 165,73 222,137 58,65 93,150 106,254 12,103 -5,203 -54,301 -49,98 -126,179 -233,242 -107,63 -231,103 -374,121 -236,29 -421,2 -557,-80 -135,-83 -232,-219 -290,-407z"/>
  </g>
  <g>
   <path id="4" class="fil10 str2" d="M101560 26303l307 3c-7,212 -72,385 -194,520 -121,135 -281,214 -479,239 -249,30 -458,-27 -629,-170 -171,-144 -275,-368 -313,-670 -23,-196 -12,-372 35,-527 46,-155 132,-277 256,-367 123,-89 263,-144 420,-163 197,-25 364,6 501,90 138,84 235,216 293,395l-293 83c-43,-119 -105,-204 -185,-257 -80,-52 -171,-72 -273,-60 -156,19 -274,90 -358,213 -83,123 -110,305 -80,545 30,244 98,415 205,514 107,99 235,140 386,121 121,-15 217,-64 289,-148 71,-84 109,-204 112,-361z"/>
  </g>
  <g>
   <path id="5" class="fil10 str2" d="M102205 26899l-223 -1815 276 -34 34 275c55,-137 110,-230 164,-279 56,-48 118,-76 190,-85 104,-13 214,7 329,60l-71 298c-81,-34 -159,-47 -234,-38 -67,8 -125,35 -174,82 -49,47 -80,109 -94,183 -20,114 -23,235 -7,365l117 950 -307 38z"/>
  </g>
  <g>
   <path id="6" class="fil10 str2" d="M103111 24604l-43 -354 307 -37 44 353 -308 38zm264 2151l-222 -1815 307 -37 223 1814 -308 38z"/>
  </g>
  <g>
   <path id="7" class="fil10 str2" d="M104435 26625l-285 35 -308 -2505 308 -38 110 894c110,-179 265,-281 467,-305 112,-14 220,-4 325,28 105,33 195,86 269,160 75,73 137,165 188,275 51,112 84,232 100,363 38,311 -9,561 -142,749 -133,189 -307,297 -522,323 -215,27 -394,-42 -538,-206l28 227zm-116 -921c26,218 75,372 146,461 117,146 257,210 423,189 134,-16 243,-89 327,-217 83,-129 111,-310 83,-541 -29,-237 -98,-406 -206,-507 -107,-101 -228,-144 -362,-127 -134,16 -243,89 -326,217 -84,129 -113,304 -85,525z"/>
  </g>
  <g>
   <path id="8" class="fil10 str2" d="M107269 25683l323 1c-27,192 -102,348 -226,466 -122,120 -289,192 -500,218 -265,33 -486,-23 -661,-168 -176,-144 -282,-364 -318,-659 -38,-305 12,-551 148,-739 137,-189 331,-298 581,-328 243,-30 451,28 625,174 174,147 279,369 316,669 3,18 6,46 9,83l-1354 165c36,198 111,344 226,438 114,93 248,131 399,112 113,-14 205,-55 278,-124 72,-69 124,-172 154,-308zm-1070 -372l1013 -125c-33,-151 -85,-260 -158,-329 -113,-107 -247,-150 -403,-131 -142,17 -255,79 -339,186 -85,106 -123,239 -113,399z"/>
  </g>
  <g transform="matrix(0.992546 -0.121869 0.121869 0.992546 -47615 -40444.7)">
   <text x="131051" y="85100" id="8" class="fil9 fnt0">subscribe</text>
  </g>
  <g>
   <path class="fil10 str2" d="M92926 39235l307 -49c17,123 65,217 144,282 78,66 189,99 330,99 143,0 249,-29 318,-87 69,-58 104,-126 104,-204 0,-70 -32,-126 -93,-166 -44,-27 -150,-62 -318,-105 -227,-57 -384,-106 -472,-148 -87,-42 -154,-100 -199,-174 -45,-74 -68,-155 -68,-245 0,-81 18,-157 55,-226 38,-69 89,-127 153,-173 48,-35 114,-65 197,-90 83,-24 172,-37 267,-37 144,0 270,21 378,62 108,42 188,98 240,169 51,71 87,165 107,284l-304 43c-13,-96 -53,-170 -119,-224 -66,-53 -159,-80 -279,-80 -142,0 -244,24 -304,71 -61,47 -92,102 -92,165 0,40 13,76 38,109 25,33 65,60 119,82 31,12 122,38 273,79 219,59 372,107 459,144 87,37 155,92 204,162 50,71 75,159 75,265 0,103 -30,200 -90,291 -61,91 -148,162 -261,212 -115,50 -243,75 -387,75 -237,0 -419,-50 -544,-148 -124,-99 -204,-245 -238,-438z"/>
  </g>
  <g>
   <path id="1" class="fil10 str2" d="M96009 39782l0 -272c-142,207 -335,311 -579,311 -108,0 -208,-21 -302,-62 -93,-42 -163,-94 -208,-156 -45,-63 -77,-139 -95,-230 -13,-61 -19,-157 -19,-289l0 -1133 310 0 0 1013c0,162 7,271 19,327 20,82 61,145 124,192 63,46 141,70 234,70 93,0 180,-24 261,-72 81,-47 138,-112 173,-194 33,-82 50,-201 50,-357l0 -979 311 0 0 1831 -279 0z"/>
  </g>
  <g>
   <path id="2" class="fil10 str2" d="M97061 39782l-290 0 0 -2526 311 0 0 901c131,-163 298,-245 501,-245 113,0 220,23 320,68 101,45 183,109 248,191 65,82 116,181 153,297 37,115 55,239 55,371 0,313 -78,555 -232,725 -156,171 -341,257 -558,257 -216,0 -385,-90 -508,-270l0 231zm-4 -929c0,219 30,377 90,474 97,160 229,240 395,240 136,0 253,-59 351,-177 99,-117 148,-293 148,-525 0,-239 -47,-415 -141,-528 -95,-114 -210,-171 -344,-171 -135,0 -252,59 -351,177 -98,117 -148,287 -148,510z"/>
  </g>
  <g>
   <path id="3" class="fil10 str2" d="M98614 39235l306 -49c17,123 66,217 144,282 79,66 190,99 331,99 143,0 249,-29 318,-87 69,-58 103,-126 103,-204 0,-70 -31,-126 -92,-166 -44,-27 -150,-62 -318,-105 -227,-57 -384,-106 -472,-148 -88,-42 -154,-100 -199,-174 -46,-74 -69,-155 -69,-245 0,-81 19,-157 56,-226 38,-69 88,-127 153,-173 48,-35 114,-65 197,-90 83,-24 172,-37 267,-37 143,0 269,21 378,62 108,42 188,98 240,169 51,71 87,165 106,284l-303 43c-14,-96 -53,-170 -119,-224 -66,-53 -159,-80 -280,-80 -141,0 -243,24 -304,71 -60,47 -91,102 -91,165 0,40 13,76 38,109 25,33 65,60 119,82 31,12 121,38 273,79 219,59 372,107 459,144 87,37 155,92 204,162 50,71 75,159 75,265 0,103 -30,200 -91,291 -60,91 -147,162 -261,212 -114,50 -242,75 -386,75 -237,0 -419,-50 -544,-148 -124,-99 -204,-245 -238,-438z"/>
  </g>
  <g>
   <path id="4" class="fil10 str2" d="M101697 39112l303 42c-33,209 -118,372 -255,490 -137,118 -306,177 -505,177 -250,0 -451,-82 -603,-246 -152,-163 -228,-397 -228,-702 0,-197 33,-369 98,-518 66,-147 165,-258 299,-332 133,-74 279,-111 436,-111 198,0 361,50 487,151 126,100 208,243 243,428l-300 46c-29,-123 -79,-216 -153,-278 -73,-62 -161,-93 -264,-93 -157,0 -284,56 -382,168 -98,112 -146,288 -146,531 0,245 47,424 141,535 94,111 217,167 368,167 123,0 224,-37 305,-112 82,-74 134,-189 156,-343z"/>
  </g>
  <g>
   <path id="5" class="fil10 str2" d="M102261 39782l0 -1831 279 0 0 280c71,-130 137,-215 197,-257 61,-41 127,-62 200,-62 104,0 211,33 319,98l-111 287c-75,-43 -150,-64 -225,-64 -68,0 -129,21 -182,61 -54,41 -92,97 -115,170 -34,110 -52,230 -52,361l0 957 -310 0z"/>
  </g>
  <g>
   <path id="6" class="fil10 str2" d="M103439 37609l0 -353 311 0 0 353 -311 0zm0 2173l0 -1831 311 0 0 1831 -311 0z"/>
  </g>
  <g>
   <path id="7" class="fil10 str2" d="M104509 39782l-290 0 0 -2526 311 0 0 901c131,-163 298,-245 501,-245 113,0 220,23 320,68 101,45 183,109 248,191 65,82 116,181 153,297 37,115 55,239 55,371 0,313 -78,555 -232,725 -156,171 -341,257 -558,257 -216,0 -385,-90 -508,-270l0 231zm-4 -929c0,219 30,377 90,474 97,160 229,240 395,240 136,0 253,-59 351,-177 99,-117 148,-293 148,-525 0,-239 -47,-415 -141,-528 -95,-114 -210,-171 -344,-171 -135,0 -252,59 -351,177 -98,117 -148,287 -148,510z"/>
  </g>
  <g>
   <path id="8" class="fil10 str2" d="M107434 39189l321 43c-50,186 -144,331 -280,434 -136,103 -310,155 -523,155 -267,0 -478,-83 -635,-247 -156,-164 -234,-395 -234,-692 0,-307 78,-546 237,-715 158,-170 363,-255 615,-255 244,0 444,83 598,249 155,167 232,401 232,702 0,19 0,46 -1,83l-1364 0c12,200 68,354 171,461 101,106 229,160 381,160 114,0 211,-30 291,-90 80,-60 144,-156 191,-288zm-1016 -497l1019 0c-13,-154 -53,-269 -117,-347 -98,-119 -226,-179 -383,-179 -142,0 -262,48 -359,143 -96,95 -150,223 -160,383z"/>
  </g>
  <g>
   <path id="9" class="fil10 str2" d="M109071 39824l150 -734 -291 0 0 -257 343 0 127 -625 -470 0 0 -257 523 0 150 -737 259 0 -150 737 537 0 151 -737 258 0 -150 737 298 0 0 257 -351 0 -127 625 478 0 0 257 -531 0 -150 734 -258 0 150 -734 -538 0 -150 734 -258 0zm460 -991l538 0 128 -625 -538 0 -128 625z"/>
  </g>
  <text x="92816" y="39782" id="9" class="fil9 fnt0">subscribe #</text>
  <g>
   <path class="fil10 str2" d="M93382 49856l308 -27c9,124 50,221 125,292 73,70 181,110 322,120 141,10 249,-11 321,-64 73,-53 112,-119 118,-197 5,-69 -22,-126 -80,-171 -40,-30 -143,-73 -308,-127 -223,-73 -377,-133 -462,-181 -84,-48 -147,-110 -187,-188 -40,-77 -57,-159 -50,-249 6,-82 29,-155 71,-222 42,-66 97,-121 165,-162 50,-32 118,-57 202,-76 85,-19 175,-26 270,-18 143,10 267,39 372,88 106,49 182,110 228,184 47,74 76,170 87,290l-305 20c-7,-95 -42,-171 -104,-228 -62,-57 -153,-90 -274,-99 -141,-10 -244,7 -308,49 -64,43 -98,96 -103,159 -3,40 7,77 30,110 23,36 61,66 113,92 30,13 120,45 268,97 214,74 363,132 447,176 84,43 148,102 192,176 45,75 63,165 56,270 -7,103 -44,198 -111,285 -66,87 -158,151 -275,193 -116,42 -246,58 -390,48 -237,-17 -414,-79 -531,-186 -117,-107 -187,-259 -207,-454z"/>
  </g>
  <g>
   <path id="1" class="fil10 str2" d="M96422 50615l19 -268c-157,197 -357,286 -601,269 -107,-8 -206,-35 -297,-83 -90,-48 -156,-105 -197,-170 -41,-66 -67,-144 -79,-236 -8,-61 -8,-158 1,-289l80 -1131 308 22 -70 1012c-11,161 -13,270 -4,327 14,83 50,149 110,200 59,51 136,80 229,86 93,7 181,-11 266,-53 84,-42 147,-102 186,-182 39,-79 65,-197 75,-353l69 -977 309 22 -127 1824 -277 -20z"/>
  </g>
  <g>
   <path id="2" class="fil10 str2" d="M97469 50689l-287 -21 176 -2518 310 22 -63 899c141,-155 314,-226 516,-211 113,8 217,38 315,90 96,52 174,121 234,208 58,86 102,188 131,307 28,118 38,243 28,375 -21,312 -115,548 -282,708 -166,160 -358,232 -574,217 -215,-15 -378,-117 -488,-305l-16 229zm61 -926c-15,218 4,378 56,480 87,166 213,255 378,266 136,10 257,-41 363,-151 107,-111 168,-282 185,-515 16,-238 -18,-417 -105,-537 -87,-120 -197,-185 -331,-194 -135,-10 -256,41 -363,151 -106,111 -167,277 -183,500z"/>
  </g>
  <g>
   <path id="3" class="fil10 str2" d="M99056 50252l308 -27c9,124 50,221 124,292 74,71 181,111 323,121 141,10 249,-12 321,-65 73,-53 112,-118 118,-196 5,-69 -22,-126 -80,-171 -40,-31 -143,-73 -308,-127 -223,-73 -377,-134 -462,-181 -84,-48 -147,-111 -187,-188 -40,-77 -57,-160 -50,-249 6,-82 29,-155 71,-222 42,-67 97,-121 165,-162 50,-32 118,-58 202,-76 85,-19 175,-26 270,-19 143,10 267,40 372,88 106,49 182,111 228,185 47,74 76,170 87,289l-305 20c-7,-94 -42,-170 -104,-228 -62,-57 -153,-90 -274,-98 -141,-10 -244,7 -308,49 -64,43 -99,96 -103,159 -3,40 7,77 30,110 23,36 61,65 113,91 30,14 120,46 268,98 214,74 363,132 447,176 84,43 148,102 192,176 44,75 63,165 56,270 -7,103 -44,198 -111,284 -66,88 -158,152 -275,193 -117,43 -246,59 -390,49 -237,-17 -414,-79 -531,-186 -117,-107 -187,-259 -207,-455z"/>
  </g>
  <g>
   <path id="4" class="fil10 str2" d="M102138 50344l301 60c-48,208 -144,365 -290,475 -145,108 -317,156 -516,142 -250,-18 -444,-113 -585,-287 -141,-173 -200,-413 -179,-717 14,-197 59,-367 134,-511 76,-142 183,-247 322,-311 138,-64 286,-91 443,-80 198,14 357,75 475,184 119,109 190,257 213,444l-304 25c-20,-125 -65,-220 -133,-287 -68,-67 -154,-104 -257,-111 -155,-11 -286,36 -391,141 -105,105 -167,278 -183,519 -17,245 17,426 103,544 86,118 205,182 356,192 121,9 225,-21 312,-90 86,-68 146,-180 179,-332z"/>
  </g>
  <g>
   <path id="5" class="fil10 str2" d="M102657 51051l127 -1824 279 20 -20 277c80,-125 151,-206 215,-243 63,-37 130,-53 202,-48 104,7 208,48 311,122l-126 279c-73,-50 -147,-77 -223,-82 -67,-5 -129,11 -186,48 -56,36 -99,91 -127,161 -42,107 -67,226 -76,357l-67 955 -309 -22z"/>
  </g>
  <g>
   <path id="6" class="fil10 str2" d="M103985 48971l25 -355 309 21 -25 356 -309 -22zm-151 2163l127 -1824 309 21 -127 1824 -309 -21z"/>
  </g>
  <g>
   <path id="7" class="fil10 str2" d="M104899 51208l-287 -20 176 -2518 309 22 -62 898c141,-154 314,-225 516,-211 113,8 217,38 314,91 97,52 175,121 234,207 59,87 103,189 131,307 29,118 39,244 29,375 -22,312 -116,549 -282,709 -166,160 -358,232 -574,217 -216,-16 -378,-117 -488,-305l-16 228zm61 -926c-15,219 3,379 56,481 87,165 213,254 378,266 136,9 257,-41 363,-152 107,-110 168,-282 185,-514 16,-238 -18,-418 -106,-538 -86,-120 -196,-184 -330,-194 -135,-9 -256,42 -363,152 -106,111 -167,277 -183,499z"/>
  </g>
  <g>
   <path id="8" class="fil10 str2" d="M107861 50825l316 62c-63,183 -167,321 -310,415 -143,93 -321,133 -533,118 -267,-19 -473,-116 -617,-291 -145,-175 -207,-411 -186,-708 21,-307 117,-539 287,-697 170,-159 380,-229 632,-212 244,17 437,114 581,291 143,177 203,416 183,717 -2,18 -5,46 -8,82l-1361 -95c-2,201 44,358 139,472 94,114 217,176 369,187 114,7 213,-15 297,-70 84,-53 154,-144 211,-271zm-980 -571l1018 71c-3,-154 -34,-272 -93,-353 -90,-126 -213,-194 -370,-206 -142,-10 -265,30 -368,118 -104,88 -166,212 -187,370z"/>
  </g>
  <g transform="matrix(0.997564 0.0697565 -0.0697565 0.997564 -31560.3 -43642.1)">
   <text x="131051" y="85100" id="8" class="fil9 fnt0">subscribe</text>
  </g>
  <g>
   <path class="fil10 str2" d="M32418 57367l308 -27c9,124 50,221 125,292 73,71 181,111 322,121 141,10 249,-12 321,-65 73,-53 112,-118 118,-196 5,-70 -22,-127 -80,-171 -40,-31 -143,-73 -308,-127 -223,-73 -377,-134 -462,-181 -84,-49 -147,-111 -187,-188 -40,-77 -57,-160 -50,-249 6,-82 29,-156 71,-223 42,-66 97,-120 165,-161 50,-33 118,-58 202,-77 85,-18 175,-25 270,-18 143,10 267,39 372,88 106,49 182,110 228,184 47,74 76,171 87,290l-305 20c-7,-95 -42,-170 -104,-228 -62,-57 -153,-90 -274,-98 -141,-10 -244,6 -308,49 -64,43 -98,95 -103,158 -3,40 7,77 30,111 23,35 61,65 113,91 30,14 120,46 268,98 214,74 363,132 447,175 84,43 148,103 192,177 45,74 63,164 56,270 -7,103 -44,197 -111,284 -66,87 -158,151 -275,193 -116,42 -246,58 -390,48 -237,-17 -414,-78 -531,-185 -117,-107 -187,-259 -207,-455z"/>
  </g>
  <g>
   <path id="1" class="fil10 str2" d="M35458 58127l19 -268c-157,196 -357,285 -601,268 -107,-7 -206,-35 -297,-82 -90,-48 -156,-105 -197,-170 -41,-66 -67,-144 -79,-236 -8,-62 -8,-158 1,-290l80 -1130 308 22 -70 1011c-11,162 -13,270 -4,327 14,83 50,150 110,201 59,50 136,79 229,86 93,6 181,-11 266,-54 84,-41 147,-102 186,-181 39,-80 65,-197 75,-353l69 -977 309 21 -127 1824 -277 -19z"/>
  </g>
  <g>
   <path id="2" class="fil10 str2" d="M36505 58200l-287 -20 176 -2518 310 22 -63 898c141,-154 314,-225 516,-211 113,8 217,38 315,91 96,52 174,121 234,207 58,87 102,189 131,307 28,118 38,243 28,375 -21,312 -115,549 -282,709 -166,160 -358,232 -574,217 -215,-16 -378,-117 -488,-305l-16 228zm61 -926c-15,219 4,379 56,481 87,165 213,254 378,266 136,9 257,-41 363,-152 107,-110 168,-282 185,-514 16,-238 -18,-418 -105,-538 -87,-120 -197,-184 -331,-194 -135,-9 -256,41 -363,152 -106,111 -167,277 -183,499z"/>
  </g>
  <g>
   <path id="3" class="fil10 str2" d="M38092 57764l308 -27c9,124 50,221 124,292 74,71 181,111 323,121 141,10 249,-12 321,-65 73,-53 112,-118 118,-197 5,-69 -22,-126 -80,-171 -40,-30 -143,-73 -308,-127 -223,-72 -377,-133 -462,-181 -84,-48 -147,-110 -187,-187 -40,-77 -57,-160 -50,-250 6,-81 29,-155 71,-222 42,-66 97,-120 165,-162 50,-32 118,-57 202,-76 85,-19 175,-25 270,-18 143,10 267,39 372,88 106,49 182,110 228,184 47,74 76,171 87,290l-305 20c-7,-95 -42,-171 -104,-228 -62,-57 -153,-90 -274,-98 -141,-10 -244,6 -308,48 -64,43 -99,96 -103,159 -3,40 7,77 30,111 23,35 61,65 113,91 30,13 120,46 268,97 214,74 363,133 447,176 84,43 148,103 192,177 44,74 63,164 56,270 -7,102 -44,197 -111,284 -66,87 -158,151 -275,193 -117,42 -246,58 -390,48 -237,-17 -414,-79 -531,-186 -117,-107 -187,-258 -207,-454z"/>
  </g>
  <g>
   <path id="4" class="fil10 str2" d="M41174 57855l301 61c-48,207 -144,365 -290,474 -145,109 -317,157 -516,142 -250,-17 -444,-113 -585,-287 -141,-173 -200,-412 -179,-717 14,-197 59,-367 134,-510 76,-143 183,-247 322,-311 138,-65 286,-92 443,-81 198,14 357,76 475,184 119,110 190,257 213,444l-304 25c-20,-124 -65,-219 -133,-286 -68,-67 -154,-105 -257,-112 -155,-11 -286,36 -391,141 -105,105 -167,278 -183,520 -17,245 17,426 103,544 86,117 205,181 356,192 121,9 225,-21 312,-90 86,-69 146,-180 179,-333z"/>
  </g>
  <g>
   <path id="5" class="fil10 str2" d="M41693 58563l127 -1824 279 19 -20 277c80,-125 151,-205 215,-242 63,-37 130,-53 202,-48 104,7 208,48 311,121l-126 280c-73,-50 -147,-77 -223,-83 -67,-4 -129,11 -186,49 -56,36 -99,90 -127,161 -42,107 -67,226 -76,357l-67 954 -309 -21z"/>
  </g>
  <g>
   <path id="6" class="fil10 str2" d="M43021 56483l25 -355 309 21 -25 355 -309 -21zm-151 2162l127 -1824 309 21 -127 1825 -309 -22z"/>
  </g>
  <g>
   <path id="7" class="fil10 str2" d="M43935 58720l-287 -21 176 -2517 309 21 -62 899c141,-155 314,-225 516,-211 113,8 217,38 314,90 97,53 175,121 234,208 59,86 103,188 131,307 29,118 39,243 29,375 -22,312 -116,548 -282,708 -166,160 -358,233 -574,217 -216,-15 -378,-117 -488,-305l-16 229zm61 -926c-15,218 3,378 56,480 87,166 213,255 378,266 136,10 257,-41 363,-151 107,-111 168,-282 185,-515 16,-238 -18,-417 -106,-537 -86,-120 -196,-185 -330,-194 -135,-9 -256,41 -363,152 -106,110 -167,277 -183,499z"/>
  </g>
  <g>
   <path id="8" class="fil10 str2" d="M46897 58336l316 62c-63,183 -167,322 -310,415 -143,94 -321,133 -533,118 -267,-19 -473,-116 -617,-291 -145,-175 -207,-411 -186,-707 21,-307 117,-540 287,-698 170,-159 380,-229 632,-212 244,17 437,114 581,291 143,177 203,416 183,717 -2,19 -5,46 -8,82l-1361 -94c-2,201 44,358 139,472 94,113 217,176 369,186 114,8 213,-15 297,-69 84,-54 154,-144 211,-272zm-980 -571l1018 71c-3,-154 -34,-271 -93,-352 -90,-127 -213,-195 -370,-206 -142,-10 -265,29 -368,118 -104,88 -166,211 -187,369z"/>
  </g>
  <g transform="matrix(0.997564 0.0697565 -0.0697565 0.997564 -92524.3 -36130.6)">
   <text x="131051" y="85100" id="8" class="fil9 fnt0">subscribe</text>
  </g>
  <g>
   <path class="fil10 str2" d="M29657 77120l0 -2533 282 0 0 241c67,-93 142,-163 226,-209 84,-47 185,-70 305,-70 156,0 294,40 413,120 119,80 209,194 270,339 61,147 92,307 92,481 0,187 -34,355 -101,505 -67,149 -165,264 -293,344 -127,79 -262,119 -403,119 -104,0 -197,-22 -278,-65 -83,-44 -150,-98 -202,-165l0 893 -311 0zm282 -1606c0,235 48,408 143,520 95,113 210,169 345,169 138,0 255,-58 353,-175 98,-116 147,-296 147,-540 0,-233 -48,-407 -143,-523 -96,-115 -210,-173 -343,-173 -132,0 -248,62 -349,185 -102,123 -153,302 -153,537z"/>
  </g>
  <g>
   <path id="1" class="fil10 str2" d="M32815 76418l0 -272c-142,208 -335,311 -579,311 -108,0 -208,-21 -302,-62 -93,-41 -163,-93 -208,-155 -45,-63 -77,-140 -95,-230 -13,-62 -19,-158 -19,-290l0 -1133 310 0 0 1013c0,162 7,271 19,327 20,82 61,146 124,192 63,46 141,70 234,70 93,0 180,-24 261,-71 81,-48 139,-113 173,-195 33,-82 50,-201 50,-357l0 -979 311 0 0 1831 -279 0z"/>
  </g>
  <g>
   <path id="2" class="fil10 str2" d="M33867 76418l-289 0 0 -2526 310 0 0 902c131,-164 298,-245 502,-245 112,0 219,22 319,67 101,45 183,110 248,191 65,83 116,181 153,297 37,115 55,239 55,371 0,313 -78,555 -232,726 -155,171 -341,256 -558,256 -216,0 -385,-90 -508,-269l0 230zm-4 -929c0,219 30,377 90,475 97,159 229,239 395,239 136,0 253,-59 351,-176 99,-118 149,-293 149,-526 0,-239 -48,-414 -142,-528 -95,-113 -209,-170 -344,-170 -135,0 -252,58 -351,176 -98,118 -148,287 -148,510z"/>
  </g>
  <g>
   <polygon id="3" class="fil10 str2" points="35536,76418 35536,73892 35846,73892 35846,76418 "/>
  </g>
  <g>
   <path id="4" class="fil10 str2" d="M36327 74245l0 -353 310 0 0 353 -310 0zm0 2173l0 -1831 310 0 0 1831 -310 0z"/>
  </g>
  <g>
   <path id="5" class="fil10 str2" d="M36987 75871l307 -49c17,123 65,217 144,283 79,65 189,98 330,98 143,0 249,-29 318,-87 69,-58 104,-126 104,-204 0,-70 -31,-125 -93,-165 -43,-28 -149,-63 -317,-105 -227,-57 -384,-107 -473,-149 -87,-42 -154,-100 -199,-174 -45,-73 -68,-155 -68,-244 0,-82 19,-157 56,-227 37,-69 88,-127 152,-172 48,-36 114,-66 197,-90 84,-25 172,-37 268,-37 143,0 269,20 377,62 109,41 189,97 240,168 52,71 87,166 107,285l-303 42c-14,-95 -54,-170 -120,-223 -66,-54 -159,-80 -279,-80 -142,0 -244,23 -304,70 -61,47 -91,102 -91,165 0,40 12,77 37,109 26,33 65,61 119,82 31,12 122,39 274,80 218,58 371,106 458,143 87,37 155,92 205,163 50,71 74,159 74,265 0,103 -30,200 -90,291 -61,91 -148,161 -261,211 -114,50 -243,75 -386,75 -238,0 -420,-49 -544,-148 -125,-98 -204,-244 -239,-438z"/>
  </g>
  <g>
   <path id="6" class="fil10 str2" d="M38874 76418l0 -2526 311 0 0 909c144,-168 325,-252 545,-252 135,0 252,26 352,80 99,53 170,127 213,221 43,94 64,231 64,409l0 1159 -310 0 0 -1157c0,-155 -34,-268 -100,-338 -67,-71 -161,-106 -283,-106 -91,0 -177,23 -258,71 -80,47 -137,112 -172,194 -34,81 -51,193 -51,337l0 999 -311 0z"/>
  </g>
  <g>
   <path id="7" class="fil10 str2" d="M43767 76147c155,107 299,185 431,234l-100 233c-181,-65 -363,-168 -543,-309 -187,104 -393,156 -619,156 -228,0 -435,-56 -621,-166 -186,-110 -329,-265 -429,-464 -101,-200 -151,-425 -151,-675 0,-249 51,-475 152,-680 100,-204 245,-359 431,-466 186,-106 395,-160 625,-160 233,0 443,55 630,166 187,111 330,266 428,465 98,199 147,423 147,673 0,208 -32,395 -95,560 -63,166 -159,310 -286,433zm-734 -427c192,54 351,135 475,241 196,-178 294,-447 294,-806 0,-204 -34,-382 -104,-534 -69,-153 -170,-271 -304,-355 -133,-84 -283,-127 -449,-127 -248,0 -455,86 -618,256 -164,170 -246,424 -246,762 0,328 81,579 243,755 162,175 369,263 621,263 119,0 231,-23 337,-67 -105,-68 -214,-116 -330,-145l81 -243z"/>
  </g>
  <g>
   <path id="8" class="fil10 str2" d="M44444 75503c0,-338 94,-589 283,-752 157,-135 349,-202 575,-202 251,0 457,82 617,247 159,164 239,391 239,681 0,235 -35,420 -105,554 -71,135 -174,240 -309,314 -135,75 -282,112 -442,112 -256,0 -463,-82 -621,-246 -158,-164 -237,-400 -237,-708zm317 0c0,234 52,410 154,525 103,117 232,175 387,175 154,0 283,-58 385,-175 103,-117 154,-295 154,-535 0,-225 -52,-396 -155,-512 -103,-117 -231,-175 -384,-175 -155,0 -284,58 -387,174 -102,115 -154,290 -154,523z"/>
  </g>
  <g>
   <path id="9" class="fil10 str2" d="M46452 75607l314 -28c14,127 49,231 104,312 55,82 139,147 254,198 115,50 244,75 387,75 128,0 240,-19 338,-57 97,-38 170,-90 217,-157 48,-66 72,-139 72,-216 0,-79 -23,-148 -69,-207 -46,-59 -121,-108 -227,-149 -68,-26 -218,-67 -450,-123 -232,-56 -395,-108 -487,-157 -121,-64 -210,-143 -269,-236 -60,-94 -89,-199 -89,-315 0,-128 37,-247 109,-358 72,-111 177,-195 317,-252 139,-58 293,-87 463,-87 187,0 352,30 495,91 143,60 253,148 330,266 77,117 118,250 124,398l-321 25c-17,-160 -75,-280 -175,-361 -99,-82 -246,-123 -440,-123 -202,0 -350,37 -442,112 -92,74 -139,163 -139,268 0,90 33,165 98,224 65,58 233,118 504,180 272,61 458,115 559,161 147,67 255,153 325,257 70,103 105,222 105,358 0,134 -38,260 -115,379 -77,119 -187,211 -331,277 -144,66 -306,99 -486,99 -229,0 -420,-34 -574,-100 -154,-67 -275,-167 -362,-301 -89,-133 -134,-284 -139,-453z"/>
  </g>
  <g transform="matrix(1 0 0 1 -99566.6 -8681.78)">
   <text x="128991" y="85100" id="9" class="fil8 fnt0">publish QoS</text>
  </g>
  <g>
   <path class="fil10 str2" d="M90074 75871l307 -49c17,123 65,217 144,283 79,65 190,98 331,98 143,0 248,-29 318,-87 69,-58 103,-126 103,-204 0,-70 -31,-125 -93,-165 -43,-28 -149,-63 -317,-105 -227,-57 -384,-107 -472,-149 -88,-42 -154,-100 -200,-174 -45,-73 -68,-155 -68,-244 0,-82 19,-157 56,-227 38,-69 88,-127 152,-172 49,-36 114,-66 197,-90 84,-25 173,-37 268,-37 143,0 269,20 377,62 109,41 189,97 241,168 51,71 87,166 106,285l-303 42c-14,-95 -54,-170 -120,-223 -65,-54 -158,-80 -279,-80 -142,0 -243,23 -304,70 -60,47 -91,102 -91,165 0,40 12,77 38,109 25,33 64,61 118,82 32,12 122,39 274,80 219,58 371,106 458,143 87,37 156,92 205,163 50,71 75,159 75,265 0,103 -30,200 -91,291 -60,91 -147,161 -261,211 -114,50 -243,75 -386,75 -238,0 -419,-49 -544,-148 -125,-98 -204,-244 -239,-438z"/>
  </g>
  <g>
   <path id="1" class="fil10 str2" d="M93157 76418l0 -272c-142,208 -335,311 -579,311 -107,0 -208,-21 -301,-62 -94,-41 -163,-93 -208,-155 -46,-63 -77,-140 -96,-230 -12,-62 -18,-158 -18,-290l0 -1133 310 0 0 1013c0,162 6,271 19,327 19,82 60,146 124,192 63,46 140,70 233,70 93,0 180,-24 261,-71 81,-48 139,-113 173,-195 34,-82 51,-201 51,-357l0 -979 310 0 0 1831 -279 0z"/>
  </g>
  <g>
   <path id="2" class="fil10 str2" d="M94209 76418l-289 0 0 -2526 310 0 0 902c132,-164 299,-245 502,-245 112,0 219,22 320,67 100,45 183,110 248,191 65,83 116,181 152,297 37,115 56,239 56,371 0,313 -78,555 -233,726 -155,171 -341,256 -558,256 -215,0 -385,-90 -508,-269l0 230zm-3 -929c0,219 30,377 89,475 98,159 229,239 396,239 136,0 253,-59 351,-176 99,-118 148,-293 148,-526 0,-239 -47,-414 -142,-528 -94,-113 -209,-170 -343,-170 -136,0 -253,58 -351,176 -99,118 -148,287 -148,510z"/>
  </g>
  <g>
   <path id="3" class="fil10 str2" d="M95762 75871l307 -49c17,123 65,217 144,283 79,65 189,98 330,98 143,0 249,-29 319,-87 68,-58 103,-126 103,-204 0,-70 -31,-125 -93,-165 -43,-28 -149,-63 -317,-105 -227,-57 -384,-107 -472,-149 -88,-42 -155,-100 -200,-174 -45,-73 -68,-155 -68,-244 0,-82 19,-157 56,-227 38,-69 88,-127 152,-172 48,-36 114,-66 197,-90 84,-25 172,-37 268,-37 143,0 269,20 377,62 109,41 189,97 241,168 51,71 87,166 106,285l-303 42c-14,-95 -54,-170 -120,-223 -66,-54 -158,-80 -279,-80 -142,0 -243,23 -304,70 -61,47 -91,102 -91,165 0,40 12,77 38,109 25,33 64,61 118,82 31,12 122,39 274,80 218,58 371,106 458,143 87,37 155,92 205,163 50,71 75,159 75,265 0,103 -30,200 -91,291 -61,91 -148,161 -261,211 -114,50 -243,75 -386,75 -238,0 -420,-49 -544,-148 -125,-98 -204,-244 -239,-438z"/>
  </g>
  <g>
   <path id="4" class="fil10 str2" d="M98845 75748l304 42c-34,209 -119,372 -256,490 -137,118 -305,177 -505,177 -249,0 -451,-82 -602,-245 -152,-164 -228,-398 -228,-702 0,-198 33,-370 98,-518 65,-148 164,-259 299,-332 133,-74 278,-111 436,-111 198,0 361,50 487,150 126,101 207,243 242,428l-299 46c-29,-123 -80,-215 -153,-278 -73,-61 -161,-92 -265,-92 -156,0 -283,55 -381,167 -98,112 -147,289 -147,531 0,246 47,424 141,535 95,111 218,167 369,167 122,0 224,-37 305,-112 82,-74 134,-188 155,-343z"/>
  </g>
  <g>
   <path id="5" class="fil10 str2" d="M99410 76418l0 -1831 278 0 0 281c71,-130 137,-216 198,-257 60,-42 127,-62 199,-62 105,0 211,32 319,98l-110 286c-75,-42 -151,-63 -226,-63 -67,0 -128,20 -182,61 -53,40 -91,97 -114,169 -35,110 -52,231 -52,362l0 956 -310 0z"/>
  </g>
  <g>
   <path id="6" class="fil10 str2" d="M100588 74245l0 -353 310 0 0 353 -310 0zm0 2173l0 -1831 310 0 0 1831 -310 0z"/>
  </g>
  <g>
   <path id="7" class="fil10 str2" d="M101657 76418l-289 0 0 -2526 310 0 0 902c132,-164 299,-245 502,-245 112,0 219,22 320,67 100,45 183,110 248,191 65,83 116,181 152,297 37,115 56,239 56,371 0,313 -78,555 -233,726 -155,171 -341,256 -558,256 -215,0 -385,-90 -508,-269l0 230zm-3 -929c0,219 30,377 89,475 98,159 229,239 396,239 136,0 253,-59 351,-176 99,-118 148,-293 148,-526 0,-239 -47,-414 -142,-528 -94,-113 -209,-170 -343,-170 -136,0 -253,58 -351,176 -99,118 -148,287 -148,510z"/>
  </g>
  <g>
   <path id="8" class="fil10 str2" d="M104582 75826l321 42c-50,186 -143,332 -279,434 -137,103 -311,155 -523,155 -267,0 -479,-82 -635,-247 -157,-164 -235,-395 -235,-692 0,-307 79,-546 237,-715 158,-170 364,-254 616,-254 244,0 443,82 598,249 154,166 232,400 232,702 0,18 -1,46 -2,82l-1363 0c12,201 68,355 170,461 102,107 230,160 382,160 113,0 210,-30 290,-90 81,-60 144,-156 191,-287zm-1016 -498l1020 0c-14,-154 -53,-269 -117,-346 -98,-119 -226,-179 -383,-179 -143,0 -262,47 -359,142 -97,96 -150,223 -161,383z"/>
  </g>
  <g>
   <path id="9" class="fil10 str2" d="M108226 76147c156,107 299,185 431,234l-99 233c-182,-65 -363,-168 -544,-309 -187,104 -393,156 -619,156 -228,0 -435,-56 -621,-166 -186,-110 -328,-265 -429,-464 -100,-200 -150,-425 -150,-675 0,-249 50,-475 151,-680 101,-204 245,-359 431,-466 187,-106 395,-160 626,-160 233,0 443,55 629,166 187,111 330,266 429,465 98,199 146,423 146,673 0,208 -31,395 -95,560 -63,166 -159,310 -286,433zm-734 -427c192,54 351,135 476,241 196,-178 294,-447 294,-806 0,-204 -35,-382 -104,-534 -70,-153 -171,-271 -304,-355 -134,-84 -284,-127 -449,-127 -249,0 -456,86 -619,256 -164,170 -246,424 -246,762 0,328 81,579 243,755 162,175 369,263 622,263 118,0 231,-23 336,-67 -104,-68 -214,-116 -329,-145l80 -243z"/>
  </g>
  <g>
   <path id="10" class="fil10 str2" d="M108903 75503c0,-338 94,-589 283,-752 157,-135 349,-202 576,-202 251,0 457,82 616,247 160,164 240,391 240,681 0,235 -36,420 -106,554 -71,135 -174,240 -309,314 -134,75 -282,112 -441,112 -257,0 -464,-82 -622,-246 -158,-164 -237,-400 -237,-708zm318 0c0,234 51,410 153,525 103,117 232,175 388,175 154,0 282,-58 385,-175 102,-117 153,-295 153,-535 0,-225 -52,-396 -154,-512 -103,-117 -231,-175 -384,-175 -156,0 -285,58 -388,174 -102,115 -153,290 -153,523z"/>
  </g>
  <g>
   <path id="11" class="fil10 str2" d="M110911 75607l314 -28c15,127 49,231 104,312 55,82 140,147 254,198 115,50 244,75 388,75 127,0 239,-19 337,-57 98,-38 170,-90 218,-157 47,-66 71,-139 71,-216 0,-79 -23,-148 -68,-207 -46,-59 -122,-108 -228,-149 -68,-26 -218,-67 -450,-123 -232,-56 -394,-108 -487,-157 -121,-64 -210,-143 -269,-236 -59,-94 -89,-199 -89,-315 0,-128 37,-247 109,-358 72,-111 178,-195 317,-252 139,-58 293,-87 463,-87 187,0 353,30 495,91 143,60 253,148 330,266 77,117 118,250 124,398l-321 25c-17,-160 -75,-280 -174,-361 -100,-82 -247,-123 -441,-123 -202,0 -350,37 -442,112 -92,74 -139,163 -139,268 0,90 33,165 99,224 64,58 232,118 503,180 272,61 458,115 560,161 146,67 255,153 325,257 70,103 104,222 104,358 0,134 -38,260 -115,379 -77,119 -187,211 -331,277 -144,66 -306,99 -486,99 -228,0 -419,-34 -573,-100 -155,-67 -276,-167 -363,-301 -88,-133 -134,-284 -139,-453z"/>
  </g>
  <g transform="matrix(1 0 0 1 -37066.6 -8681.78)">
   <text x="127032" y="85100" id="11" class="fil9 fnt0">subscribe QoS</text>
  </g>
  <g>
   <path class="fil10 str2" d="M33774 43731l177 -2523 282 20 -17 237c73,-89 153,-153 240,-193 86,-41 189,-57 309,-48 155,10 290,60 404,148 113,89 195,209 245,358 51,151 70,313 57,487 -13,187 -58,352 -135,497 -78,145 -183,252 -316,323 -133,70 -270,101 -411,91 -103,-7 -194,-35 -273,-85 -79,-48 -142,-108 -190,-178l-62 887 -310 -21zm393 -1581c-17,235 18,411 106,530 87,119 198,183 333,193 137,9 259,-41 365,-150 106,-109 168,-286 185,-530 16,-232 -20,-410 -107,-532 -87,-122 -198,-188 -331,-197 -132,-9 -252,44 -362,160 -110,116 -173,291 -189,526z"/>
  </g>
  <g>
   <path id="1" class="fil10 str2" d="M36976 43253l19 -269c-157,197 -357,286 -601,269 -107,-8 -206,-35 -297,-83 -90,-47 -156,-104 -197,-170 -41,-66 -67,-144 -79,-235 -8,-62 -8,-159 1,-290l80 -1130 308 21 -70 1012c-11,161 -13,270 -4,327 14,83 50,150 110,201 59,50 136,79 229,85 93,7 181,-11 266,-53 84,-42 147,-102 186,-182 39,-79 65,-197 75,-352l69 -978 309 22 -127 1824 -277 -19z"/>
  </g>
  <g>
   <path id="2" class="fil10 str2" d="M38023 43326l-287 -21 176 -2517 310 22 -63 898c141,-155 314,-225 516,-211 113,8 217,38 315,90 97,53 174,121 234,208 58,86 102,189 131,307 28,118 38,243 28,375 -21,312 -115,548 -282,708 -166,160 -358,233 -574,217 -215,-15 -378,-117 -488,-305l-16 229zm61 -926c-15,219 4,379 56,480 87,166 213,255 378,267 136,9 257,-42 363,-152 107,-111 168,-282 185,-515 16,-238 -18,-417 -105,-537 -87,-120 -197,-185 -331,-194 -135,-9 -256,41 -362,152 -107,110 -168,277 -184,499z"/>
  </g>
  <g>
   <polygon id="3" class="fil10 str2" points="39688,43442 39864,40925 40174,40946 39997,43464 "/>
  </g>
  <g>
   <path id="4" class="fil10 str2" d="M40630 41335l25 -355 309 21 -25 356 -309 -22zm-151 2162l127 -1823 309 21 -127 1824 -309 -22z"/>
  </g>
  <g>
   <path id="5" class="fil10 str2" d="M41173 42999l309 -27c9,124 50,221 124,292 73,71 181,111 322,121 142,10 250,-12 322,-65 73,-53 112,-118 117,-197 5,-69 -21,-126 -79,-171 -41,-30 -143,-73 -309,-127 -223,-72 -377,-133 -461,-181 -85,-48 -147,-110 -187,-187 -40,-77 -57,-160 -51,-250 6,-81 30,-155 72,-222 42,-66 96,-120 164,-162 51,-32 118,-57 203,-76 85,-19 175,-25 270,-18 143,10 267,39 372,88 105,49 182,110 228,184 46,74 75,171 87,290l-306 20c-7,-95 -41,-171 -103,-228 -62,-57 -154,-90 -274,-98 -142,-10 -245,6 -309,48 -64,43 -98,96 -102,159 -3,40 7,77 30,111 23,35 60,65 113,91 30,13 119,46 267,97 215,74 364,133 448,176 84,43 148,103 192,177 44,74 63,164 55,270 -7,102 -44,197 -110,284 -67,87 -158,151 -275,193 -117,42 -247,58 -390,48 -237,-17 -414,-79 -532,-186 -117,-107 -186,-258 -207,-454z"/>
  </g>
  <g>
   <path id="6" class="fil10 str2" d="M43018 43675l176 -2517 310 21 -64 903c156,-157 344,-228 564,-212 135,9 250,44 346,104 96,60 163,139 198,236 37,96 49,235 36,413l-80 1156 -309 -22 81 -1155c10,-155 -16,-270 -77,-345 -63,-75 -155,-117 -277,-126 -92,-6 -180,12 -264,54 -84,41 -145,102 -186,181 -40,79 -65,190 -75,333l-70 997 -309 -21z"/>
  </g>
  <g transform="matrix(0.997564 0.0697565 -0.0697565 0.997564 -93158.5 -51155.4)">
   <text x="133010" y="85100" id="6" class="fil8 fnt0">publish</text>
  </g>
  <g>
   <path class="fil1" d="M80103 65101l2109 -527 -422 1898 -1687 -1371zm37204 8657l-35412 -7875 162 -732 35413 7875 -163 732z"/>
  </g>
  <g>
   <path class="fil1" d="M119646 74920l-2109 526 422 -1897 1687 1371zm-37204 -8658l35413 7875 -163 732 -35413 -7875 163 -732z"/>
  </g>
  <g>
   <path class="fil1" d="M120097 72969l-2109 527 422 -1898 1687 1371zm-37204 -8657l35412 7875 -162 732 -35413 -7875 163 -732z"/>
  </g>
  <g>
   <path class="fil10 str2" d="M90207 65619l309 20c-9,124 17,226 79,308 63,81 163,136 301,167 139,31 248,26 328,-16 80,-41 129,-100 145,-177 15,-68 -2,-129 -53,-181 -35,-36 -131,-93 -286,-171 -209,-106 -352,-189 -429,-249 -77,-60 -129,-131 -157,-213 -28,-82 -33,-167 -13,-255 18,-79 52,-149 104,-208 51,-60 113,-105 186,-136 55,-24 126,-39 212,-46 87,-5 177,2 270,23 140,31 258,79 355,143 97,64 163,136 198,216 35,80 50,180 43,299l-305 -25c7,-95 -16,-176 -69,-241 -53,-66 -138,-112 -256,-139 -139,-31 -243,-30 -313,3 -70,33 -111,80 -124,141 -10,40 -5,78 12,114 18,39 51,74 98,107 28,18 112,64 251,137 201,105 340,185 416,240 77,56 131,124 164,204 33,80 38,172 15,275 -23,100 -74,189 -152,265 -79,76 -179,126 -301,150 -122,24 -253,20 -393,-11 -232,-52 -398,-140 -498,-263 -100,-123 -146,-284 -137,-481z"/>
  </g>
  <g>
   <path id="1" class="fil10 str2" d="M93099 66830l59 -262c-184,171 -396,230 -634,176 -106,-23 -200,-65 -282,-126 -82,-60 -139,-127 -169,-198 -31,-71 -46,-152 -43,-245 0,-62 15,-157 44,-286l246 -1106 303 67 -221 991c-35,157 -52,265 -53,323 2,84 28,155 80,214 51,60 123,99 213,120 91,20 181,15 271,-13 90,-29 160,-80 211,-153 52,-72 94,-185 128,-337l213 -957 303 68 -398 1785 -271 -61z"/>
  </g>
  <g>
   <path id="2" class="fil10 str2" d="M94122 67065l-281 -62 549 -2464 303 67 -196 879c164,-131 345,-175 543,-131 110,25 209,70 297,136 88,66 155,147 201,240 45,95 73,202 83,324 11,121 2,246 -27,375 -68,306 -196,526 -385,659 -188,133 -389,176 -601,128 -210,-46 -356,-171 -437,-374l-49 223zm198 -906c-48,214 -53,375 -16,484 61,176 172,283 335,319 132,30 259,-3 381,-96 122,-93 208,-253 259,-481 52,-233 44,-416 -23,-547 -68,-131 -168,-212 -299,-241 -132,-30 -259,2 -381,96 -122,93 -207,248 -256,466z"/>
  </g>
  <g>
   <path id="3" class="fil10 str2" d="M95754 66877l309 20c-9,124 17,226 79,307 63,81 163,137 301,168 139,30 248,25 328,-16 80,-42 129,-101 145,-177 15,-68 -2,-129 -53,-181 -35,-36 -131,-94 -286,-172 -209,-105 -352,-188 -429,-248 -77,-60 -129,-131 -157,-213 -28,-83 -33,-167 -13,-255 18,-79 52,-149 104,-208 51,-60 113,-106 186,-136 55,-25 126,-40 212,-46 87,-6 177,2 270,23 140,31 258,78 355,142 97,65 163,137 198,216 35,81 50,181 43,300l-305 -25c7,-95 -16,-176 -69,-242 -53,-65 -138,-111 -256,-138 -139,-31 -243,-30 -313,3 -70,33 -111,80 -124,141 -10,40 -5,78 12,114 18,38 51,74 98,107 28,18 112,63 251,137 201,105 340,185 416,240 77,55 131,124 164,203 33,81 38,172 15,275 -23,101 -74,189 -152,266 -79,76 -179,126 -301,150 -122,24 -253,20 -393,-11 -232,-52 -398,-140 -498,-263 -100,-124 -146,-284 -137,-481z"/>
  </g>
  <g>
   <path id="4" class="fil10 str2" d="M98787 67433l289 105c-78,198 -197,340 -357,426 -160,86 -337,107 -532,64 -244,-54 -423,-178 -536,-371 -113,-193 -136,-438 -70,-736 43,-193 113,-354 209,-485 96,-130 217,-217 364,-260 147,-43 297,-47 451,-13 193,43 341,127 442,253 102,125 150,282 144,471l-304 -21c-2,-126 -31,-227 -89,-304 -57,-76 -137,-126 -237,-148 -153,-34 -289,-7 -408,81 -120,88 -206,250 -259,487 -53,240 -47,424 22,553 67,129 175,211 323,244 119,26 226,12 322,-43 95,-56 171,-156 226,-303z"/>
  </g>
  <g>
   <path id="5" class="fil10 str2" d="M99193 68216l398 -1785 273 61 -61 271c98,-112 181,-181 248,-208 68,-27 137,-33 208,-17 102,23 198,78 289,167l-166 257c-65,-60 -134,-98 -208,-115 -66,-15 -130,-8 -191,20 -62,28 -112,75 -150,141 -58,100 -101,214 -129,341l-209 935 -302 -68z"/>
  </g>
  <g>
   <path id="6" class="fil10 str2" d="M100816 66361l77 -348 303 67 -78 349 -302 -68zm-472 2116l398 -1785 302 67 -398 1786 -302 -68z"/>
  </g>
  <g>
   <path id="7" class="fil10 str2" d="M101385 68712l-280 -62 549 -2465 303 68 -196 879c163,-132 344,-175 542,-131 110,25 209,70 297,136 89,66 156,146 201,240 45,95 73,202 84,323 11,122 1,247 -27,376 -69,306 -197,525 -385,659 -189,133 -389,176 -601,128 -211,-46 -356,-171 -437,-374l-50 223zm199 -906c-48,214 -53,375 -16,483 60,177 172,284 334,320 133,30 260,-3 382,-96 121,-93 208,-254 259,-481 52,-233 44,-416 -24,-547 -67,-132 -167,-212 -298,-241 -133,-30 -259,2 -381,95 -122,94 -208,249 -256,467z"/>
  </g>
  <g>
   <path id="8" class="fil10 str2" d="M104370 68782l304 108c-90,172 -213,293 -369,365 -156,71 -338,83 -545,37 -261,-58 -450,-185 -567,-380 -117,-195 -143,-437 -79,-728 68,-300 197,-516 388,-647 192,-132 411,-170 658,-115 238,54 415,178 530,374 115,197 140,442 74,737 -4,18 -10,44 -19,80l-1332 -297c-32,199 -10,361 66,488 76,126 190,206 339,240 110,24 212,16 303,-25 91,-40 175,-120 249,-237zm-884 -711l996 223c20,-154 8,-275 -39,-364 -70,-138 -182,-224 -335,-259 -140,-30 -267,-10 -382,62 -116,72 -196,185 -240,338z"/>
  </g>
  <g>
   <path id="9" class="fil10 str2" d="M107854 69896c128,138 250,245 368,322l-147 206c-163,-104 -317,-244 -462,-421 -205,61 -419,67 -639,18 -223,-50 -414,-149 -571,-297 -158,-148 -264,-330 -318,-547 -55,-217 -55,-448 0,-692 54,-243 153,-454 296,-631 143,-178 317,-298 522,-361 206,-64 421,-71 646,-21 228,51 421,151 580,300 158,149 264,331 316,547 52,216 51,446 -4,690 -45,203 -116,378 -214,526 -97,149 -222,269 -373,361zm-625 -577c177,95 314,208 413,339 231,-132 385,-373 463,-724 45,-199 50,-382 15,-545 -34,-165 -107,-302 -219,-414 -112,-111 -250,-185 -413,-222 -243,-54 -463,-16 -660,115 -198,131 -333,361 -407,692 -71,321 -47,584 73,791 120,207 304,337 550,393 117,26 232,28 344,7 -87,-88 -184,-159 -291,-212l132 -220z"/>
  </g>
  <g>
   <path id="10" class="fil10 str2" d="M108652 69424c73,-331 220,-555 439,-674 183,-97 385,-122 605,-73 246,55 428,181 549,376 120,196 148,435 85,719 -52,230 -126,402 -225,518 -98,117 -221,197 -369,241 -148,43 -300,47 -456,12 -249,-56 -434,-181 -552,-375 -118,-195 -143,-443 -76,-744zm310 69c-51,229 -39,411 35,547 75,136 188,221 339,255 150,33 288,4 413,-88 125,-92 214,-255 266,-490 50,-220 37,-399 -38,-535 -75,-136 -187,-221 -336,-254 -151,-34 -289,-5 -415,86 -125,91 -212,251 -264,479z"/>
  </g>
  <g>
   <path id="11" class="fil10 str2" d="M110582 69967l315 42c-14,126 -2,235 33,326 36,91 104,173 206,247 101,74 221,127 361,158 125,28 239,34 342,18 103,-16 186,-51 247,-105 61,-54 100,-119 116,-195 18,-78 10,-150 -22,-218 -32,-68 -94,-133 -189,-195 -60,-40 -197,-113 -412,-218 -214,-104 -361,-191 -441,-260 -104,-88 -174,-184 -212,-288 -37,-104 -44,-213 -18,-326 27,-124 89,-233 184,-325 94,-92 215,-152 363,-178 149,-25 306,-19 471,17 184,41 338,107 464,196 127,90 215,201 264,332 50,131 61,270 35,416l-318 -47c18,-159 -13,-290 -92,-391 -79,-101 -214,-173 -403,-215 -197,-44 -349,-40 -455,12 -107,52 -171,129 -194,231 -20,89 -4,169 47,240 50,71 201,167 453,286 251,119 421,211 510,279 128,97 216,205 262,321 45,117 53,242 24,374 -29,131 -94,246 -196,345 -100,100 -228,166 -383,199 -155,33 -321,30 -497,-9 -223,-50 -402,-124 -538,-223 -137,-99 -233,-223 -290,-373 -56,-149 -69,-307 -37,-473z"/>
  </g>
  <g transform="matrix(0.975246 0.221124 -0.221124 0.975246 -15087.3 -44954.3)">
   <text x="127032" y="85100" id="11" class="fil9 fnt0">subscribe QoS</text>
  </g>
  <text x="123701" y="80100"  class="fil9 fnt1">/lorem/amet   QoS=1</text>
  <g>
   <path class="fil2" d="M60094 15099l-4099 1447 482 -3858 3617 2411zm-39901 -5743l36187 4523 -186 1489 -36187 -4524 186 -1488z"/>
  </g>
  <rect class="fil5 str0" x="100" y="5100" width="20000" height="10000"/>
  <text x="3929" y="10366"  class="fil3 fnt0">Client X</text>
  <rect class="fil6 str0" x="60100" y="12600" width="20000" height="10000" rx="2000" ry="2000"/>
  <text x="64516" y="17866"  class="fil3 fnt0">Topic 1</text>
  <text x="67933" y="20473"  class="fil7 fnt1">/boring</text>
  <text x="7933" y="12973"  class="fil8 fnt1">/boring</text>
  <g>
   <path class="fil10 str2" d="M33712 12037l308 -2509 280 34 -29 235c77,-84 161,-144 250,-180 89,-35 192,-46 311,-32 154,19 286,76 395,170 109,95 185,218 227,370 42,153 53,316 32,490 -23,185 -77,348 -162,489 -85,140 -195,242 -332,305 -137,65 -276,87 -415,71 -103,-13 -193,-46 -269,-99 -76,-54 -136,-117 -180,-189l-109 883 -307 -38zm474 -1558c-29,234 -3,412 78,535 81,123 189,193 323,210 137,17 261,-27 372,-130 112,-104 183,-277 213,-520 28,-231 1,-410 -79,-537 -81,-127 -188,-198 -320,-214 -131,-16 -255,31 -370,141 -116,110 -189,281 -217,515z"/>
  </g>
  <g>
   <path id="1" class="fil10 str2" d="M36934 11727l33 -267c-167,188 -371,267 -614,237 -107,-13 -205,-45 -292,-98 -88,-52 -151,-112 -188,-180 -38,-67 -60,-147 -67,-240 -5,-61 1,-158 17,-289l138 -1125 307 39 -123 1006c-20,161 -27,269 -21,326 9,84 42,153 99,206 57,54 132,87 224,98 92,12 182,-1 269,-39 86,-37 151,-95 195,-172 43,-77 74,-194 94,-348l119 -973 308 39 -223 1814 -275 -34z"/>
  </g>
  <g>
   <path id="2" class="fil10 str2" d="M37976 11855l-286 -35 308 -2505 308 38 -110 893c150,-147 325,-207 527,-183 112,14 215,49 309,107 94,57 168,130 223,220 54,89 92,193 114,313 22,119 26,245 10,376 -39,311 -145,541 -320,692 -174,151 -369,213 -584,187 -215,-26 -372,-136 -472,-330l-27 227zm109 -921c-26,217 -16,378 31,482 78,170 199,265 364,286 134,16 258,-28 370,-132 112,-105 183,-273 211,-504 29,-237 4,-418 -76,-542 -80,-124 -187,-195 -321,-211 -134,-17 -257,27 -370,132 -112,105 -182,267 -209,489z"/>
  </g>
  <g>
   <polygon id="3" class="fil10 str2" points="39633,12059 39940,9553 40248,9591 39940,12096 "/>
  </g>
  <g>
   <path id="4" class="fil10 str2" d="M40683 10004l43 -354 308 38 -43 354 -308 -38zm-264 2151l223 -1815 307 38 -223 1815 -307 -38z"/>
  </g>
  <g>
   <path id="5" class="fil10 str2" d="M41138 11693l311 -10c2,124 38,223 108,298 70,74 175,120 315,138 141,17 249,1 325,-48 76,-49 118,-113 127,-190 9,-70 -14,-128 -70,-175 -39,-33 -139,-81 -301,-143 -219,-85 -370,-153 -451,-206 -83,-52 -141,-117 -177,-196 -37,-80 -49,-164 -38,-252 10,-81 38,-154 83,-218 45,-65 103,-116 172,-153 53,-30 121,-52 207,-66 85,-14 175,-16 270,-4 142,17 265,53 368,107 102,55 175,120 218,197 42,75 66,174 71,293l-306 5c-2,-96 -33,-173 -92,-234 -59,-60 -148,-98 -268,-113 -141,-17 -244,-6 -311,33 -66,40 -103,91 -110,153 -5,40 3,78 24,112 21,37 57,69 108,97 29,15 116,53 262,112 210,85 357,151 438,199 81,48 142,109 183,186 39,77 54,167 41,272 -13,103 -55,196 -125,279 -72,83 -166,142 -285,178 -119,36 -250,45 -392,27 -236,-28 -409,-100 -521,-212 -112,-114 -173,-269 -184,-466z"/>
  </g>
  <g>
   <path id="6" class="fil10 str2" d="M42945 12465l308 -2504 308 37 -110 899c164,-149 355,-210 573,-183 135,17 248,57 341,123 93,65 154,147 186,245 31,99 36,237 14,415l-141 1150 -308 -38 141 -1150c19,-154 0,-270 -59,-348 -57,-78 -147,-125 -269,-140 -92,-11 -180,2 -266,40 -86,37 -151,94 -195,171 -45,76 -75,186 -93,328l-122 993 -308 -38z"/>
  </g>
  <g transform="matrix(0.992546 0.121869 -0.121869 0.992546 -88081.4 -89361.9)">
   <text x="133010" y="85100" id="6" class="fil8 fnt0">publish</text>
  </g>
  <path class="fil11" d="M79753 17429l-319 0 0 3676c0,67 -13,129 -38,187 -24,59 -59,109 -102,153 -44,43 -94,77 -153,102 -58,25 -120,38 -186,38l-2558 0c-67,0 -130,-13 -188,-38 -58,-25 -109,-59 -152,-102 -44,-44 -78,-94 -102,-153 -25,-58 -38,-120 -38,-187l0 -3676 -320 0 0 -320 1279 0 0 -320c0,-45 9,-87 25,-124 17,-39 40,-73 69,-102 29,-29 63,-52 101,-69 38,-16 80,-25 125,-25l959 0c45,0 87,9 124,25 39,17 73,40 102,69 29,29 52,63 69,102 16,37 25,79 25,124l0 320 1278 0 0 320zm-2557 -320l959 0 0 -320 -959 0 0 320zm1918 320l-2877 0 0 3676c0,43 16,81 47,112 32,32 70,48 113,48l2558 0c42,0 80,-16 111,-48 32,-31 48,-69 48,-112l0 -3676zm-1918 3197l-320 0 0 -2558 320 0 0 2558zm639 0l-319 0 0 -2558 319 0 0 2558zm640 0l-320 0 0 -2558 320 0 0 2558z"/>
  <rect class="fil6 str0" x="60100" y="87600" width="20000" height="10000" rx="2000" ry="2000"/>
  <text x="64516" y="92866"  class="fil3 fnt0">Topic 6</text>
  <rect class="fil5 str0" x="120100" y="87600" width="20000" height="10000"/>
  <text x="124028" y="92866"  class="fil3 fnt0">Client Z</text>
  <text x="61561" y="96077"  class="fil7 fnt1">/lorem/important   Retain=1</text>
  <g>
   <path class="fil10 str2" d="M90368 90871l307 -49c17,123 65,217 144,283 79,65 189,98 330,98 143,0 249,-29 318,-87 69,-58 104,-126 104,-204 0,-70 -31,-125 -93,-165 -43,-28 -149,-63 -317,-105 -227,-57 -384,-107 -473,-149 -87,-42 -154,-100 -199,-174 -45,-73 -68,-155 -68,-244 0,-82 19,-157 56,-227 37,-69 88,-127 152,-172 48,-36 114,-66 197,-90 84,-25 172,-37 268,-37 143,0 269,20 377,62 109,41 189,97 240,168 52,71 87,166 107,285l-303 42c-14,-95 -54,-170 -120,-223 -66,-54 -159,-80 -279,-80 -142,0 -244,23 -304,70 -61,47 -91,102 -91,165 0,40 12,77 37,109 26,33 65,61 119,82 31,12 122,39 274,80 218,58 371,106 458,143 87,37 155,92 205,163 50,71 74,159 74,265 0,103 -30,200 -90,291 -61,91 -148,161 -261,211 -114,50 -243,75 -386,75 -238,0 -420,-49 -544,-148 -125,-98 -204,-244 -239,-438z"/>
  </g>
  <g>
   <path id="1" class="fil10 str2" d="M93451 91418l0 -272c-142,208 -335,311 -579,311 -108,0 -208,-21 -302,-62 -93,-41 -162,-93 -208,-155 -45,-63 -77,-140 -95,-230 -12,-62 -19,-158 -19,-290l0 -1133 311 0 0 1013c0,162 6,271 18,327 20,82 61,146 125,192 62,46 140,70 233,70 93,0 180,-24 261,-71 81,-48 139,-113 173,-195 33,-82 50,-201 50,-357l0 -979 311 0 0 1831 -279 0z"/>
  </g>
  <g>
   <path id="2" class="fil10 str2" d="M94503 91418l-289 0 0 -2526 310 0 0 902c131,-164 298,-245 502,-245 112,0 219,22 320,67 100,45 182,110 248,191 64,83 115,181 152,297 37,115 55,239 55,371 0,313 -77,555 -232,726 -155,171 -341,256 -558,256 -216,0 -385,-90 -508,-269l0 230zm-4 -929c0,219 30,377 90,475 97,159 229,239 396,239 135,0 252,-59 351,-176 98,-118 148,-293 148,-526 0,-239 -47,-414 -142,-528 -95,-113 -209,-170 -343,-170 -136,0 -253,58 -351,176 -99,118 -149,287 -149,510z"/>
  </g>
  <g>
   <path id="3" class="fil10 str2" d="M96056 90871l307 -49c17,123 65,217 144,283 79,65 189,98 330,98 143,0 249,-29 318,-87 69,-58 104,-126 104,-204 0,-70 -31,-125 -93,-165 -44,-28 -149,-63 -318,-105 -227,-57 -384,-107 -472,-149 -87,-42 -154,-100 -199,-174 -45,-73 -68,-155 -68,-244 0,-82 19,-157 56,-227 37,-69 88,-127 152,-172 48,-36 114,-66 197,-90 83,-25 172,-37 267,-37 144,0 270,20 378,62 109,41 189,97 240,168 51,71 87,166 107,285l-304 42c-13,-95 -53,-170 -119,-223 -66,-54 -159,-80 -279,-80 -142,0 -244,23 -304,70 -61,47 -91,102 -91,165 0,40 12,77 37,109 25,33 65,61 119,82 31,12 122,39 273,80 219,58 372,106 459,143 87,37 155,92 205,163 50,71 74,159 74,265 0,103 -30,200 -90,291 -61,91 -148,161 -261,211 -114,50 -243,75 -387,75 -237,0 -419,-49 -543,-148 -125,-98 -205,-244 -239,-438z"/>
  </g>
  <g>
   <path id="4" class="fil10 str2" d="M99139 90748l303 42c-33,209 -118,372 -255,490 -137,118 -306,177 -505,177 -250,0 -451,-82 -603,-245 -152,-164 -228,-398 -228,-702 0,-198 33,-370 99,-518 65,-148 164,-259 298,-332 134,-74 279,-111 436,-111 199,0 361,50 487,150 127,101 208,243 243,428l-300 46c-29,-123 -79,-215 -153,-278 -72,-61 -161,-92 -264,-92 -157,0 -284,55 -382,167 -97,112 -146,289 -146,531 0,246 47,424 141,535 95,111 218,167 369,167 122,0 224,-37 305,-112 81,-74 133,-188 155,-343z"/>
  </g>
  <g>
   <path id="5" class="fil10 str2" d="M99703 91418l0 -1831 279 0 0 281c71,-130 137,-216 198,-257 60,-42 127,-62 199,-62 105,0 211,32 319,98l-110 286c-76,-42 -151,-63 -226,-63 -68,0 -128,20 -182,61 -53,40 -92,97 -114,169 -35,110 -52,231 -52,362l0 956 -311 0z"/>
  </g>
  <g>
   <path id="6" class="fil10 str2" d="M100882 89245l0 -353 310 0 0 353 -310 0zm0 2173l0 -1831 310 0 0 1831 -310 0z"/>
  </g>
  <g>
   <path id="7" class="fil10 str2" d="M101951 91418l-289 0 0 -2526 310 0 0 902c131,-164 298,-245 502,-245 112,0 219,22 320,67 100,45 182,110 248,191 64,83 115,181 152,297 37,115 55,239 55,371 0,313 -77,555 -232,726 -155,171 -341,256 -558,256 -216,0 -385,-90 -508,-269l0 230zm-4 -929c0,219 30,377 90,475 97,159 229,239 396,239 135,0 252,-59 351,-176 98,-118 148,-293 148,-526 0,-239 -47,-414 -142,-528 -95,-113 -209,-170 -343,-170 -136,0 -253,58 -351,176 -99,118 -149,287 -149,510z"/>
  </g>
  <g>
   <path id="8" class="fil10 str2" d="M104876 90826l321 42c-50,186 -143,332 -280,434 -136,103 -310,155 -522,155 -267,0 -479,-82 -635,-247 -157,-164 -235,-395 -235,-692 0,-307 79,-546 237,-715 158,-170 363,-254 616,-254 244,0 443,82 597,249 155,166 233,400 233,702 0,18 -1,46 -2,82l-1364 0c12,201 69,355 171,461 102,107 229,160 382,160 113,0 210,-30 290,-90 81,-60 144,-156 191,-287zm-1016 -498l1020 0c-14,-154 -53,-269 -117,-346 -99,-119 -227,-179 -384,-179 -142,0 -261,47 -358,142 -97,96 -150,223 -161,383z"/>
  </g>
  <g>
   <path id="9" class="fil10 str2" d="M106569 91418l0 -1831 279 0 0 260c134,-199 328,-298 582,-298 110,0 211,20 304,59 92,39 161,92 207,156 46,64 78,140 96,228 12,58 18,159 18,302l0 1124 -311 0 0 -1112c0,-127 -12,-221 -36,-284 -24,-62 -67,-112 -128,-149 -61,-38 -133,-56 -216,-56 -131,0 -245,41 -341,125 -96,84 -143,243 -143,477l0 999 -311 0z"/>
  </g>
  <g>
   <path id="10" class="fil10 str2" d="M108415 90503c0,-338 94,-589 283,-752 157,-135 349,-202 575,-202 251,0 457,82 617,247 159,164 239,391 239,681 0,235 -35,420 -105,554 -71,135 -174,240 -309,314 -135,75 -282,112 -442,112 -256,0 -463,-82 -621,-246 -158,-164 -237,-400 -237,-708zm317 0c0,234 52,410 154,525 103,117 232,175 387,175 154,0 283,-58 385,-175 103,-117 154,-295 154,-535 0,-225 -52,-396 -155,-512 -103,-117 -231,-175 -384,-175 -155,0 -284,58 -387,174 -102,115 -154,290 -154,523z"/>
  </g>
  <g>
   <path id="11" class="fil10 str2" d="M110823 91418l-554 -1831 325 0 292 1057 104 393c4,-19 35,-145 94,-377l290 -1073 318 0 276 1063 90 349 105 -353 316 -1059 302 0 -574 1831 -321 0 -291 -1095 -73 -313 -371 1408 -328 0z"/>
  </g>
  <g transform="matrix(1 0 0 1 -37066.6 6318.22)">
   <text x="127325" y="85100" id="11" class="fil9 fnt0">subscribe now</text>
  </g>
  <text x="125133" y="95575"  class="fil9 fnt1">/lorem/important</text>
  <g>
   <path class="fil12" d="M60094 92600l-3888 1944 0 -3888 3888 1944zm-39994 -750l36157 0 0 1500 -36157 0 0 -1500z"/>
  </g>
  <g>
   <path class="fil10 str2" d="M23039 92120l0 -2533 283 0 0 241c66,-93 141,-163 225,-209 84,-47 186,-70 305,-70 156,0 294,40 413,120 120,80 210,194 271,339 60,147 91,307 91,481 0,187 -34,355 -101,505 -67,149 -164,264 -292,344 -128,79 -263,119 -404,119 -103,0 -196,-22 -278,-65 -82,-44 -149,-98 -202,-165l0 893 -311 0zm283 -1606c0,235 47,408 142,520 95,113 210,169 346,169 137,0 255,-58 352,-175 99,-116 147,-296 147,-540 0,-233 -47,-407 -143,-523 -96,-115 -210,-173 -343,-173 -131,0 -248,62 -349,185 -102,123 -152,302 -152,537z"/>
  </g>
  <g>
   <path id="1" class="fil10 str2" d="M26197 91418l0 -272c-142,208 -335,311 -579,311 -107,0 -208,-21 -301,-62 -94,-41 -163,-93 -209,-155 -45,-63 -77,-140 -95,-230 -12,-62 -19,-158 -19,-290l0 -1133 311 0 0 1013c0,162 6,271 19,327 19,82 60,146 124,192 63,46 140,70 233,70 93,0 180,-24 261,-71 81,-48 139,-113 173,-195 34,-82 51,-201 51,-357l0 -979 310 0 0 1831 -279 0z"/>
  </g>
  <g>
   <path id="2" class="fil10 str2" d="M27249 91418l-289 0 0 -2526 310 0 0 902c132,-164 298,-245 502,-245 112,0 219,22 320,67 100,45 183,110 248,191 65,83 116,181 152,297 37,115 55,239 55,371 0,313 -77,555 -232,726 -155,171 -341,256 -558,256 -216,0 -385,-90 -508,-269l0 230zm-3 -929c0,219 30,377 89,475 98,159 229,239 396,239 136,0 253,-59 351,-176 99,-118 148,-293 148,-526 0,-239 -47,-414 -142,-528 -94,-113 -209,-170 -343,-170 -136,0 -253,58 -351,176 -99,118 -148,287 -148,510z"/>
  </g>
  <g>
   <polygon id="3" class="fil10 str2" points="28918,91418 28918,88892 29229,88892 29229,91418 "/>
  </g>
  <g>
   <path id="4" class="fil10 str2" d="M29709 89245l0 -353 311 0 0 353 -311 0zm0 2173l0 -1831 311 0 0 1831 -311 0z"/>
  </g>
  <g>
   <path id="5" class="fil10 str2" d="M30369 90871l307 -49c17,123 66,217 144,283 79,65 190,98 331,98 143,0 248,-29 318,-87 69,-58 103,-126 103,-204 0,-70 -31,-125 -93,-165 -43,-28 -149,-63 -317,-105 -227,-57 -384,-107 -472,-149 -88,-42 -154,-100 -199,-174 -46,-73 -69,-155 -69,-244 0,-82 19,-157 56,-227 38,-69 88,-127 152,-172 49,-36 115,-66 197,-90 84,-25 173,-37 268,-37 143,0 269,20 377,62 109,41 189,97 241,168 51,71 87,166 106,285l-303 42c-14,-95 -54,-170 -119,-223 -66,-54 -159,-80 -280,-80 -141,0 -243,23 -304,70 -60,47 -91,102 -91,165 0,40 13,77 38,109 25,33 64,61 119,82 31,12 121,39 273,80 219,58 372,106 459,143 87,37 155,92 204,163 50,71 75,159 75,265 0,103 -30,200 -91,291 -60,91 -147,161 -261,211 -114,50 -243,75 -386,75 -238,0 -419,-49 -544,-148 -125,-98 -204,-244 -239,-438z"/>
  </g>
  <g>
   <path id="6" class="fil10 str2" d="M32257 91418l0 -2526 310 0 0 909c144,-168 326,-252 546,-252 134,0 251,26 351,80 100,53 171,127 214,221 43,94 64,231 64,409l0 1159 -311 0 0 -1157c0,-155 -33,-268 -100,-338 -67,-71 -161,-106 -283,-106 -91,0 -177,23 -257,71 -81,47 -138,112 -173,194 -34,81 -51,193 -51,337l0 999 -310 0z"/>
  </g>
  <g>
   <path id="7" class="fil10 str2" d="M35185 92122l-36 -287c69,18 127,28 178,28 69,0 125,-12 166,-35 41,-23 76,-55 102,-96 19,-32 51,-109 95,-232 6,-17 14,-42 27,-76l-695 -1837 332 0 382 1058c50,133 94,274 134,422 35,-139 78,-277 127,-412l391 -1068 309 0 -692 1863c-74,200 -132,338 -174,414 -55,102 -119,176 -190,224 -72,48 -157,71 -256,71 -60,0 -127,-12 -200,-37z"/>
  </g>
  <g>
   <path id="8" class="fil10 str2" d="M38211 90826l321 42c-50,186 -143,332 -279,434 -137,103 -311,155 -523,155 -267,0 -479,-82 -635,-247 -157,-164 -235,-395 -235,-692 0,-307 79,-546 237,-715 158,-170 364,-254 616,-254 244,0 443,82 598,249 154,166 232,400 232,702 0,18 -1,46 -2,82l-1363 0c12,201 68,355 170,461 102,107 230,160 382,160 113,0 210,-30 290,-90 81,-60 144,-156 191,-287zm-1016 -498l1020 0c-14,-154 -53,-269 -117,-346 -98,-119 -226,-179 -383,-179 -143,0 -262,47 -359,142 -97,96 -150,223 -161,383z"/>
  </g>
  <g>
   <path id="9" class="fil10 str2" d="M38801 90871l307 -49c17,123 65,217 144,283 79,65 189,98 330,98 143,0 249,-29 319,-87 68,-58 103,-126 103,-204 0,-70 -31,-125 -93,-165 -43,-28 -149,-63 -317,-105 -227,-57 -384,-107 -472,-149 -88,-42 -155,-100 -200,-174 -45,-73 -68,-155 -68,-244 0,-82 19,-157 56,-227 38,-69 88,-127 152,-172 48,-36 114,-66 197,-90 84,-25 172,-37 268,-37 143,0 269,20 377,62 109,41 189,97 241,168 51,71 87,166 106,285l-303 42c-14,-95 -54,-170 -120,-223 -66,-54 -158,-80 -279,-80 -142,0 -243,23 -304,70 -61,47 -91,102 -91,165 0,40 12,77 38,109 25,33 64,61 118,82 31,12 122,39 274,80 218,58 371,106 458,143 87,37 155,92 205,163 50,71 75,159 75,265 0,103 -30,200 -91,291 -61,91 -148,161 -261,211 -114,50 -243,75 -386,75 -238,0 -420,-49 -544,-148 -125,-98 -204,-244 -239,-438z"/>
  </g>
  <g>
   <path id="10" class="fil10 str2" d="M41362 91141l43 274c-88,19 -166,28 -234,28 -112,0 -199,-18 -262,-54 -61,-35 -105,-82 -130,-140 -25,-58 -38,-181 -38,-367l0 -1055 -229 0 0 -240 229 0 0 -452 311 -187 0 639 310 0 0 240 -310 0 0 1073c0,88 5,145 16,171 11,25 28,45 53,60 25,15 60,23 106,23 34,0 79,-4 135,-13z"/>
  </g>
  <g>
   <path id="11" class="fil10 str2" d="M42917 90826l321 42c-50,186 -143,332 -280,434 -136,103 -310,155 -522,155 -267,0 -479,-82 -635,-247 -157,-164 -235,-395 -235,-692 0,-307 79,-546 237,-715 158,-170 363,-254 616,-254 244,0 443,82 598,249 154,166 232,400 232,702 0,18 -1,46 -2,82l-1363 0c11,201 68,355 170,461 102,107 229,160 382,160 113,0 210,-30 290,-90 81,-60 144,-156 191,-287zm-1016 -498l1020 0c-14,-154 -53,-269 -117,-346 -98,-119 -227,-179 -384,-179 -142,0 -261,47 -358,142 -97,96 -150,223 -161,383z"/>
  </g>
  <g>
   <path id="12" class="fil10 str2" d="M43627 91418l0 -1831 279 0 0 281c71,-130 137,-216 197,-257 61,-42 127,-62 200,-62 104,0 211,32 319,98l-111 286c-75,-42 -150,-63 -226,-63 -67,0 -128,20 -181,61 -54,40 -92,97 -115,169 -35,110 -52,231 -52,362l0 956 -310 0z"/>
  </g>
  <g>
   <path id="13" class="fil10 str2" d="M45987 91418l0 -232c-116,181 -286,271 -512,271 -145,0 -279,-40 -401,-120 -122,-80 -217,-193 -285,-336 -67,-144 -100,-309 -100,-496 0,-183 30,-348 91,-497 61,-148 152,-262 274,-341 121,-79 257,-118 407,-118 111,0 209,23 295,70 86,46 156,107 210,182l0 -909 310 0 0 2526 -289 0zm-981 -913c0,234 50,409 149,525 99,115 216,173 350,173 136,0 251,-55 347,-166 94,-110 142,-279 142,-506 0,-249 -48,-433 -145,-550 -97,-117 -216,-175 -358,-175 -138,0 -253,56 -346,168 -92,113 -139,290 -139,531z"/>
  </g>
  <g>
   <path id="14" class="fil10 str2" d="M47963 91189c-115,98 -226,167 -333,207 -106,41 -220,61 -342,61 -202,0 -356,-49 -464,-147 -109,-98 -163,-223 -163,-375 0,-89 21,-171 61,-245 42,-74 95,-133 161,-178 66,-44 141,-79 223,-101 62,-16 154,-32 277,-47 250,-29 435,-65 554,-106 1,-43 1,-70 1,-81 0,-126 -29,-215 -88,-266 -79,-70 -197,-105 -354,-105 -146,0 -254,26 -324,77 -70,51 -121,142 -154,272l-304 -42c28,-130 73,-235 137,-315 63,-80 155,-141 275,-185 119,-43 259,-64 416,-64 156,0 284,18 382,55 98,37 170,83 216,139 46,55 78,126 97,211 10,53 15,148 15,285l0 412c0,287 7,469 20,546 12,77 38,151 76,221l-325 0c-31,-65 -51,-141 -60,-229zm-25 -688c-113,46 -282,85 -508,116 -128,19 -218,39 -271,62 -53,23 -94,57 -123,100 -28,44 -43,93 -43,147 0,82 31,151 94,205 63,55 155,83 275,83 120,0 226,-26 319,-79 93,-51 162,-122 206,-212 33,-70 50,-173 50,-309l1 -113z"/>
  </g>
  <g>
   <path id="15" class="fil10 str2" d="M48715 92122l-35 -287c68,18 127,28 177,28 70,0 125,-12 166,-35 42,-23 76,-55 102,-96 20,-32 52,-109 95,-232 6,-17 15,-42 28,-76l-695 -1837 331 0 383 1058c50,133 94,274 133,422 36,-139 78,-277 128,-412l390 -1068 310 0 -692 1863c-75,200 -133,338 -175,414 -55,102 -119,176 -190,224 -71,48 -157,71 -255,71 -60,0 -127,-12 -201,-37z"/>
  </g>
  <g transform="matrix(1 0 0 1 -102067 6318.22)">
   <text x="124873" y="85100" id="15" class="fil13 fnt0">publish yesterday</text>
  </g>
  <rect class="fil14 str3" x="100" y="87600" width="20000" height="10000"/>
  <text x="3961" y="92866"  class="fil13 fnt0">Client Y</text>
  <text x="1701" y="95575"  class="fil15 fnt1">/lorem/important   Retain=1</text>
  <g>
   <ellipse class="fil8" cx="62467" cy="89061" rx="1688" ry="506"/>
   <path class="fil8" d="M64156 90074c0,280 -756,507 -1689,507 -932,0 -1688,-227 -1688,-507l0 -653c341,209 969,349 1688,349 720,0 1348,-140 1689,-349l0 653z"/>
   <path class="fil8" d="M64156 91087c0,280 -756,507 -1689,507 -932,0 -1688,-227 -1688,-507l0 -653c341,209 969,349 1688,349 720,0 1348,-140 1689,-349l0 653z"/>
   <path class="fil8" d="M64156 92100c0,280 -756,507 -1689,507 -932,0 -1688,-227 -1688,-507l0 -653c341,209 969,349 1688,349 720,0 1348,-140 1689,-349l0 653z"/>
  </g>
 </g>
</svg>
