<?xml version="1.0" encoding="UTF-8"?>
<!DOCTYPE svg PUBLIC "-//W3C//DTD SVG 1.0//EN" "http://www.w3.org/TR/2001/REC-SVG-20010904/DTD/svg10.dtd">
<!-- Creator: CorelDRAW Home & Student X8 -->
<svg xmlns="http://www.w3.org/2000/svg" xml:space="preserve" width="100%" height="100%" version="1.0" style="shape-rendering:geometricPrecision; text-rendering:geometricPrecision; image-rendering:optimizeQuality; fill-rule:evenodd; clip-rule:evenodd"
viewBox="0 0 140200 25200"
 xmlns:xlink="http://www.w3.org/1999/xlink">
 <defs>
  <style type="text/css">
   <![CDATA[
    .str1 {stroke:white;stroke-width:500}
    .str0 {stroke:black;stroke-width:200}
    .str2 {stroke:#999999;stroke-width:200}
    .fil6 {fill:none;fill-rule:nonzero}
    .fil1 {fill:black}
    .fil7 {fill:#00CCFF}
    .fil5 {fill:gray}
    .fil11 {fill:#CCCCCC}
    .fil9 {fill:#CCCCFF}
    .fil3 {fill:#CCFF66}
    .fil0 {fill:#E6E6E6}
    .fil10 {fill:#F4F4F4}
    .fil12 {fill:#FF6600}
    .fil4 {fill:#FFFF99}
    .fil2 {fill:#00CCFF;fill-rule:nonzero}
    .fil8 {fill:#CCCCCC;fill-rule:nonzero}
    .fnt1 {font-weight:normal;font-size:1411.1px;font-family:'Arial'}
    .fnt0 {font-weight:normal;font-size:3527.7px;font-family:'Arial'}
   ]]>
  </style>
 </defs>
 <g id="Ebene_x0020_1">
  <metadata id="CorelCorpID_0Corel-Layer"/>
  <rect class="fil0 str0" x="55100" y="100" width="30000" height="25000"/>
  <text x="65109" y="5648"  class="fil1 fnt0">MQTT</text>
  <text x="64910" y="9589"  class="fil1 fnt0">Broker</text>
  <g>
   <path class="fil2" d="M120094 17600l-3888 1944 0 -3888 3888 1944zm-39994 -750l36157 0 0 1500 -36157 0 0 -1500z"/>
  </g>
  <rect class="fil3 str0" x="60100" y="12600" width="20000" height="10000" rx="2000" ry="2000"/>
  <text x="64516" y="17866"  class="fil1 fnt0">Topic 6</text>
  <rect class="fil4 str0" x="120100" y="12600" width="20000" height="10000"/>
  <text x="124028" y="17866"  class="fil1 fnt0">Client Z</text>
  <text x="61561" y="21077"  class="fil5 fnt1">/lorem/important   Retain=1</text>
  <g>
   <path class="fil6 str1" d="M90368 15871l307 -49c17,123 65,217 144,283 79,65 189,98 330,98 143,0 249,-29 318,-87 69,-58 104,-126 104,-204 0,-70 -31,-125 -93,-165 -43,-28 -149,-63 -317,-105 -227,-57 -384,-107 -473,-149 -87,-42 -154,-100 -199,-174 -45,-73 -68,-155 -68,-244 0,-82 19,-157 56,-227 37,-69 88,-127 152,-172 48,-36 114,-66 197,-90 84,-25 172,-37 268,-37 143,0 269,20 377,62 109,41 189,97 240,168 52,71 87,166 107,285l-303 42c-14,-95 -54,-170 -120,-223 -66,-54 -159,-80 -279,-80 -142,0 -244,23 -304,70 -61,47 -91,102 -91,165 0,40 12,77 37,109 26,33 65,61 119,82 31,12 122,39 274,80 218,58 371,106 458,143 87,37 155,92 205,163 50,71 74,159 74,265 0,103 -30,200 -90,291 -61,91 -148,161 -261,211 -114,50 -243,75 -386,75 -238,0 -420,-49 -544,-148 -125,-98 -204,-244 -239,-438z"/>
  </g>
  <g>
   <path id="1" class="fil6 str1" d="M93451 16418l0 -272c-142,208 -335,311 -579,311 -108,0 -208,-21 -302,-62 -93,-41 -162,-93 -208,-155 -45,-63 -77,-140 -95,-230 -12,-62 -19,-158 -19,-290l0 -1133 311 0 0 1013c0,162 6,271 18,327 20,82 61,146 125,192 62,46 140,70 233,70 93,0 180,-24 261,-71 81,-48 139,-113 173,-195 33,-82 50,-201 50,-357l0 -979 311 0 0 1831 -279 0z"/>
  </g>
  <g>
   <path id="2" class="fil6 str1" d="M94503 16418l-289 0 0 -2526 310 0 0 902c131,-164 298,-245 502,-245 112,0 219,22 320,67 100,45 182,110 248,191 64,83 115,181 152,297 37,115 55,239 55,371 0,313 -77,555 -232,726 -155,171 -341,256 -558,256 -216,0 -385,-90 -508,-269l0 230zm-4 -929c0,219 30,377 90,475 97,159 229,239 396,239 135,0 252,-59 351,-176 98,-118 148,-293 148,-526 0,-239 -47,-414 -142,-528 -95,-113 -209,-170 -343,-170 -136,0 -253,58 -351,176 -99,118 -149,287 -149,510z"/>
  </g>
  <g>
   <path id="3" class="fil6 str1" d="M96056 15871l307 -49c17,123 65,217 144,283 79,65 189,98 330,98 143,0 249,-29 318,-87 69,-58 104,-126 104,-204 0,-70 -31,-125 -93,-165 -44,-28 -149,-63 -318,-105 -227,-57 -384,-107 -472,-149 -87,-42 -154,-100 -199,-174 -45,-73 -68,-155 -68,-244 0,-82 19,-157 56,-227 37,-69 88,-127 152,-172 48,-36 114,-66 197,-90 83,-25 172,-37 267,-37 144,0 270,20 378,62 109,41 189,97 240,168 51,71 87,166 107,285l-304 42c-13,-95 -53,-170 -119,-223 -66,-54 -159,-80 -279,-80 -142,0 -244,23 -304,70 -61,47 -91,102 -91,165 0,40 12,77 37,109 25,33 65,61 119,82 31,12 122,39 273,80 219,58 372,106 459,143 87,37 155,92 205,163 50,71 74,159 74,265 0,103 -30,200 -90,291 -61,91 -148,161 -261,211 -114,50 -243,75 -387,75 -237,0 -419,-49 -543,-148 -125,-98 -205,-244 -239,-438z"/>
  </g>
  <g>
   <path id="4" class="fil6 str1" d="M99139 15748l303 42c-33,209 -118,372 -255,490 -137,118 -306,177 -505,177 -250,0 -451,-82 -603,-245 -152,-164 -228,-398 -228,-702 0,-198 33,-370 99,-518 65,-148 164,-259 298,-332 134,-74 279,-111 436,-111 199,0 361,50 487,150 127,101 208,243 243,428l-300 46c-29,-123 -79,-215 -153,-278 -72,-61 -161,-92 -264,-92 -157,0 -284,55 -382,167 -97,112 -146,289 -146,531 0,246 47,424 141,535 95,111 218,167 369,167 122,0 224,-37 305,-112 81,-74 133,-188 155,-343z"/>
  </g>
  <g>
   <path id="5" class="fil6 str1" d="M99703 16418l0 -1831 279 0 0 281c71,-130 137,-216 198,-257 60,-42 127,-62 199,-62 105,0 211,32 319,98l-110 286c-76,-42 -151,-63 -226,-63 -68,0 -128,20 -182,61 -53,40 -92,97 -114,169 -35,110 -52,231 -52,362l0 956 -311 0z"/>
  </g>
  <g>
   <path id="6" class="fil6 str1" d="M100882 14245l0 -353 310 0 0 353 -310 0zm0 2173l0 -1831 310 0 0 1831 -310 0z"/>
  </g>
  <g>
   <path id="7" class="fil6 str1" d="M101951 16418l-289 0 0 -2526 310 0 0 902c131,-164 298,-245 502,-245 112,0 219,22 320,67 100,45 182,110 248,191 64,83 115,181 152,297 37,115 55,239 55,371 0,313 -77,555 -232,726 -155,171 -341,256 -558,256 -216,0 -385,-90 -508,-269l0 230zm-4 -929c0,219 30,377 90,475 97,159 229,239 396,239 135,0 252,-59 351,-176 98,-118 148,-293 148,-526 0,-239 -47,-414 -142,-528 -95,-113 -209,-170 -343,-170 -136,0 -253,58 -351,176 -99,118 -149,287 -149,510z"/>
  </g>
  <g>
   <path id="8" class="fil6 str1" d="M104876 15826l321 42c-50,186 -143,332 -280,434 -136,103 -310,155 -522,155 -267,0 -479,-82 -635,-247 -157,-164 -235,-395 -235,-692 0,-307 79,-546 237,-715 158,-170 363,-254 616,-254 244,0 443,82 597,249 155,166 233,400 233,702 0,18 -1,46 -2,82l-1364 0c12,201 69,355 171,461 102,107 229,160 382,160 113,0 210,-30 290,-90 81,-60 144,-156 191,-287zm-1016 -498l1020 0c-14,-154 -53,-269 -117,-346 -99,-119 -227,-179 -384,-179 -142,0 -261,47 -358,142 -97,96 -150,223 -161,383z"/>
  </g>
  <g>
   <path id="9" class="fil6 str1" d="M106569 16418l0 -1831 279 0 0 260c134,-199 328,-298 582,-298 110,0 211,20 304,59 92,39 161,92 207,156 46,64 78,140 96,228 12,58 18,159 18,302l0 1124 -311 0 0 -1112c0,-127 -12,-221 -36,-284 -24,-62 -67,-112 -128,-149 -61,-38 -133,-56 -216,-56 -131,0 -245,41 -341,125 -96,84 -143,243 -143,477l0 999 -311 0z"/>
  </g>
  <g>
   <path id="10" class="fil6 str1" d="M108415 15503c0,-338 94,-589 283,-752 157,-135 349,-202 575,-202 251,0 457,82 617,247 159,164 239,391 239,681 0,235 -35,420 -105,554 -71,135 -174,240 -309,314 -135,75 -282,112 -442,112 -256,0 -463,-82 -621,-246 -158,-164 -237,-400 -237,-708zm317 0c0,234 52,410 154,525 103,117 232,175 387,175 154,0 283,-58 385,-175 103,-117 154,-295 154,-535 0,-225 -52,-396 -155,-512 -103,-117 -231,-175 -384,-175 -155,0 -284,58 -387,174 -102,115 -154,290 -154,523z"/>
  </g>
  <g>
   <path id="11" class="fil6 str1" d="M110823 16418l-554 -1831 325 0 292 1057 104 393c4,-19 35,-145 94,-377l290 -1073 318 0 276 1063 90 349 105 -353 316 -1059 302 0 -574 1831 -321 0 -291 -1095 -73 -313 -371 1408 -328 0z"/>
  </g>
  <g transform="matrix(1 0 0 1 -37066.6 96318.2)">
   <text x="127325" y="-79900" id="11" class="fil7 fnt0">subscribe now</text>
  </g>
  <text x="125133" y="20575"  class="fil7 fnt1">/lorem/important</text>
  <g>
   <path class="fil8" d="M60094 17600l-3888 1944 0 -3888 3888 1944zm-39994 -750l36157 0 0 1500 -36157 0 0 -1500z"/>
  </g>
  <g>
   <path class="fil6 str1" d="M23039 17120l0 -2533 283 0 0 241c66,-93 141,-163 225,-209 84,-47 186,-70 305,-70 156,0 294,40 413,120 120,80 210,194 271,339 60,147 91,307 91,481 0,187 -34,355 -101,505 -67,149 -164,264 -292,344 -128,79 -263,119 -404,119 -103,0 -196,-22 -278,-65 -82,-44 -149,-98 -202,-165l0 893 -311 0zm283 -1606c0,235 47,408 142,520 95,113 210,169 346,169 137,0 255,-58 352,-175 99,-116 147,-296 147,-540 0,-233 -47,-407 -143,-523 -96,-115 -210,-173 -343,-173 -131,0 -248,62 -349,185 -102,123 -152,302 -152,537z"/>
  </g>
  <g>
   <path id="1" class="fil6 str1" d="M26197 16418l0 -272c-142,208 -335,311 -579,311 -107,0 -208,-21 -301,-62 -94,-41 -163,-93 -209,-155 -45,-63 -77,-140 -95,-230 -12,-62 -19,-158 -19,-290l0 -1133 311 0 0 1013c0,162 6,271 19,327 19,82 60,146 124,192 63,46 140,70 233,70 93,0 180,-24 261,-71 81,-48 139,-113 173,-195 34,-82 51,-201 51,-357l0 -979 310 0 0 1831 -279 0z"/>
  </g>
  <g>
   <path id="2" class="fil6 str1" d="M27249 16418l-289 0 0 -2526 310 0 0 902c132,-164 298,-245 502,-245 112,0 219,22 320,67 100,45 183,110 248,191 65,83 116,181 152,297 37,115 55,239 55,371 0,313 -77,555 -232,726 -155,171 -341,256 -558,256 -216,0 -385,-90 -508,-269l0 230zm-3 -929c0,219 30,377 89,475 98,159 229,239 396,239 136,0 253,-59 351,-176 99,-118 148,-293 148,-526 0,-239 -47,-414 -142,-528 -94,-113 -209,-170 -343,-170 -136,0 -253,58 -351,176 -99,118 -148,287 -148,510z"/>
  </g>
  <g>
   <polygon id="3" class="fil6 str1" points="28918,16418 28918,13892 29229,13892 29229,16418 "/>
  </g>
  <g>
   <path id="4" class="fil6 str1" d="M29709 14245l0 -353 311 0 0 353 -311 0zm0 2173l0 -1831 311 0 0 1831 -311 0z"/>
  </g>
  <g>
   <path id="5" class="fil6 str1" d="M30369 15871l307 -49c17,123 66,217 144,283 79,65 190,98 331,98 143,0 248,-29 318,-87 69,-58 103,-126 103,-204 0,-70 -31,-125 -93,-165 -43,-28 -149,-63 -317,-105 -227,-57 -384,-107 -472,-149 -88,-42 -154,-100 -199,-174 -46,-73 -69,-155 -69,-244 0,-82 19,-157 56,-227 38,-69 88,-127 152,-172 49,-36 115,-66 197,-90 84,-25 173,-37 268,-37 143,0 269,20 377,62 109,41 189,97 241,168 51,71 87,166 106,285l-303 42c-14,-95 -54,-170 -119,-223 -66,-54 -159,-80 -280,-80 -141,0 -243,23 -304,70 -60,47 -91,102 -91,165 0,40 13,77 38,109 25,33 64,61 119,82 31,12 121,39 273,80 219,58 372,106 459,143 87,37 155,92 204,163 50,71 75,159 75,265 0,103 -30,200 -91,291 -60,91 -147,161 -261,211 -114,50 -243,75 -386,75 -238,0 -419,-49 -544,-148 -125,-98 -204,-244 -239,-438z"/>
  </g>
  <g>
   <path id="6" class="fil6 str1" d="M32257 16418l0 -2526 310 0 0 909c144,-168 326,-252 546,-252 134,0 251,26 351,80 100,53 171,127 214,221 43,94 64,231 64,409l0 1159 -311 0 0 -1157c0,-155 -33,-268 -100,-338 -67,-71 -161,-106 -283,-106 -91,0 -177,23 -257,71 -81,47 -138,112 -173,194 -34,81 -51,193 -51,337l0 999 -310 0z"/>
  </g>
  <g>
   <path id="7" class="fil6 str1" d="M35185 17122l-36 -287c69,18 127,28 178,28 69,0 125,-12 166,-35 41,-23 76,-55 102,-96 19,-32 51,-109 95,-232 6,-17 14,-42 27,-76l-695 -1837 332 0 382 1058c50,133 94,274 134,422 35,-139 78,-277 127,-412l391 -1068 309 0 -692 1863c-74,200 -132,338 -174,414 -55,102 -119,176 -190,224 -72,48 -157,71 -256,71 -60,0 -127,-12 -200,-37z"/>
  </g>
  <g>
   <path id="8" class="fil6 str1" d="M38211 15826l321 42c-50,186 -143,332 -279,434 -137,103 -311,155 -523,155 -267,0 -479,-82 -635,-247 -157,-164 -235,-395 -235,-692 0,-307 79,-546 237,-715 158,-170 364,-254 616,-254 244,0 443,82 598,249 154,166 232,400 232,702 0,18 -1,46 -2,82l-1363 0c12,201 68,355 170,461 102,107 230,160 382,160 113,0 210,-30 290,-90 81,-60 144,-156 191,-287zm-1016 -498l1020 0c-14,-154 -53,-269 -117,-346 -98,-119 -226,-179 -383,-179 -143,0 -262,47 -359,142 -97,96 -150,223 -161,383z"/>
  </g>
  <g>
   <path id="9" class="fil6 str1" d="M38801 15871l307 -49c17,123 65,217 144,283 79,65 189,98 330,98 143,0 249,-29 319,-87 68,-58 103,-126 103,-204 0,-70 -31,-125 -93,-165 -43,-28 -149,-63 -317,-105 -227,-57 -384,-107 -472,-149 -88,-42 -155,-100 -200,-174 -45,-73 -68,-155 -68,-244 0,-82 19,-157 56,-227 38,-69 88,-127 152,-172 48,-36 114,-66 197,-90 84,-25 172,-37 268,-37 143,0 269,20 377,62 109,41 189,97 241,168 51,71 87,166 106,285l-303 42c-14,-95 -54,-170 -120,-223 -66,-54 -158,-80 -279,-80 -142,0 -243,23 -304,70 -61,47 -91,102 -91,165 0,40 12,77 38,109 25,33 64,61 118,82 31,12 122,39 274,80 218,58 371,106 458,143 87,37 155,92 205,163 50,71 75,159 75,265 0,103 -30,200 -91,291 -61,91 -148,161 -261,211 -114,50 -243,75 -386,75 -238,0 -420,-49 -544,-148 -125,-98 -204,-244 -239,-438z"/>
  </g>
  <g>
   <path id="10" class="fil6 str1" d="M41362 16141l43 274c-88,19 -166,28 -234,28 -112,0 -199,-18 -262,-54 -61,-35 -105,-82 -130,-140 -25,-58 -38,-181 -38,-367l0 -1055 -229 0 0 -240 229 0 0 -452 311 -187 0 639 310 0 0 240 -310 0 0 1073c0,88 5,145 16,171 11,25 28,45 53,60 25,15 60,23 106,23 34,0 79,-4 135,-13z"/>
  </g>
  <g>
   <path id="11" class="fil6 str1" d="M42917 15826l321 42c-50,186 -143,332 -280,434 -136,103 -310,155 -522,155 -267,0 -479,-82 -635,-247 -157,-164 -235,-395 -235,-692 0,-307 79,-546 237,-715 158,-170 363,-254 616,-254 244,0 443,82 598,249 154,166 232,400 232,702 0,18 -1,46 -2,82l-1363 0c11,201 68,355 170,461 102,107 229,160 382,160 113,0 210,-30 290,-90 81,-60 144,-156 191,-287zm-1016 -498l1020 0c-14,-154 -53,-269 -117,-346 -98,-119 -227,-179 -384,-179 -142,0 -261,47 -358,142 -97,96 -150,223 -161,383z"/>
  </g>
  <g>
   <path id="12" class="fil6 str1" d="M43627 16418l0 -1831 279 0 0 281c71,-130 137,-216 197,-257 61,-42 127,-62 200,-62 104,0 211,32 319,98l-111 286c-75,-42 -150,-63 -226,-63 -67,0 -128,20 -181,61 -54,40 -92,97 -115,169 -35,110 -52,231 -52,362l0 956 -310 0z"/>
  </g>
  <g>
   <path id="13" class="fil6 str1" d="M45987 16418l0 -232c-116,181 -286,271 -512,271 -145,0 -279,-40 -401,-120 -122,-80 -217,-193 -285,-336 -67,-144 -100,-309 -100,-496 0,-183 30,-348 91,-497 61,-148 152,-262 274,-341 121,-79 257,-118 407,-118 111,0 209,23 295,70 86,46 156,107 210,182l0 -909 310 0 0 2526 -289 0zm-981 -913c0,234 50,409 149,525 99,115 216,173 350,173 136,0 251,-55 347,-166 94,-110 142,-279 142,-506 0,-249 -48,-433 -145,-550 -97,-117 -216,-175 -358,-175 -138,0 -253,56 -346,168 -92,113 -139,290 -139,531z"/>
  </g>
  <g>
   <path id="14" class="fil6 str1" d="M47963 16189c-115,98 -226,167 -333,207 -106,41 -220,61 -342,61 -202,0 -356,-49 -464,-147 -109,-98 -163,-223 -163,-375 0,-89 21,-171 61,-245 42,-74 95,-133 161,-178 66,-44 141,-79 223,-101 62,-16 154,-32 277,-47 250,-29 435,-65 554,-106 1,-43 1,-70 1,-81 0,-126 -29,-215 -88,-266 -79,-70 -197,-105 -354,-105 -146,0 -254,26 -324,77 -70,51 -121,142 -154,272l-304 -42c28,-130 73,-235 137,-315 63,-80 155,-141 275,-185 119,-43 259,-64 416,-64 156,0 284,18 382,55 98,37 170,83 216,139 46,55 78,126 97,211 10,53 15,148 15,285l0 412c0,287 7,469 20,546 12,77 38,151 76,221l-325 0c-31,-65 -51,-141 -60,-229zm-25 -688c-113,46 -282,85 -508,116 -128,19 -218,39 -271,62 -53,23 -94,57 -123,100 -28,44 -43,93 -43,147 0,82 31,151 94,205 63,55 155,83 275,83 120,0 226,-26 319,-79 93,-51 162,-122 206,-212 33,-70 50,-173 50,-309l1 -113z"/>
  </g>
  <g>
   <path id="15" class="fil6 str1" d="M48715 17122l-35 -287c68,18 127,28 177,28 70,0 125,-12 166,-35 42,-23 76,-55 102,-96 20,-32 52,-109 95,-232 6,-17 15,-42 28,-76l-695 -1837 331 0 383 1058c50,133 94,274 133,422 36,-139 78,-277 128,-412l390 -1068 310 0 -692 1863c-75,200 -133,338 -175,414 -55,102 -119,176 -190,224 -71,48 -157,71 -255,71 -60,0 -127,-12 -201,-37z"/>
  </g>
  <g transform="matrix(1 0 0 1 -102067 96318.2)">
   <text x="124873" y="-79900" id="15" class="fil9 fnt0">publish yesterday</text>
  </g>
  <rect class="fil10 str2" x="100" y="12600" width="20000" height="10000"/>
  <text x="3961" y="17866"  class="fil9 fnt0">Client Y</text>
  <text x="1701" y="20575"  class="fil11 fnt1">/lorem/important   Retain=1</text>
  <g>
   <ellipse class="fil12" cx="62467" cy="14061" rx="1688" ry="506"/>
   <path class="fil12" d="M64156 15074c0,280 -756,507 -1689,507 -932,0 -1688,-227 -1688,-507l0 -653c341,209 969,349 1688,349 720,0 1348,-140 1689,-349l0 653z"/>
   <path class="fil12" d="M64156 16087c0,280 -756,507 -1689,507 -932,0 -1688,-227 -1688,-507l0 -653c341,209 969,349 1688,349 720,0 1348,-140 1689,-349l0 653z"/>
   <path class="fil12" d="M64156 17100c0,280 -756,507 -1689,507 -932,0 -1688,-227 -1688,-507l0 -653c341,209 969,349 1688,349 720,0 1348,-140 1689,-349l0 653z"/>
  </g>
 </g>
</svg>
