<?xml version="1.0" encoding="UTF-8"?>
<!DOCTYPE svg PUBLIC "-//W3C//DTD SVG 1.0//EN" "http://www.w3.org/TR/2001/REC-SVG-20010904/DTD/svg10.dtd">
<!-- Creator: CorelDRAW Home & Student X8 -->
<svg xmlns="http://www.w3.org/2000/svg" xml:space="preserve" width="100%" height="100%" version="1.0" style="shape-rendering:geometricPrecision; text-rendering:geometricPrecision; image-rendering:optimizeQuality; fill-rule:evenodd; clip-rule:evenodd"
viewBox="0 0 140200 25200"
 xmlns:xlink="http://www.w3.org/1999/xlink">
 <defs>
  <style type="text/css">
   <![CDATA[
    .str1 {stroke:white;stroke-width:500}
    .str0 {stroke:black;stroke-width:200}
    .fil7 {fill:none;fill-rule:nonzero}
    .fil2 {fill:black}
    .fil6 {fill:#00CCFF}
    .fil5 {fill:gray}
    .fil4 {fill:#CCFF66}
    .fil0 {fill:#E6E6E6}
    .fil9 {fill:#FF6600}
    .fil3 {fill:#FFFF99}
    .fil1 {fill:#00CCFF;fill-rule:nonzero}
    .fil8 {fill:#FF6600;fill-rule:nonzero}
    .fnt1 {font-weight:normal;font-size:1411.1px;font-family:'Arial'}
    .fnt0 {font-weight:normal;font-size:3527.7px;font-family:'Arial'}
   ]]>
  </style>
 </defs>
 <g id="Ebene_x0020_1">
  <metadata id="CorelCorpID_0Corel-Layer"/>
  <rect class="fil0 str0" x="55100" y="100" width="30000" height="25000"/>
  <g>
   <path class="fil1" d="M120094 17600l-3888 1944 0 -3888 3888 1944zm-39994 -750l36157 0 0 1500 -36157 0 0 -1500z"/>
  </g>
  <text x="65109" y="5648"  class="fil2 fnt0">MQTT</text>
  <text x="64910" y="9589"  class="fil2 fnt0">Broker</text>
  <rect class="fil3 str0" x="120100" y="12600" width="20000" height="10000"/>
  <text x="123929" y="17866"  class="fil2 fnt0">Client B</text>
  <rect class="fil4 str0" x="60100" y="12600" width="20000" height="10000" rx="2000" ry="2000"/>
  <text x="64516" y="17866"  class="fil2 fnt0">Topic 2</text>
  <text x="64287" y="20473"  class="fil5 fnt1">/lorem/ipsum/dolor</text>
  <text x="124287" y="20473"  class="fil6 fnt1">/lorem/ipsum/dolor</text>
  <g>
   <path class="fil7 str1" d="M92600 17079l307 -49c17,123 65,217 144,283 79,65 189,98 330,98 143,0 249,-29 319,-87 68,-58 103,-126 103,-204 0,-70 -31,-126 -93,-165 -43,-28 -149,-63 -317,-106 -227,-57 -384,-106 -472,-148 -88,-42 -155,-100 -200,-174 -45,-73 -68,-155 -68,-245 0,-81 19,-156 56,-226 38,-69 88,-127 152,-173 48,-35 114,-65 197,-90 84,-24 172,-37 268,-37 143,0 269,21 377,63 109,41 189,97 241,168 51,71 87,166 106,284l-303 43c-14,-96 -54,-170 -120,-224 -66,-53 -158,-80 -279,-80 -142,0 -243,24 -304,71 -61,47 -91,102 -91,165 0,40 12,76 38,109 25,33 64,60 118,82 31,12 122,38 274,79 218,59 371,107 458,144 87,37 155,92 205,162 50,71 75,160 75,265 0,103 -30,200 -91,291 -61,92 -148,162 -261,212 -114,50 -243,75 -386,75 -238,0 -420,-50 -544,-148 -125,-99 -204,-244 -239,-438z"/>
  </g>
  <g>
   <path id="1" class="fil7 str1" d="M95683 17626l0 -272c-142,207 -335,311 -579,311 -107,0 -208,-21 -301,-62 -94,-42 -163,-93 -209,-156 -45,-63 -77,-139 -95,-230 -12,-61 -19,-157 -19,-289l0 -1133 311 0 0 1013c0,162 6,271 19,327 19,82 60,145 124,192 63,46 140,70 233,70 93,0 180,-24 261,-71 81,-48 139,-113 173,-195 33,-82 51,-201 51,-357l0 -979 310 0 0 1831 -279 0z"/>
  </g>
  <g>
   <path id="2" class="fil7 str1" d="M96735 17626l-289 0 0 -2526 310 0 0 901c131,-163 298,-245 502,-245 112,0 219,23 320,68 100,45 183,109 248,191 64,82 116,181 152,297 37,115 55,239 55,371 0,313 -77,555 -232,725 -155,172 -341,257 -558,257 -216,0 -385,-90 -508,-270l0 231zm-3 -929c0,219 30,377 89,474 98,160 229,240 396,240 135,0 252,-59 351,-177 98,-117 148,-292 148,-525 0,-239 -47,-415 -142,-528 -95,-114 -209,-171 -343,-171 -136,0 -253,59 -351,177 -99,117 -148,287 -148,510z"/>
  </g>
  <g>
   <path id="3" class="fil7 str1" d="M98288 17079l307 -49c17,123 65,217 144,283 79,65 189,98 330,98 143,0 249,-29 318,-87 69,-58 104,-126 104,-204 0,-70 -31,-126 -93,-165 -44,-28 -149,-63 -318,-106 -226,-57 -383,-106 -472,-148 -87,-42 -154,-100 -199,-174 -45,-73 -68,-155 -68,-245 0,-81 19,-156 56,-226 37,-69 88,-127 152,-173 48,-35 114,-65 197,-90 83,-24 172,-37 267,-37 144,0 270,21 378,63 109,41 189,97 240,168 52,71 87,166 107,284l-304 43c-13,-96 -53,-170 -119,-224 -66,-53 -159,-80 -279,-80 -142,0 -244,24 -304,71 -61,47 -91,102 -91,165 0,40 12,76 37,109 26,33 65,60 119,82 31,12 122,38 273,79 219,59 372,107 459,144 87,37 155,92 205,162 50,71 74,160 74,265 0,103 -30,200 -90,291 -61,92 -148,162 -261,212 -114,50 -243,75 -387,75 -237,0 -419,-50 -543,-148 -125,-99 -204,-244 -239,-438z"/>
  </g>
  <g>
   <path id="4" class="fil7 str1" d="M101371 16956l303 42c-33,209 -118,372 -255,490 -137,118 -305,177 -505,177 -250,0 -451,-82 -602,-245 -153,-164 -229,-398 -229,-702 0,-198 33,-370 99,-518 65,-148 164,-259 298,-333 134,-74 279,-111 437,-111 198,0 361,50 486,151 127,100 208,243 243,428l-300 46c-28,-123 -79,-216 -152,-278 -73,-62 -162,-93 -265,-93 -156,0 -283,56 -382,168 -97,112 -146,289 -146,531 0,246 47,424 141,535 95,111 218,167 369,167 122,0 224,-37 305,-112 82,-74 133,-189 155,-343z"/>
  </g>
  <g>
   <path id="5" class="fil7 str1" d="M101935 17626l0 -1831 279 0 0 281c71,-130 137,-216 198,-257 60,-42 127,-63 199,-63 105,0 211,33 319,98l-110 287c-76,-43 -151,-64 -226,-64 -68,0 -128,21 -182,61 -53,41 -91,97 -114,170 -35,110 -52,230 -52,361l0 957 -311 0z"/>
  </g>
  <g>
   <path id="6" class="fil7 str1" d="M103114 15453l0 -353 310 0 0 353 -310 0zm0 2173l0 -1831 310 0 0 1831 -310 0z"/>
  </g>
  <g>
   <path id="7" class="fil7 str1" d="M104183 17626l-289 0 0 -2526 310 0 0 901c131,-163 298,-245 502,-245 112,0 219,23 320,68 100,45 183,109 248,191 64,82 116,181 152,297 37,115 55,239 55,371 0,313 -77,555 -232,725 -155,172 -341,257 -558,257 -216,0 -385,-90 -508,-270l0 231zm-3 -929c0,219 30,377 89,474 98,160 229,240 396,240 135,0 252,-59 351,-177 98,-117 148,-292 148,-525 0,-239 -47,-415 -142,-528 -95,-114 -209,-171 -343,-171 -136,0 -253,59 -351,177 -99,117 -148,287 -148,510z"/>
  </g>
  <g>
   <path id="8" class="fil7 str1" d="M107108 17033l321 43c-50,186 -143,331 -280,434 -136,103 -310,155 -522,155 -267,0 -479,-83 -635,-247 -157,-164 -235,-395 -235,-692 0,-307 79,-546 237,-715 158,-170 363,-255 616,-255 244,0 443,83 598,250 154,166 232,400 232,702 0,18 -1,45 -2,82l-1363 0c11,200 68,354 170,461 102,106 229,160 382,160 113,0 210,-30 290,-90 81,-60 144,-156 191,-288zm-1016 -497l1020 0c-14,-154 -53,-269 -117,-346 -98,-120 -227,-180 -384,-180 -142,0 -261,48 -358,143 -97,95 -150,223 -161,383z"/>
  </g>
  <g transform="matrix(1 0 0 1 106440 -52474.1)">
   <text x="-13949" y="70100" id="8" class="fil6 fnt0">subscribe</text>
  </g>
  <g>
   <path class="fil8" d="M60094 17600l-3888 1944 0 -3888 3888 1944zm-39994 -750l36157 0 0 1500 -36157 0 0 -1500z"/>
  </g>
  <g>
   <path class="fil7 str1" d="M31898 18328l0 -2533 282 0 0 240c66,-92 142,-162 226,-209 83,-46 185,-70 304,-70 157,0 294,40 414,121 119,80 209,193 270,339 61,146 91,306 91,481 0,186 -33,354 -100,504 -67,150 -165,264 -293,344 -128,80 -262,120 -404,120 -103,0 -196,-22 -278,-66 -82,-43 -149,-98 -202,-164l0 893 -310 0zm282 -1606c0,234 48,408 142,520 95,112 211,169 346,169 137,0 255,-59 353,-175 98,-116 147,-296 147,-540 0,-233 -48,-407 -144,-523 -96,-116 -210,-173 -343,-173 -131,0 -248,61 -349,184 -102,124 -152,302 -152,538z"/>
  </g>
  <g>
   <path id="1" class="fil7 str1" d="M35056 17626l0 -272c-143,207 -336,311 -580,311 -107,0 -208,-21 -301,-62 -94,-42 -163,-94 -208,-156 -46,-63 -77,-139 -96,-230 -12,-61 -18,-157 -18,-289l0 -1133 310 0 0 1013c0,162 7,271 19,327 19,82 60,145 124,192 63,46 140,70 233,70 93,0 180,-24 261,-72 82,-47 139,-112 173,-194 34,-82 51,-201 51,-357l0 -979 310 0 0 1831 -278 0z"/>
  </g>
  <g>
   <path id="2" class="fil7 str1" d="M36107 17626l-289 0 0 -2526 311 0 0 901c131,-163 298,-245 501,-245 112,0 219,23 320,68 100,45 183,109 248,191 65,82 116,181 152,297 37,115 56,239 56,371 0,313 -78,555 -233,725 -155,171 -341,257 -558,257 -215,0 -385,-90 -508,-270l0 231zm-3 -929c0,219 30,377 89,474 98,160 230,240 396,240 136,0 253,-59 351,-177 99,-117 148,-293 148,-525 0,-239 -47,-415 -142,-528 -94,-114 -209,-171 -343,-171 -136,0 -253,59 -351,177 -99,117 -148,287 -148,510z"/>
  </g>
  <g>
   <polygon id="3" class="fil7 str1" points="37777,17626 37777,15100 38087,15100 38087,17626 "/>
  </g>
  <g>
   <path id="4" class="fil7 str1" d="M38567 15453l0 -353 311 0 0 353 -311 0zm0 2173l0 -1831 311 0 0 1831 -311 0z"/>
  </g>
  <g>
   <path id="5" class="fil7 str1" d="M39228 17079l307 -49c17,123 65,217 144,282 78,66 189,99 330,99 143,0 249,-29 318,-87 69,-58 104,-126 104,-204 0,-70 -32,-126 -93,-166 -44,-27 -150,-62 -318,-105 -227,-57 -384,-106 -472,-148 -88,-42 -154,-100 -199,-174 -46,-74 -68,-155 -68,-245 0,-81 18,-157 55,-226 38,-69 89,-127 153,-173 48,-35 114,-65 197,-90 83,-24 172,-37 267,-37 144,0 269,21 378,62 108,42 188,98 240,169 51,71 87,165 106,284l-303 43c-13,-96 -53,-170 -119,-224 -66,-53 -159,-80 -280,-80 -141,0 -243,24 -303,71 -61,47 -92,102 -92,165 0,40 13,76 38,109 25,33 65,60 119,82 31,12 121,38 273,79 219,59 372,107 459,144 87,37 155,92 204,162 50,71 75,159 75,265 0,103 -30,200 -90,291 -61,91 -148,162 -262,212 -114,50 -242,75 -386,75 -237,0 -419,-50 -544,-148 -124,-99 -204,-245 -238,-438z"/>
  </g>
  <g>
   <path id="6" class="fil7 str1" d="M41115 17626l0 -2526 310 0 0 909c144,-169 326,-253 546,-253 135,0 252,27 352,80 99,54 170,127 213,221 43,94 64,231 64,410l0 1159 -310 0 0 -1158c0,-154 -34,-267 -100,-338 -67,-70 -161,-106 -284,-106 -91,0 -177,24 -257,71 -81,48 -138,113 -173,194 -34,82 -51,194 -51,337l0 1000 -310 0z"/>
  </g>
  <text x="31665" y="17626" id="6" class="fil9 fnt0">publish</text>
  <rect class="fil3 str0" x="100" y="12600" width="20000" height="10000"/>
  <text x="4026" y="17866"  class="fil2 fnt0">Client A</text>
  <text x="4287" y="20473"  class="fil9 fnt1">/lorem/ipsum/dolor</text>
 </g>
</svg>
