<?xml version="1.0" encoding="UTF-8"?>
<!DOCTYPE svg PUBLIC "-//W3C//DTD SVG 1.0//EN" "http://www.w3.org/TR/2001/REC-SVG-20010904/DTD/svg10.dtd">
<!-- Creator: CorelDRAW Home & Student X8 -->
<svg xmlns="http://www.w3.org/2000/svg" xml:space="preserve" width="100%" height="100%" version="1.0" style="shape-rendering:geometricPrecision; text-rendering:geometricPrecision; image-rendering:optimizeQuality; fill-rule:evenodd; clip-rule:evenodd"
viewBox="0 0 140200 25200"
 xmlns:xlink="http://www.w3.org/1999/xlink">
 <defs>
  <style type="text/css">
   <![CDATA[
    .str1 {stroke:white;stroke-width:500}
    .str0 {stroke:black;stroke-width:200}
    .fil8 {fill:none;fill-rule:nonzero}
    .fil1 {fill:black}
    .fil3 {fill:#00CCFF}
    .fil6 {fill:gray}
    .fil5 {fill:#CCFF66}
    .fil0 {fill:#E6E6E6}
    .fil7 {fill:#FF6600}
    .fil2 {fill:#FFFF99}
    .fil4 {fill:#FF6600;fill-rule:nonzero}
    .fil9 {fill:#FF6600;fill-rule:nonzero}
    .fnt1 {font-weight:normal;font-size:1411.1px;font-family:'Arial'}
    .fnt0 {font-weight:normal;font-size:3527.7px;font-family:'Arial'}
   ]]>
  </style>
 </defs>
 <g id="Ebene_x0020_1">
  <metadata id="CorelCorpID_0Corel-Layer"/>
  <rect class="fil0 str0" x="55100" y="100" width="30000" height="25000"/>
  <text x="65109" y="5648"  class="fil1 fnt0">MQTT</text>
  <text x="64910" y="9589"  class="fil1 fnt0">Broker</text>
  <rect class="fil2 str0" x="120100" y="12600" width="20000" height="10000"/>
  <text x="123929" y="17866"  class="fil1 fnt0">Client B</text>
  <text x="124287" y="20473"  class="fil3 fnt1">/lorem/ipsum/dolor</text>
  <g>
   <path class="fil4" d="M60094 17600l-3888 1944 0 -3888 3888 1944zm-39994 -750l36157 0 0 1500 -36157 0 0 -1500z"/>
  </g>
  <rect class="fil2 str0" x="100" y="12600" width="20000" height="10000"/>
  <text x="3929" y="17866"  class="fil1 fnt0">Client X</text>
  <rect class="fil5 str0" x="60100" y="12600" width="20000" height="10000" rx="2000" ry="2000"/>
  <text x="64516" y="17866"  class="fil1 fnt0">Topic 1</text>
  <text x="67933" y="20473"  class="fil6 fnt1">/boring</text>
  <text x="7933" y="20473"  class="fil7 fnt1">/boring</text>
  <g>
   <path class="fil8 str1" d="M31898 18328l0 -2533 282 0 0 240c66,-92 142,-162 226,-209 83,-46 185,-70 304,-70 157,0 294,40 414,121 119,80 209,193 270,339 61,146 91,306 91,481 0,186 -33,354 -100,504 -67,150 -165,264 -293,344 -128,80 -262,120 -404,120 -103,0 -196,-22 -278,-66 -82,-43 -149,-98 -202,-164l0 893 -310 0zm282 -1606c0,234 48,408 142,520 95,112 211,169 346,169 137,0 255,-59 353,-175 98,-116 147,-296 147,-540 0,-233 -48,-407 -144,-523 -96,-116 -210,-173 -343,-173 -131,0 -248,61 -349,184 -102,124 -152,302 -152,538z"/>
  </g>
  <g>
   <path id="1" class="fil8 str1" d="M35056 17626l0 -272c-143,207 -336,311 -580,311 -107,0 -208,-21 -301,-62 -94,-42 -163,-94 -208,-156 -46,-63 -77,-139 -96,-230 -12,-61 -18,-157 -18,-289l0 -1133 310 0 0 1013c0,162 7,271 19,327 19,82 60,145 124,192 63,46 140,70 233,70 93,0 180,-24 261,-72 82,-47 139,-112 173,-194 34,-82 51,-201 51,-357l0 -979 310 0 0 1831 -278 0z"/>
  </g>
  <g>
   <path id="2" class="fil8 str1" d="M36107 17626l-289 0 0 -2526 311 0 0 901c131,-163 298,-245 501,-245 112,0 219,23 320,68 100,45 183,109 248,191 65,82 116,181 152,297 37,115 56,239 56,371 0,313 -78,555 -233,725 -155,171 -341,257 -558,257 -215,0 -385,-90 -508,-270l0 231zm-3 -929c0,219 30,377 89,474 98,160 230,240 396,240 136,0 253,-59 351,-177 99,-117 148,-293 148,-525 0,-239 -47,-415 -142,-528 -94,-114 -209,-171 -343,-171 -136,0 -253,59 -351,177 -99,117 -148,287 -148,510z"/>
  </g>
  <g>
   <polygon id="3" class="fil8 str1" points="37777,17626 37777,15100 38087,15100 38087,17626 "/>
  </g>
  <g>
   <path id="4" class="fil8 str1" d="M38567 15453l0 -353 311 0 0 353 -311 0zm0 2173l0 -1831 311 0 0 1831 -311 0z"/>
  </g>
  <g>
   <path id="5" class="fil8 str1" d="M39228 17079l307 -49c17,123 65,217 144,282 78,66 189,99 330,99 143,0 249,-29 318,-87 69,-58 104,-126 104,-204 0,-70 -32,-126 -93,-166 -44,-27 -150,-62 -318,-105 -227,-57 -384,-106 -472,-148 -88,-42 -154,-100 -199,-174 -46,-74 -68,-155 -68,-245 0,-81 18,-157 55,-226 38,-69 89,-127 153,-173 48,-35 114,-65 197,-90 83,-24 172,-37 267,-37 144,0 269,21 378,62 108,42 188,98 240,169 51,71 87,165 106,284l-303 43c-13,-96 -53,-170 -119,-224 -66,-53 -159,-80 -280,-80 -141,0 -243,24 -303,71 -61,47 -92,102 -92,165 0,40 13,76 38,109 25,33 65,60 119,82 31,12 121,38 273,79 219,59 372,107 459,144 87,37 155,92 204,162 50,71 75,159 75,265 0,103 -30,200 -90,291 -61,91 -148,162 -262,212 -114,50 -242,75 -386,75 -237,0 -419,-50 -544,-148 -124,-99 -204,-245 -238,-438z"/>
  </g>
  <g>
   <path id="6" class="fil8 str1" d="M41115 17626l0 -2526 310 0 0 909c144,-169 326,-253 546,-253 135,0 252,27 352,80 99,54 170,127 213,221 43,94 64,231 64,410l0 1159 -310 0 0 -1158c0,-154 -34,-267 -100,-338 -67,-70 -161,-106 -284,-106 -91,0 -177,24 -257,71 -81,48 -138,113 -173,194 -34,82 -51,194 -51,337l0 1000 -310 0z"/>
  </g>
  <text x="31665" y="17626" id="6" class="fil7 fnt0">publish</text>
  <path class="fil9" d="M79753 17429l-319 0 0 3676c0,67 -13,129 -38,187 -24,59 -59,109 -102,153 -44,43 -94,77 -153,102 -58,25 -120,38 -186,38l-2558 0c-67,0 -130,-13 -188,-38 -58,-25 -109,-59 -152,-102 -44,-44 -78,-94 -102,-153 -25,-58 -38,-120 -38,-187l0 -3676 -320 0 0 -320 1279 0 0 -320c0,-45 9,-87 25,-124 17,-39 40,-73 69,-102 29,-29 63,-52 101,-69 38,-16 80,-25 125,-25l959 0c45,0 87,9 124,25 39,17 73,40 102,69 29,29 52,63 69,102 16,37 25,79 25,124l0 320 1278 0 0 320zm-2557 -320l959 0 0 -320 -959 0 0 320zm1918 320l-2877 0 0 3676c0,43 16,81 47,112 32,32 70,48 113,48l2558 0c42,0 80,-16 111,-48 32,-31 48,-69 48,-112l0 -3676zm-1918 3197l-320 0 0 -2558 320 0 0 2558zm639 0l-319 0 0 -2558 319 0 0 2558zm640 0l-320 0 0 -2558 320 0 0 2558z"/>
 </g>
</svg>
