<?xml version="1.0" encoding="UTF-8"?>
<!DOCTYPE svg PUBLIC "-//W3C//DTD SVG 1.0//EN" "http://www.w3.org/TR/2001/REC-SVG-20010904/DTD/svg10.dtd">
<!-- Creator: CorelDRAW Home & Student X8 -->
<svg xmlns="http://www.w3.org/2000/svg" xml:space="preserve" width="100%" height="100%" version="1.0" style="shape-rendering:geometricPrecision; text-rendering:geometricPrecision; image-rendering:optimizeQuality; fill-rule:evenodd; clip-rule:evenodd"
viewBox="0 0 140200 45200"
 xmlns:xlink="http://www.w3.org/1999/xlink">
 <defs>
  <style type="text/css">
   <![CDATA[
    .str1 {stroke:white;stroke-width:500}
    .str0 {stroke:black;stroke-width:200}
    .fil5 {fill:none;fill-rule:nonzero}
    .fil1 {fill:black}
    .fil6 {fill:#00CCFF}
    .fil9 {fill:gray}
    .fil8 {fill:#CCFF66}
    .fil0 {fill:#E6E6E6}
    .fil4 {fill:#FF6600}
    .fil3 {fill:#FFFF99}
    .fil7 {fill:#00CCFF;fill-rule:nonzero}
    .fil2 {fill:#FF6600;fill-rule:nonzero}
    .fnt1 {font-weight:normal;font-size:1411.1px;font-family:'Arial'}
    .fnt0 {font-weight:normal;font-size:3527.7px;font-family:'Arial'}
   ]]>
  </style>
 </defs>
 <g id="Ebene_x0020_1">
  <metadata id="CorelCorpID_0Corel-Layer"/>
  <rect class="fil0 str0" x="55100" y="100" width="30000" height="40000"/>
  <text x="65109" y="5648"  class="fil1 fnt0">MQTT</text>
  <text x="64910" y="9589"  class="fil1 fnt0">Broker</text>
  <g>
   <path class="fil2" d="M60094 20100l-3759 2183 -242 -3880 4001 1697zm-40041 1751l36165 -2260 94 1497 -36165 2260 -94 -1497z"/>
  </g>
  <g>
   <path class="fil2" d="M60094 30100l-4001 1697 242 -3880 3759 2183zm-39947 -3249l36165 2261 -94 1497 -36165 -2261 94 -1497z"/>
  </g>
  <rect class="fil3 str0" x="100" y="20100" width="20000" height="10000"/>
  <text x="3832" y="25366"  class="fil1 fnt0">Client C</text>
  <text x="4393" y="27600"  class="fil4 fnt1">/lorem/ipsum/dolor</text>
  <text x="5273" y="28850"  class="fil4 fnt1">/lorem/ipsum/sit</text>
  <g>
   <path class="fil5 str1" d="M33774 21968l-176 -2523 282 -20 17 237c60,-97 130,-172 210,-224 80,-52 180,-83 299,-91 156,-11 296,19 421,91 124,72 222,179 293,321 71,141 113,299 124,473 14,187 -8,357 -65,511 -56,155 -146,276 -267,364 -123,89 -254,138 -395,148 -103,7 -197,-8 -282,-46 -85,-38 -156,-88 -213,-151l62 888 -310 22zm169 -1620c16,234 76,404 179,510 103,105 222,154 357,144 137,-9 251,-76 340,-199 90,-123 127,-307 110,-551 -17,-232 -77,-402 -180,-512 -104,-108 -223,-158 -356,-149 -131,9 -243,79 -336,209 -93,130 -131,313 -114,548z"/>
  </g>
  <g>
   <path id="1" class="fil5 str1" d="M36878 21048l-19 -267c-127,215 -313,332 -557,349 -107,7 -209,-6 -305,-41 -97,-34 -169,-81 -219,-141 -49,-59 -86,-133 -111,-222 -17,-60 -30,-156 -39,-288l-79 -1130 309 -21 71 1012c11,161 25,269 41,325 25,80 71,140 137,182 66,42 146,60 238,53 93,-6 179,-36 257,-89 77,-53 131,-122 159,-206 28,-84 37,-204 25,-360l-68 -977 309 -22 128 1824 -277 19z"/>
  </g>
  <g>
   <path id="2" class="fil5 str1" d="M37925 20975l-287 20 -175 -2517 309 -22 63 898c118,-173 280,-267 482,-281 112,-7 220,8 323,46 104,38 191,96 261,174 70,77 128,172 172,285 45,113 72,236 82,367 21,312 -39,559 -181,741 -143,182 -323,280 -539,295 -215,15 -390,-63 -526,-234l16 228zm-68 -925c15,219 57,374 123,467 108,153 245,223 411,211 136,-9 248,-76 339,-200 89,-124 126,-303 110,-535 -16,-238 -76,-411 -178,-517 -102,-107 -221,-156 -355,-146 -135,9 -248,76 -338,200 -90,124 -127,298 -112,520z"/>
  </g>
  <g>
   <polygon id="3" class="fil5 str1" points="39591,20859 39414,18341 39724,18319 39900,20837 "/>
  </g>
  <g>
   <path id="4" class="fil5 str1" d="M40230 18641l-25 -355 309 -22 25 356 -309 21zm151 2162l-128 -1824 310 -21 127 1823 -309 22z"/>
  </g>
  <g>
   <path id="5" class="fil5 str1" d="M40999 20213l302 -69c26,121 81,211 164,271 83,60 194,85 336,75 141,-10 245,-46 309,-109 65,-62 94,-133 89,-210 -5,-70 -39,-123 -102,-159 -45,-24 -152,-52 -324,-82 -231,-42 -391,-80 -482,-116 -90,-36 -160,-89 -211,-160 -50,-70 -78,-150 -85,-239 -5,-82 8,-159 40,-230 32,-72 79,-133 140,-184 46,-39 109,-73 191,-103 81,-31 169,-50 264,-56 143,-10 270,2 381,35 111,34 195,84 252,151 56,67 98,158 125,275l-299 63c-20,-93 -65,-164 -134,-212 -70,-48 -164,-68 -285,-59 -142,9 -242,40 -299,91 -57,51 -84,109 -80,171 3,40 19,76 46,106 27,31 69,56 124,74 32,9 125,29 279,60 222,43 379,80 467,111 90,32 161,81 216,149 54,67 84,153 92,259 7,103 -17,202 -70,297 -54,95 -136,172 -246,230 -109,57 -236,91 -379,101 -237,17 -421,-20 -552,-110 -131,-89 -221,-230 -269,-421z"/>
  </g>
  <g>
   <path id="6" class="fil5 str1" d="M42920 20626l-175 -2518 309 -21 63 903c133,-177 308,-274 528,-289 136,-9 255,9 358,55 103,46 180,115 229,206 49,91 81,225 93,404l81 1156 -309 21 -81 -1155c-11,-155 -52,-265 -124,-331 -72,-65 -169,-94 -291,-85 -92,6 -177,36 -254,89 -77,53 -130,122 -159,205 -29,84 -38,197 -28,341l70 997 -310 22z"/>
  </g>
  <g transform="matrix(0.997564 -0.0697565 0.0697565 0.997564 43005.9 -14565.9)">
   <text x="-11990" y="35100" id="6" class="fil4 fnt0">publish</text>
  </g>
  <g>
   <path class="fil5 str1" d="M33774 28731l177 -2523 282 20 -17 237c73,-89 153,-153 240,-193 86,-41 189,-57 309,-48 155,10 290,60 404,148 113,89 195,209 245,358 51,151 70,313 57,487 -13,187 -58,352 -135,497 -78,145 -183,252 -316,323 -133,70 -270,101 -411,91 -103,-7 -194,-35 -273,-85 -79,-48 -142,-108 -190,-178l-62 887 -310 -21zm393 -1581c-17,235 18,411 106,530 87,119 198,183 333,193 137,9 259,-41 365,-150 106,-109 168,-286 185,-530 16,-232 -20,-410 -107,-532 -87,-122 -198,-188 -331,-197 -132,-9 -252,44 -362,160 -110,116 -173,291 -189,526z"/>
  </g>
  <g>
   <path id="1" class="fil5 str1" d="M36976 28253l19 -269c-157,197 -357,286 -601,269 -107,-8 -206,-35 -297,-83 -90,-47 -156,-104 -197,-170 -41,-66 -67,-144 -79,-235 -8,-62 -8,-159 1,-290l80 -1130 308 21 -70 1012c-11,161 -13,270 -4,327 14,83 50,150 110,201 59,50 136,79 229,85 93,7 181,-11 266,-53 84,-42 147,-102 186,-182 39,-79 65,-197 75,-352l69 -978 309 22 -127 1824 -277 -19z"/>
  </g>
  <g>
   <path id="2" class="fil5 str1" d="M38023 28326l-287 -21 176 -2517 310 22 -63 898c141,-155 314,-225 516,-211 113,8 217,38 315,90 97,53 174,121 234,208 58,86 102,189 131,307 28,118 38,243 28,375 -21,312 -115,548 -282,708 -166,160 -358,233 -574,217 -215,-15 -378,-117 -488,-305l-16 229zm61 -926c-15,219 4,379 56,480 87,166 213,255 378,267 136,9 257,-42 363,-152 107,-111 168,-282 185,-515 16,-238 -18,-417 -105,-537 -87,-120 -197,-185 -331,-194 -135,-9 -256,41 -362,152 -107,110 -168,277 -184,499z"/>
  </g>
  <g>
   <polygon id="3" class="fil5 str1" points="39688,28442 39864,25925 40174,25946 39997,28464 "/>
  </g>
  <g>
   <path id="4" class="fil5 str1" d="M40630 26335l25 -355 309 21 -25 356 -309 -22zm-151 2162l127 -1823 309 21 -127 1824 -309 -22z"/>
  </g>
  <g>
   <path id="5" class="fil5 str1" d="M41173 27999l309 -27c9,124 50,221 124,292 73,71 181,111 322,121 142,10 250,-12 322,-65 73,-53 112,-118 117,-197 5,-69 -21,-126 -79,-171 -41,-30 -143,-73 -309,-127 -223,-72 -377,-133 -461,-181 -85,-48 -147,-110 -187,-187 -40,-77 -57,-160 -51,-250 6,-81 30,-155 72,-222 42,-66 96,-120 164,-162 51,-32 118,-57 203,-76 85,-19 175,-25 270,-18 143,10 267,39 372,88 105,49 182,110 228,184 46,74 75,171 87,290l-306 20c-7,-95 -41,-171 -103,-228 -62,-57 -154,-90 -274,-98 -142,-10 -245,6 -309,48 -64,43 -98,96 -102,159 -3,40 7,77 30,111 23,35 60,65 113,91 30,13 119,46 267,97 215,74 364,133 448,176 84,43 148,103 192,177 44,74 63,164 55,270 -7,102 -44,197 -110,284 -67,87 -158,151 -275,193 -117,42 -247,58 -390,48 -237,-17 -414,-79 -532,-186 -117,-107 -186,-258 -207,-454z"/>
  </g>
  <g>
   <path id="6" class="fil5 str1" d="M43018 28675l176 -2517 310 21 -64 903c156,-157 344,-228 564,-212 135,9 250,44 346,104 96,60 163,139 198,236 37,96 49,235 36,413l-80 1156 -309 -22 81 -1155c10,-155 -16,-270 -77,-345 -63,-75 -155,-117 -277,-126 -92,-6 -180,12 -264,54 -84,41 -145,102 -186,181 -40,79 -65,190 -75,333l-70 997 -309 -21z"/>
  </g>
  <g transform="matrix(0.997564 0.0697565 -0.0697565 0.997564 48000.4 -6162.49)">
   <text x="-11990" y="35100" id="6" class="fil4 fnt0">publish</text>
  </g>
  <g>
   <path class="fil2" d="M60094 35100l-3759 2183 -242 -3880 4001 1697zm-40041 1751l36165 -2260 94 1497 -36165 2260 -94 -1497z"/>
  </g>
  <rect class="fil3 str0" x="100" y="35100" width="20000" height="10000"/>
  <text x="3929" y="40365"  class="fil1 fnt0">Client E</text>
  <text x="5167" y="42600"  class="fil4 fnt1">/lorem/ipsum/sit</text>
  <text x="6382" y="43982"  class="fil6 fnt1">/lorem/amet</text>
  <g>
   <path class="fil5 str1" d="M33828 37048l-177 -2523 282 -19 17 237c60,-98 130,-172 210,-225 80,-51 180,-82 299,-90 156,-11 296,19 421,91 125,72 222,179 293,320 71,142 113,300 124,474 14,187 -8,357 -65,511 -56,154 -146,275 -267,364 -123,88 -254,138 -395,148 -103,7 -197,-9 -282,-46 -85,-38 -156,-88 -213,-151l62 888 -309 21zm168 -1619c16,234 76,404 179,510 103,105 222,153 357,144 137,-9 251,-76 340,-199 90,-123 127,-307 110,-551 -17,-232 -77,-402 -180,-512 -104,-109 -222,-159 -355,-149 -132,9 -244,79 -337,209 -93,130 -131,312 -114,548z"/>
  </g>
  <g>
   <path id="1" class="fil5 str1" d="M36931 36129l-19 -268c-127,216 -312,333 -556,350 -108,7 -210,-6 -306,-41 -96,-35 -169,-82 -219,-141 -49,-59 -86,-134 -111,-222 -17,-60 -30,-156 -39,-288l-79 -1130 309 -22 71 1012c11,161 25,270 42,325 24,80 70,141 137,183 65,42 145,60 238,53 93,-6 178,-36 256,-89 78,-54 131,-122 159,-207 28,-84 37,-204 26,-359l-69 -978 310 -21 127 1823 -277 20z"/>
  </g>
  <g>
   <path id="2" class="fil5 str1" d="M37978 36056l-287 20 -175 -2517 309 -22 63 898c119,-173 280,-267 482,-281 112,-8 220,8 323,46 104,38 191,96 261,173 70,77 128,173 173,286 44,113 71,235 81,367 21,312 -39,559 -181,741 -143,182 -322,280 -539,294 -215,16 -390,-63 -525,-234l15 229zm-68 -925c15,218 57,374 123,467 108,152 245,223 412,211 135,-9 247,-76 338,-200 90,-124 127,-303 110,-535 -16,-238 -76,-411 -178,-518 -102,-106 -220,-155 -354,-146 -136,10 -249,77 -338,201 -91,124 -128,297 -113,520z"/>
  </g>
  <g>
   <polygon id="3" class="fil5 str1" points="39644,35939 39468,33422 39777,33400 39953,35917 "/>
  </g>
  <g>
   <path id="4" class="fil5 str1" d="M40283 33722l-25 -356 309 -21 25 355 -309 22zm151 2162l-128 -1824 310 -22 127 1824 -309 22z"/>
  </g>
  <g>
   <path id="5" class="fil5 str1" d="M41052 35294l303 -70c25,121 80,212 163,272 83,60 195,85 336,75 141,-10 245,-46 310,-109 64,-63 94,-133 88,-211 -4,-70 -38,-123 -102,-158 -45,-24 -152,-52 -323,-83 -231,-41 -392,-80 -482,-116 -91,-35 -161,-88 -212,-159 -50,-70 -78,-150 -85,-240 -5,-81 8,-158 40,-230 33,-71 80,-133 140,-183 46,-39 109,-74 191,-103 81,-31 169,-50 264,-56 143,-10 270,1 381,35 111,34 195,84 252,151 56,66 98,158 126,275l-300 62c-20,-92 -65,-163 -134,-211 -70,-48 -164,-68 -285,-60 -142,10 -241,40 -299,92 -57,51 -84,108 -79,171 2,40 18,76 45,105 27,32 69,57 124,75 32,9 125,29 279,59 222,44 379,81 468,112 89,31 160,81 215,148 54,67 84,154 92,260 7,103 -16,201 -70,297 -54,95 -136,171 -246,229 -109,58 -236,92 -379,102 -237,17 -421,-20 -552,-110 -131,-90 -220,-230 -269,-421z"/>
  </g>
  <g>
   <path id="6" class="fil5 str1" d="M42973 35706l-175 -2517 309 -21 63 903c133,-177 309,-274 528,-289 136,-9 255,9 358,55 103,46 180,115 229,205 50,91 81,226 93,405l81 1156 -309 21 -81 -1155c-11,-155 -52,-265 -124,-331 -72,-66 -169,-94 -291,-86 -92,7 -177,36 -254,90 -77,53 -130,121 -159,205 -29,83 -38,197 -28,340l70 998 -310 21z"/>
  </g>
  <g transform="matrix(0.997564 -0.0697565 0.0697565 0.997564 43059 514.807)">
   <text x="-11990" y="35100" id="6" class="fil4 fnt0">publish</text>
  </g>
  <g>
   <path class="fil2" d="M60094 15099l-4099 1447 482 -3858 3617 2411zm-39901 -5743l36187 4523 -186 1489 -36187 -4524 186 -1488z"/>
  </g>
  <rect class="fil3 str0" x="100" y="5100" width="20000" height="10000"/>
  <text x="4026" y="10366"  class="fil1 fnt0">Client A</text>
  <text x="4287" y="12973"  class="fil4 fnt1">/lorem/ipsum/dolor</text>
  <g>
   <path class="fil5 str1" d="M33712 12037l308 -2509 280 34 -29 235c77,-84 161,-144 250,-180 89,-35 192,-46 311,-32 154,19 286,76 395,170 109,95 185,218 227,370 42,153 53,316 32,490 -23,185 -77,348 -162,489 -85,140 -195,242 -332,305 -137,65 -276,87 -415,71 -103,-13 -193,-46 -269,-99 -76,-54 -136,-117 -180,-189l-109 883 -307 -38zm474 -1558c-29,234 -3,412 78,535 81,123 189,193 323,210 137,17 261,-27 372,-130 112,-104 183,-277 213,-520 28,-231 1,-410 -79,-537 -81,-127 -188,-198 -320,-214 -131,-16 -255,31 -370,141 -116,110 -189,281 -217,515z"/>
  </g>
  <g>
   <path id="1" class="fil5 str1" d="M36934 11727l33 -267c-167,188 -371,267 -614,237 -107,-13 -205,-45 -292,-98 -88,-52 -151,-112 -188,-180 -38,-67 -60,-147 -67,-240 -5,-61 1,-158 17,-289l138 -1125 307 39 -123 1006c-20,161 -27,269 -21,326 9,84 42,153 99,206 57,54 132,87 224,98 92,12 182,-1 269,-39 86,-37 151,-95 195,-172 43,-77 74,-194 94,-348l119 -973 308 39 -223 1814 -275 -34z"/>
  </g>
  <g>
   <path id="2" class="fil5 str1" d="M37976 11855l-286 -35 308 -2505 308 38 -110 893c150,-147 325,-207 527,-183 112,14 215,49 309,107 94,57 168,130 223,220 54,89 92,193 114,313 22,119 26,245 10,376 -39,311 -145,541 -320,692 -174,151 -369,213 -584,187 -215,-26 -372,-136 -472,-330l-27 227zm109 -921c-26,217 -16,378 31,482 78,170 199,265 364,286 134,16 258,-28 370,-132 112,-105 183,-273 211,-504 29,-237 4,-418 -76,-542 -80,-124 -187,-195 -321,-211 -134,-17 -257,27 -370,132 -112,105 -182,267 -209,489z"/>
  </g>
  <g>
   <polygon id="3" class="fil5 str1" points="39633,12059 39940,9553 40248,9591 39940,12096 "/>
  </g>
  <g>
   <path id="4" class="fil5 str1" d="M40683 10004l43 -354 308 38 -43 354 -308 -38zm-264 2151l223 -1815 307 38 -223 1815 -307 -38z"/>
  </g>
  <g>
   <path id="5" class="fil5 str1" d="M41138 11693l311 -10c2,124 38,223 108,298 70,74 175,120 315,138 141,17 249,1 325,-48 76,-49 118,-113 127,-190 9,-70 -14,-128 -70,-175 -39,-33 -139,-81 -301,-143 -219,-85 -370,-153 -451,-206 -83,-52 -141,-117 -177,-196 -37,-80 -49,-164 -38,-252 10,-81 38,-154 83,-218 45,-65 103,-116 172,-153 53,-30 121,-52 207,-66 85,-14 175,-16 270,-4 142,17 265,53 368,107 102,55 175,120 218,197 42,75 66,174 71,293l-306 5c-2,-96 -33,-173 -92,-234 -59,-60 -148,-98 -268,-113 -141,-17 -244,-6 -311,33 -66,40 -103,91 -110,153 -5,40 3,78 24,112 21,37 57,69 108,97 29,15 116,53 262,112 210,85 357,151 438,199 81,48 142,109 183,186 39,77 54,167 41,272 -13,103 -55,196 -125,279 -72,83 -166,142 -285,178 -119,36 -250,45 -392,27 -236,-28 -409,-100 -521,-212 -112,-114 -173,-269 -184,-466z"/>
  </g>
  <g>
   <path id="6" class="fil5 str1" d="M42945 12465l308 -2504 308 37 -110 899c164,-149 355,-210 573,-183 135,17 248,57 341,123 93,65 154,147 186,245 31,99 36,237 14,415l-141 1150 -308 -38 141 -1150c19,-154 0,-270 -59,-348 -57,-78 -147,-125 -269,-140 -92,-11 -180,2 -266,40 -86,37 -151,94 -195,171 -45,76 -75,186 -93,328l-122 993 -308 -38z"/>
  </g>
  <g transform="matrix(0.992546 0.121869 -0.121869 0.992546 49744.3 -22063.6)">
   <text x="-11990" y="35100" id="6" class="fil4 fnt0">publish</text>
  </g>
  <rect class="fil3 str0" x="120100" y="12600" width="20000" height="10000"/>
  <text x="123929" y="17866"  class="fil1 fnt0">Client B</text>
  <rect class="fil3 str0" x="120100" y="27600" width="20000" height="10000"/>
  <text x="124028" y="32866"  class="fil1 fnt0">Client F</text>
  <text x="124287" y="20473"  class="fil6 fnt1">/lorem/ipsum/dolor</text>
  <text x="125469" y="35100"  class="fil6 fnt1">/lorem/ipsum/sit</text>
  <text x="126684" y="36482"  class="fil4 fnt1">/lorem/amet</text>
  <g>
   <path class="fil7" d="M120094 17536l-3888 1944 0 -3888 3888 1944zm-39994 -751l36157 1 0 1500 -36157 -1 0 -1500z"/>
  </g>
  <g>
   <path class="fil5 str1" d="M92600 17014l307 -49c17,123 65,217 144,283 79,65 189,98 330,98 143,0 249,-29 319,-87 68,-58 103,-126 103,-204 0,-70 -31,-125 -93,-165 -43,-28 -149,-63 -317,-105 -227,-57 -384,-107 -472,-149 -88,-42 -155,-100 -200,-174 -45,-73 -68,-155 -68,-244 0,-82 19,-157 56,-227 38,-69 88,-127 152,-172 48,-36 114,-66 197,-90 84,-25 172,-37 268,-37 143,0 269,20 377,62 109,41 189,97 241,168 51,71 87,166 106,285l-303 42c-14,-95 -54,-170 -120,-223 -66,-54 -158,-80 -279,-80 -142,0 -243,23 -304,70 -61,47 -91,102 -91,165 0,40 12,77 38,109 25,33 64,61 118,82 31,12 122,39 274,80 218,58 371,106 458,143 87,37 155,92 205,163 50,71 75,159 75,265 0,103 -30,200 -91,291 -61,91 -148,161 -261,211 -114,50 -243,75 -386,75 -238,0 -420,-49 -544,-148 -125,-98 -204,-244 -239,-438z"/>
  </g>
  <g>
   <path id="1" class="fil5 str1" d="M95683 17561l0 -272c-142,208 -335,311 -579,311 -107,0 -208,-21 -301,-62 -94,-41 -163,-93 -209,-155 -45,-63 -77,-140 -95,-230 -12,-62 -19,-158 -19,-290l0 -1133 311 0 0 1013c0,162 6,271 19,327 19,82 60,146 124,192 63,46 140,70 233,70 93,0 180,-24 261,-71 81,-48 139,-113 173,-195 33,-82 51,-201 51,-357l0 -979 310 0 0 1831 -279 0z"/>
  </g>
  <g>
   <path id="2" class="fil5 str1" d="M96735 17561l-289 0 0 -2526 310 0 0 902c131,-164 298,-245 502,-245 112,0 219,22 320,67 100,45 183,110 248,191 64,83 116,181 152,297 37,115 55,239 55,371 0,313 -77,555 -232,726 -155,171 -341,256 -558,256 -216,0 -385,-90 -508,-269l0 230zm-3 -929c0,219 30,377 89,475 98,159 229,239 396,239 135,0 252,-59 351,-176 98,-118 148,-293 148,-526 0,-239 -47,-414 -142,-528 -95,-113 -209,-170 -343,-170 -136,0 -253,58 -351,176 -99,118 -148,287 -148,510z"/>
  </g>
  <g>
   <path id="3" class="fil5 str1" d="M98288 17014l307 -49c17,123 65,217 144,283 79,65 189,98 330,98 143,0 249,-29 318,-87 69,-58 104,-126 104,-204 0,-70 -31,-125 -93,-165 -44,-28 -149,-63 -318,-105 -226,-57 -383,-107 -472,-149 -87,-42 -154,-100 -199,-174 -45,-73 -68,-155 -68,-244 0,-82 19,-157 56,-227 37,-69 88,-127 152,-172 48,-36 114,-66 197,-90 83,-25 172,-37 267,-37 144,0 270,20 378,62 109,41 189,97 240,168 52,71 87,166 107,285l-304 42c-13,-95 -53,-170 -119,-223 -66,-54 -159,-80 -279,-80 -142,0 -244,23 -304,70 -61,47 -91,102 -91,165 0,40 12,77 37,109 26,33 65,61 119,82 31,12 122,39 273,80 219,58 372,106 459,143 87,37 155,92 205,163 50,71 74,159 74,265 0,103 -30,200 -90,291 -61,91 -148,161 -261,211 -114,50 -243,75 -387,75 -237,0 -419,-49 -543,-148 -125,-98 -204,-244 -239,-438z"/>
  </g>
  <g>
   <path id="4" class="fil5 str1" d="M101371 16891l303 42c-33,209 -118,372 -255,490 -137,118 -305,177 -505,177 -250,0 -451,-82 -602,-245 -153,-164 -229,-398 -229,-702 0,-198 33,-370 99,-518 65,-148 164,-259 298,-332 134,-74 279,-111 437,-111 198,0 361,50 486,150 127,101 208,243 243,428l-300 46c-28,-123 -79,-215 -152,-278 -73,-61 -162,-92 -265,-92 -156,0 -283,55 -382,167 -97,112 -146,289 -146,531 0,246 47,424 141,535 95,111 218,167 369,167 122,0 224,-37 305,-112 82,-74 133,-188 155,-343z"/>
  </g>
  <g>
   <path id="5" class="fil5 str1" d="M101935 17561l0 -1831 279 0 0 281c71,-130 137,-216 198,-257 60,-42 127,-62 199,-62 105,0 211,32 319,98l-110 286c-76,-42 -151,-63 -226,-63 -68,0 -128,20 -182,61 -53,40 -91,97 -114,169 -35,110 -52,231 -52,362l0 956 -311 0z"/>
  </g>
  <g>
   <path id="6" class="fil5 str1" d="M103114 15388l0 -353 310 0 0 353 -310 0zm0 2173l0 -1831 310 0 0 1831 -310 0z"/>
  </g>
  <g>
   <path id="7" class="fil5 str1" d="M104183 17561l-289 0 0 -2526 310 0 0 902c131,-164 298,-245 502,-245 112,0 219,22 320,67 100,45 183,110 248,191 64,83 116,181 152,297 37,115 55,239 55,371 0,313 -77,555 -232,726 -155,171 -341,256 -558,256 -216,0 -385,-90 -508,-269l0 230zm-3 -929c0,219 30,377 89,475 98,159 229,239 396,239 135,0 252,-59 351,-176 98,-118 148,-293 148,-526 0,-239 -47,-414 -142,-528 -95,-113 -209,-170 -343,-170 -136,0 -253,58 -351,176 -99,118 -148,287 -148,510z"/>
  </g>
  <g>
   <path id="8" class="fil5 str1" d="M107108 16969l321 42c-50,186 -143,332 -280,434 -136,103 -310,155 -522,155 -267,0 -479,-82 -635,-247 -157,-164 -235,-395 -235,-692 0,-307 79,-546 237,-715 158,-170 363,-254 616,-254 244,0 443,82 598,249 154,166 232,400 232,702 0,18 -1,46 -2,82l-1363 0c11,201 68,355 170,461 102,107 229,160 382,160 113,0 210,-30 290,-90 81,-60 144,-156 191,-287zm-1016 -498l1020 0c-14,-154 -53,-269 -117,-346 -98,-119 -227,-179 -384,-179 -142,0 -261,47 -358,142 -97,96 -150,223 -161,383z"/>
  </g>
  <g transform="matrix(1 0 0 1 106440 -17538.8)">
   <text x="-13949" y="35100" id="8" class="fil6 fnt0">subscribe</text>
  </g>
  <g>
   <path class="fil7" d="M120094 32536l-3888 1944 0 -3888 3888 1944zm-39994 -751l36157 1 0 1500 -36157 -1 0 -1500z"/>
  </g>
  <g>
   <path class="fil5 str1" d="M92600 32014l307 -49c17,123 65,217 144,283 79,65 189,98 330,98 143,0 249,-29 319,-87 68,-58 103,-126 103,-204 0,-70 -31,-125 -93,-165 -43,-28 -149,-63 -317,-105 -227,-57 -384,-107 -472,-149 -88,-42 -155,-100 -200,-174 -45,-73 -68,-155 -68,-244 0,-82 19,-157 56,-227 38,-69 88,-127 152,-172 48,-36 114,-66 197,-90 84,-25 172,-37 268,-37 143,0 269,20 377,62 109,41 189,97 241,168 51,71 87,166 106,285l-303 42c-14,-95 -54,-170 -120,-223 -66,-54 -158,-80 -279,-80 -142,0 -243,23 -304,70 -61,47 -91,102 -91,165 0,40 12,77 38,109 25,33 64,61 118,82 31,12 122,39 274,80 218,58 371,106 458,143 87,37 155,92 205,163 50,71 75,159 75,265 0,103 -30,200 -91,291 -61,91 -148,161 -261,211 -114,50 -243,75 -386,75 -238,0 -420,-49 -544,-148 -125,-98 -204,-244 -239,-438z"/>
  </g>
  <g>
   <path id="1" class="fil5 str1" d="M95683 32561l0 -272c-142,208 -335,311 -579,311 -107,0 -208,-21 -301,-62 -94,-41 -163,-93 -209,-155 -45,-63 -77,-140 -95,-230 -12,-62 -19,-158 -19,-290l0 -1133 311 0 0 1013c0,162 6,271 19,327 19,82 60,146 124,192 63,46 140,70 233,70 93,0 180,-24 261,-71 81,-48 139,-113 173,-195 33,-82 51,-201 51,-357l0 -979 310 0 0 1831 -279 0z"/>
  </g>
  <g>
   <path id="2" class="fil5 str1" d="M96735 32561l-289 0 0 -2526 310 0 0 902c131,-164 298,-245 502,-245 112,0 219,22 320,67 100,45 183,110 248,191 64,83 116,181 152,297 37,115 55,239 55,371 0,313 -77,555 -232,726 -155,171 -341,256 -558,256 -216,0 -385,-90 -508,-269l0 230zm-3 -929c0,219 30,377 89,475 98,159 229,239 396,239 135,0 252,-59 351,-176 98,-118 148,-293 148,-526 0,-239 -47,-414 -142,-528 -95,-113 -209,-170 -343,-170 -136,0 -253,58 -351,176 -99,118 -148,287 -148,510z"/>
  </g>
  <g>
   <path id="3" class="fil5 str1" d="M98288 32014l307 -49c17,123 65,217 144,283 79,65 189,98 330,98 143,0 249,-29 318,-87 69,-58 104,-126 104,-204 0,-70 -31,-125 -93,-165 -44,-28 -149,-63 -318,-105 -226,-57 -383,-107 -472,-149 -87,-42 -154,-100 -199,-174 -45,-73 -68,-155 -68,-244 0,-82 19,-157 56,-227 37,-69 88,-127 152,-172 48,-36 114,-66 197,-90 83,-25 172,-37 267,-37 144,0 270,20 378,62 109,41 189,97 240,168 52,71 87,166 107,285l-304 42c-13,-95 -53,-170 -119,-223 -66,-54 -159,-80 -279,-80 -142,0 -244,23 -304,70 -61,47 -91,102 -91,165 0,40 12,77 37,109 26,33 65,61 119,82 31,12 122,39 273,80 219,58 372,106 459,143 87,37 155,92 205,163 50,71 74,159 74,265 0,103 -30,200 -90,291 -61,91 -148,161 -261,211 -114,50 -243,75 -387,75 -237,0 -419,-49 -543,-148 -125,-98 -204,-244 -239,-438z"/>
  </g>
  <g>
   <path id="4" class="fil5 str1" d="M101371 31891l303 42c-33,209 -118,372 -255,490 -137,118 -305,177 -505,177 -250,0 -451,-82 -602,-245 -153,-164 -229,-398 -229,-702 0,-198 33,-370 99,-518 65,-148 164,-259 298,-332 134,-74 279,-111 437,-111 198,0 361,50 486,150 127,101 208,243 243,428l-300 46c-28,-123 -79,-215 -152,-278 -73,-61 -162,-92 -265,-92 -156,0 -283,55 -382,167 -97,112 -146,289 -146,531 0,246 47,424 141,535 95,111 218,167 369,167 122,0 224,-37 305,-112 82,-74 133,-188 155,-343z"/>
  </g>
  <g>
   <path id="5" class="fil5 str1" d="M101935 32561l0 -1831 279 0 0 281c71,-130 137,-216 198,-257 60,-42 127,-62 199,-62 105,0 211,32 319,98l-110 286c-76,-42 -151,-63 -226,-63 -68,0 -128,20 -182,61 -53,40 -91,97 -114,169 -35,110 -52,231 -52,362l0 956 -311 0z"/>
  </g>
  <g>
   <path id="6" class="fil5 str1" d="M103114 30388l0 -353 310 0 0 353 -310 0zm0 2173l0 -1831 310 0 0 1831 -310 0z"/>
  </g>
  <g>
   <path id="7" class="fil5 str1" d="M104183 32561l-289 0 0 -2526 310 0 0 902c131,-164 298,-245 502,-245 112,0 219,22 320,67 100,45 183,110 248,191 64,83 116,181 152,297 37,115 55,239 55,371 0,313 -77,555 -232,726 -155,171 -341,256 -558,256 -216,0 -385,-90 -508,-269l0 230zm-3 -929c0,219 30,377 89,475 98,159 229,239 396,239 135,0 252,-59 351,-176 98,-118 148,-293 148,-526 0,-239 -47,-414 -142,-528 -95,-113 -209,-170 -343,-170 -136,0 -253,58 -351,176 -99,118 -148,287 -148,510z"/>
  </g>
  <g>
   <path id="8" class="fil5 str1" d="M107108 31969l321 42c-50,186 -143,332 -280,434 -136,103 -310,155 -522,155 -267,0 -479,-82 -635,-247 -157,-164 -235,-395 -235,-692 0,-307 79,-546 237,-715 158,-170 363,-254 616,-254 244,0 443,82 598,249 154,166 232,400 232,702 0,18 -1,46 -2,82l-1363 0c11,201 68,355 170,461 102,107 229,160 382,160 113,0 210,-30 290,-90 81,-60 144,-156 191,-287zm-1016 -498l1020 0c-14,-154 -53,-269 -117,-346 -98,-119 -227,-179 -384,-179 -142,0 -261,47 -358,142 -97,96 -150,223 -161,383z"/>
  </g>
  <g transform="matrix(1 0 0 1 106440 -2538.81)">
   <text x="-13949" y="35100" id="8" class="fil6 fnt0">subscribe</text>
  </g>
  <rect class="fil8 str0" x="60100" y="12600" width="20000" height="10000" rx="2000" ry="2000"/>
  <text x="64516" y="17866"  class="fil1 fnt0">Topic 2</text>
  <text x="64287" y="20473"  class="fil9 fnt1">/lorem/ipsum/dolor</text>
  <rect class="fil8 str0" x="60100" y="27600" width="20000" height="10000" rx="2000" ry="2000"/>
  <text x="64516" y="32866"  class="fil1 fnt0">Topic 3</text>
  <text x="65166" y="35473"  class="fil9 fnt1">/lorem/ipsum/sit</text>
 </g>
</svg>
