<?xml version="1.0" encoding="UTF-8"?>
<!DOCTYPE svg PUBLIC "-//W3C//DTD SVG 1.0//EN" "http://www.w3.org/TR/2001/REC-SVG-20010904/DTD/svg10.dtd">
<!-- Creator: CorelDRAW Home & Student X8 -->
<svg xmlns="http://www.w3.org/2000/svg" xml:space="preserve" width="100%" height="100%" version="1.0" style="shape-rendering:geometricPrecision; text-rendering:geometricPrecision; image-rendering:optimizeQuality; fill-rule:evenodd; clip-rule:evenodd"
viewBox="0 0 140200 25200"
 xmlns:xlink="http://www.w3.org/1999/xlink">
 <defs>
  <style type="text/css">
   <![CDATA[
    .str1 {stroke:white;stroke-width:500}
    .str0 {stroke:black;stroke-width:200}
    .fil9 {fill:none;fill-rule:nonzero}
    .fil1 {fill:black}
    .fil7 {fill:#00CCFF}
    .fil5 {fill:gray}
    .fil4 {fill:#CCFF66}
    .fil0 {fill:#E6E6E6}
    .fil6 {fill:#FF6600}
    .fil3 {fill:#FFFF99}
    .fil8 {fill:#00CCFF;fill-rule:nonzero}
    .fil2 {fill:#FF6600;fill-rule:nonzero}
    .fnt1 {font-weight:normal;font-size:1411.1px;font-family:'Arial'}
    .fnt0 {font-weight:normal;font-size:3527.7px;font-family:'Arial'}
   ]]>
  </style>
 </defs>
 <g id="Ebene_x0020_1">
  <metadata id="CorelCorpID_0Corel-Layer"/>
  <rect class="fil0 str0" x="55100" y="100" width="30000" height="25000"/>
  <text x="65109" y="5648"  class="fil1 fnt0">MQTT</text>
  <text x="64910" y="9589"  class="fil1 fnt0">Broker</text>
  <g>
   <path class="fil2" d="M20103 17600l1944 -972 0 1944 -1944 -972zm37497 375l-35579 0 0 -750 35579 0 0 750z"/>
  </g>
  <g>
   <path class="fil2" d="M60097 18600l-1944 972 0 -1944 1944 972zm-37497 -375l35579 0 0 750 -35579 0 0 -750z"/>
  </g>
  <g>
   <path class="fil2" d="M60097 16600l-1944 972 0 -1944 1944 972zm-37497 -375l35579 0 0 750 -35579 0 0 -750z"/>
  </g>
  <rect class="fil3 str0" x="100" y="12600" width="20000" height="10000"/>
  <text x="3733" y="17866"  class="fil1 fnt0">Client G</text>
  <rect class="fil4 str0" x="60100" y="12600" width="20000" height="10000" rx="2000" ry="2000"/>
  <text x="64516" y="17866"  class="fil1 fnt0">Topic 5</text>
  <rect class="fil3 str0" x="120100" y="12600" width="20000" height="10000"/>
  <text x="123832" y="17866"  class="fil1 fnt0">Client H</text>
  <text x="67424" y="21077"  class="fil5 fnt1">/lorem/jk</text>
  <text x="4620" y="20473"  class="fil6 fnt1">/lorem/jk   QoS=1</text>
  <text x="124760" y="21358"  class="fil7 fnt1">/lorem/jk   QoS=1</text>
  <g>
   <path class="fil8" d="M80103 17600l1944 -972 0 1944 -1944 -972zm37497 375l-35579 0 0 -750 35579 0 0 750z"/>
  </g>
  <g>
   <path class="fil8" d="M120097 18600l-1944 972 0 -1944 1944 972zm-37497 -375l35579 0 0 750 -35579 0 0 -750z"/>
  </g>
  <g>
   <path class="fil8" d="M120097 16600l-1944 972 0 -1944 1944 972zm-37497 -375l35579 0 0 750 -35579 0 0 -750z"/>
  </g>
  <g>
   <path class="fil9 str1" d="M29657 17120l0 -2533 282 0 0 241c67,-93 142,-163 226,-209 84,-47 185,-70 305,-70 156,0 294,40 413,120 119,80 209,194 270,339 61,147 92,307 92,481 0,187 -34,355 -101,505 -67,149 -165,264 -293,344 -127,79 -262,119 -403,119 -104,0 -197,-22 -278,-65 -83,-44 -150,-98 -202,-165l0 893 -311 0zm282 -1606c0,235 48,408 143,520 95,113 210,169 345,169 138,0 255,-58 353,-175 98,-116 147,-296 147,-540 0,-233 -48,-407 -143,-523 -96,-115 -210,-173 -343,-173 -132,0 -248,62 -349,185 -102,123 -153,302 -153,537z"/>
  </g>
  <g>
   <path id="1" class="fil9 str1" d="M32815 16418l0 -272c-142,208 -335,311 -579,311 -108,0 -208,-21 -302,-62 -93,-41 -163,-93 -208,-155 -45,-63 -77,-140 -95,-230 -13,-62 -19,-158 -19,-290l0 -1133 310 0 0 1013c0,162 7,271 19,327 20,82 61,146 124,192 63,46 141,70 234,70 93,0 180,-24 261,-71 81,-48 139,-113 173,-195 33,-82 50,-201 50,-357l0 -979 311 0 0 1831 -279 0z"/>
  </g>
  <g>
   <path id="2" class="fil9 str1" d="M33867 16418l-289 0 0 -2526 310 0 0 902c131,-164 298,-245 502,-245 112,0 219,22 319,67 101,45 183,110 248,191 65,83 116,181 153,297 37,115 55,239 55,371 0,313 -78,555 -232,726 -155,171 -341,256 -558,256 -216,0 -385,-90 -508,-269l0 230zm-4 -929c0,219 30,377 90,475 97,159 229,239 395,239 136,0 253,-59 351,-176 99,-118 149,-293 149,-526 0,-239 -48,-414 -142,-528 -95,-113 -209,-170 -344,-170 -135,0 -252,58 -351,176 -98,118 -148,287 -148,510z"/>
  </g>
  <g>
   <polygon id="3" class="fil9 str1" points="35536,16418 35536,13892 35846,13892 35846,16418 "/>
  </g>
  <g>
   <path id="4" class="fil9 str1" d="M36327 14245l0 -353 310 0 0 353 -310 0zm0 2173l0 -1831 310 0 0 1831 -310 0z"/>
  </g>
  <g>
   <path id="5" class="fil9 str1" d="M36987 15871l307 -49c17,123 65,217 144,283 79,65 189,98 330,98 143,0 249,-29 318,-87 69,-58 104,-126 104,-204 0,-70 -31,-125 -93,-165 -43,-28 -149,-63 -317,-105 -227,-57 -384,-107 -473,-149 -87,-42 -154,-100 -199,-174 -45,-73 -68,-155 -68,-244 0,-82 19,-157 56,-227 37,-69 88,-127 152,-172 48,-36 114,-66 197,-90 84,-25 172,-37 268,-37 143,0 269,20 377,62 109,41 189,97 240,168 52,71 87,166 107,285l-303 42c-14,-95 -54,-170 -120,-223 -66,-54 -159,-80 -279,-80 -142,0 -244,23 -304,70 -61,47 -91,102 -91,165 0,40 12,77 37,109 26,33 65,61 119,82 31,12 122,39 274,80 218,58 371,106 458,143 87,37 155,92 205,163 50,71 74,159 74,265 0,103 -30,200 -90,291 -61,91 -148,161 -261,211 -114,50 -243,75 -386,75 -238,0 -420,-49 -544,-148 -125,-98 -204,-244 -239,-438z"/>
  </g>
  <g>
   <path id="6" class="fil9 str1" d="M38874 16418l0 -2526 311 0 0 909c144,-168 325,-252 545,-252 135,0 252,26 352,80 99,53 170,127 213,221 43,94 64,231 64,409l0 1159 -310 0 0 -1157c0,-155 -34,-268 -100,-338 -67,-71 -161,-106 -283,-106 -91,0 -177,23 -258,71 -80,47 -137,112 -172,194 -34,81 -51,193 -51,337l0 999 -311 0z"/>
  </g>
  <g>
   <path id="7" class="fil9 str1" d="M43767 16147c155,107 299,185 431,234l-100 233c-181,-65 -363,-168 -543,-309 -187,104 -393,156 -619,156 -228,0 -435,-56 -621,-166 -186,-110 -329,-265 -429,-464 -101,-200 -151,-425 -151,-675 0,-249 51,-475 152,-680 100,-204 245,-359 431,-466 186,-106 395,-160 625,-160 233,0 443,55 630,166 187,111 330,266 428,465 98,199 147,423 147,673 0,208 -32,395 -95,560 -63,166 -159,310 -286,433zm-734 -427c192,54 351,135 475,241 196,-178 294,-447 294,-806 0,-204 -34,-382 -104,-534 -69,-153 -170,-271 -304,-355 -133,-84 -283,-127 -449,-127 -248,0 -455,86 -618,256 -164,170 -246,424 -246,762 0,328 81,579 243,755 162,175 369,263 621,263 119,0 231,-23 337,-67 -105,-68 -214,-116 -330,-145l81 -243z"/>
  </g>
  <g>
   <path id="8" class="fil9 str1" d="M44444 15503c0,-338 94,-589 283,-752 157,-135 349,-202 575,-202 251,0 457,82 617,247 159,164 239,391 239,681 0,235 -35,420 -105,554 -71,135 -174,240 -309,314 -135,75 -282,112 -442,112 -256,0 -463,-82 -621,-246 -158,-164 -237,-400 -237,-708zm317 0c0,234 52,410 154,525 103,117 232,175 387,175 154,0 283,-58 385,-175 103,-117 154,-295 154,-535 0,-225 -52,-396 -155,-512 -103,-117 -231,-175 -384,-175 -155,0 -284,58 -387,174 -102,115 -154,290 -154,523z"/>
  </g>
  <g>
   <path id="9" class="fil9 str1" d="M46452 15607l314 -28c14,127 49,231 104,312 55,82 139,147 254,198 115,50 244,75 387,75 128,0 240,-19 338,-57 97,-38 170,-90 217,-157 48,-66 72,-139 72,-216 0,-79 -23,-148 -69,-207 -46,-59 -121,-108 -227,-149 -68,-26 -218,-67 -450,-123 -232,-56 -395,-108 -487,-157 -121,-64 -210,-143 -269,-236 -60,-94 -89,-199 -89,-315 0,-128 37,-247 109,-358 72,-111 177,-195 317,-252 139,-58 293,-87 463,-87 187,0 352,30 495,91 143,60 253,148 330,266 77,117 118,250 124,398l-321 25c-17,-160 -75,-280 -175,-361 -99,-82 -246,-123 -440,-123 -202,0 -350,37 -442,112 -92,74 -139,163 -139,268 0,90 33,165 98,224 65,58 233,118 504,180 272,61 458,115 559,161 147,67 255,153 325,257 70,103 105,222 105,358 0,134 -38,260 -115,379 -77,119 -187,211 -331,277 -144,66 -306,99 -486,99 -229,0 -420,-34 -574,-100 -154,-67 -275,-167 -362,-301 -89,-133 -134,-284 -139,-453z"/>
  </g>
  <g transform="matrix(1 0 0 1 -99566.6 61318.2)">
   <text x="128991" y="-44900" id="9" class="fil6 fnt0">publish QoS</text>
  </g>
  <g>
   <path class="fil9 str1" d="M90074 15871l307 -49c17,123 65,217 144,283 79,65 190,98 331,98 143,0 248,-29 318,-87 69,-58 103,-126 103,-204 0,-70 -31,-125 -93,-165 -43,-28 -149,-63 -317,-105 -227,-57 -384,-107 -472,-149 -88,-42 -154,-100 -200,-174 -45,-73 -68,-155 -68,-244 0,-82 19,-157 56,-227 38,-69 88,-127 152,-172 49,-36 114,-66 197,-90 84,-25 173,-37 268,-37 143,0 269,20 377,62 109,41 189,97 241,168 51,71 87,166 106,285l-303 42c-14,-95 -54,-170 -120,-223 -65,-54 -158,-80 -279,-80 -142,0 -243,23 -304,70 -60,47 -91,102 -91,165 0,40 12,77 38,109 25,33 64,61 118,82 32,12 122,39 274,80 219,58 371,106 458,143 87,37 156,92 205,163 50,71 75,159 75,265 0,103 -30,200 -91,291 -60,91 -147,161 -261,211 -114,50 -243,75 -386,75 -238,0 -419,-49 -544,-148 -125,-98 -204,-244 -239,-438z"/>
  </g>
  <g>
   <path id="1" class="fil9 str1" d="M93157 16418l0 -272c-142,208 -335,311 -579,311 -107,0 -208,-21 -301,-62 -94,-41 -163,-93 -208,-155 -46,-63 -77,-140 -96,-230 -12,-62 -18,-158 -18,-290l0 -1133 310 0 0 1013c0,162 6,271 19,327 19,82 60,146 124,192 63,46 140,70 233,70 93,0 180,-24 261,-71 81,-48 139,-113 173,-195 34,-82 51,-201 51,-357l0 -979 310 0 0 1831 -279 0z"/>
  </g>
  <g>
   <path id="2" class="fil9 str1" d="M94209 16418l-289 0 0 -2526 310 0 0 902c132,-164 299,-245 502,-245 112,0 219,22 320,67 100,45 183,110 248,191 65,83 116,181 152,297 37,115 56,239 56,371 0,313 -78,555 -233,726 -155,171 -341,256 -558,256 -215,0 -385,-90 -508,-269l0 230zm-3 -929c0,219 30,377 89,475 98,159 229,239 396,239 136,0 253,-59 351,-176 99,-118 148,-293 148,-526 0,-239 -47,-414 -142,-528 -94,-113 -209,-170 -343,-170 -136,0 -253,58 -351,176 -99,118 -148,287 -148,510z"/>
  </g>
  <g>
   <path id="3" class="fil9 str1" d="M95762 15871l307 -49c17,123 65,217 144,283 79,65 189,98 330,98 143,0 249,-29 319,-87 68,-58 103,-126 103,-204 0,-70 -31,-125 -93,-165 -43,-28 -149,-63 -317,-105 -227,-57 -384,-107 -472,-149 -88,-42 -155,-100 -200,-174 -45,-73 -68,-155 -68,-244 0,-82 19,-157 56,-227 38,-69 88,-127 152,-172 48,-36 114,-66 197,-90 84,-25 172,-37 268,-37 143,0 269,20 377,62 109,41 189,97 241,168 51,71 87,166 106,285l-303 42c-14,-95 -54,-170 -120,-223 -66,-54 -158,-80 -279,-80 -142,0 -243,23 -304,70 -61,47 -91,102 -91,165 0,40 12,77 38,109 25,33 64,61 118,82 31,12 122,39 274,80 218,58 371,106 458,143 87,37 155,92 205,163 50,71 75,159 75,265 0,103 -30,200 -91,291 -61,91 -148,161 -261,211 -114,50 -243,75 -386,75 -238,0 -420,-49 -544,-148 -125,-98 -204,-244 -239,-438z"/>
  </g>
  <g>
   <path id="4" class="fil9 str1" d="M98845 15748l304 42c-34,209 -119,372 -256,490 -137,118 -305,177 -505,177 -249,0 -451,-82 -602,-245 -152,-164 -228,-398 -228,-702 0,-198 33,-370 98,-518 65,-148 164,-259 299,-332 133,-74 278,-111 436,-111 198,0 361,50 487,150 126,101 207,243 242,428l-299 46c-29,-123 -80,-215 -153,-278 -73,-61 -161,-92 -265,-92 -156,0 -283,55 -381,167 -98,112 -147,289 -147,531 0,246 47,424 141,535 95,111 218,167 369,167 122,0 224,-37 305,-112 82,-74 134,-188 155,-343z"/>
  </g>
  <g>
   <path id="5" class="fil9 str1" d="M99410 16418l0 -1831 278 0 0 281c71,-130 137,-216 198,-257 60,-42 127,-62 199,-62 105,0 211,32 319,98l-110 286c-75,-42 -151,-63 -226,-63 -67,0 -128,20 -182,61 -53,40 -91,97 -114,169 -35,110 -52,231 -52,362l0 956 -310 0z"/>
  </g>
  <g>
   <path id="6" class="fil9 str1" d="M100588 14245l0 -353 310 0 0 353 -310 0zm0 2173l0 -1831 310 0 0 1831 -310 0z"/>
  </g>
  <g>
   <path id="7" class="fil9 str1" d="M101657 16418l-289 0 0 -2526 310 0 0 902c132,-164 299,-245 502,-245 112,0 219,22 320,67 100,45 183,110 248,191 65,83 116,181 152,297 37,115 56,239 56,371 0,313 -78,555 -233,726 -155,171 -341,256 -558,256 -215,0 -385,-90 -508,-269l0 230zm-3 -929c0,219 30,377 89,475 98,159 229,239 396,239 136,0 253,-59 351,-176 99,-118 148,-293 148,-526 0,-239 -47,-414 -142,-528 -94,-113 -209,-170 -343,-170 -136,0 -253,58 -351,176 -99,118 -148,287 -148,510z"/>
  </g>
  <g>
   <path id="8" class="fil9 str1" d="M104582 15826l321 42c-50,186 -143,332 -279,434 -137,103 -311,155 -523,155 -267,0 -479,-82 -635,-247 -157,-164 -235,-395 -235,-692 0,-307 79,-546 237,-715 158,-170 364,-254 616,-254 244,0 443,82 598,249 154,166 232,400 232,702 0,18 -1,46 -2,82l-1363 0c12,201 68,355 170,461 102,107 230,160 382,160 113,0 210,-30 290,-90 81,-60 144,-156 191,-287zm-1016 -498l1020 0c-14,-154 -53,-269 -117,-346 -98,-119 -226,-179 -383,-179 -143,0 -262,47 -359,142 -97,96 -150,223 -161,383z"/>
  </g>
  <g>
   <path id="9" class="fil9 str1" d="M108226 16147c156,107 299,185 431,234l-99 233c-182,-65 -363,-168 -544,-309 -187,104 -393,156 -619,156 -228,0 -435,-56 -621,-166 -186,-110 -328,-265 -429,-464 -100,-200 -150,-425 -150,-675 0,-249 50,-475 151,-680 101,-204 245,-359 431,-466 187,-106 395,-160 626,-160 233,0 443,55 629,166 187,111 330,266 429,465 98,199 146,423 146,673 0,208 -31,395 -95,560 -63,166 -159,310 -286,433zm-734 -427c192,54 351,135 476,241 196,-178 294,-447 294,-806 0,-204 -35,-382 -104,-534 -70,-153 -171,-271 -304,-355 -134,-84 -284,-127 -449,-127 -249,0 -456,86 -619,256 -164,170 -246,424 -246,762 0,328 81,579 243,755 162,175 369,263 622,263 118,0 231,-23 336,-67 -104,-68 -214,-116 -329,-145l80 -243z"/>
  </g>
  <g>
   <path id="10" class="fil9 str1" d="M108903 15503c0,-338 94,-589 283,-752 157,-135 349,-202 576,-202 251,0 457,82 616,247 160,164 240,391 240,681 0,235 -36,420 -106,554 -71,135 -174,240 -309,314 -134,75 -282,112 -441,112 -257,0 -464,-82 -622,-246 -158,-164 -237,-400 -237,-708zm318 0c0,234 51,410 153,525 103,117 232,175 388,175 154,0 282,-58 385,-175 102,-117 153,-295 153,-535 0,-225 -52,-396 -154,-512 -103,-117 -231,-175 -384,-175 -156,0 -285,58 -388,174 -102,115 -153,290 -153,523z"/>
  </g>
  <g>
   <path id="11" class="fil9 str1" d="M110911 15607l314 -28c15,127 49,231 104,312 55,82 140,147 254,198 115,50 244,75 388,75 127,0 239,-19 337,-57 98,-38 170,-90 218,-157 47,-66 71,-139 71,-216 0,-79 -23,-148 -68,-207 -46,-59 -122,-108 -228,-149 -68,-26 -218,-67 -450,-123 -232,-56 -394,-108 -487,-157 -121,-64 -210,-143 -269,-236 -59,-94 -89,-199 -89,-315 0,-128 37,-247 109,-358 72,-111 178,-195 317,-252 139,-58 293,-87 463,-87 187,0 353,30 495,91 143,60 253,148 330,266 77,117 118,250 124,398l-321 25c-17,-160 -75,-280 -174,-361 -100,-82 -247,-123 -441,-123 -202,0 -350,37 -442,112 -92,74 -139,163 -139,268 0,90 33,165 99,224 64,58 232,118 503,180 272,61 458,115 560,161 146,67 255,153 325,257 70,103 104,222 104,358 0,134 -38,260 -115,379 -77,119 -187,211 -331,277 -144,66 -306,99 -486,99 -228,0 -419,-34 -573,-100 -155,-67 -276,-167 -363,-301 -88,-133 -134,-284 -139,-453z"/>
  </g>
  <g transform="matrix(1 0 0 1 -37066.6 61318.2)">
   <text x="127032" y="-44900" id="11" class="fil7 fnt0">subscribe QoS</text>
  </g>
  <text x="123701" y="20100"  class="fil7 fnt1">/lorem/amet   QoS=1</text>
 </g>
</svg>
