<?xml version="1.0" encoding="UTF-8"?>
<!DOCTYPE svg PUBLIC "-//W3C//DTD SVG 1.0//EN" "http://www.w3.org/TR/2001/REC-SVG-20010904/DTD/svg10.dtd">
<!-- Creator: CorelDRAW Home & Student X8 -->
<svg xmlns="http://www.w3.org/2000/svg" xml:space="preserve" width="100%" height="100%" version="1.0" style="shape-rendering:geometricPrecision; text-rendering:geometricPrecision; image-rendering:optimizeQuality; fill-rule:evenodd; clip-rule:evenodd"
viewBox="0 0 100000 30000"
 xmlns:xlink="http://www.w3.org/1999/xlink">
 <defs>
  <style type="text/css">
   <![CDATA[
    .fil1 {fill:#38CAE0}
    .fil0 {fill:#ED5121}
    .fil2 {fill:#FFCE3B}
   ]]>
  </style>
 </defs>
 <g id="Ebene_x0020_1">
  <metadata id="CorelCorpID_0Corel-Layer"/>
  <polygon class="fil0" points="51875,4375 51875,0 52500,625 52500,5000 48125,5000 47500,4375 "/>
  <polygon class="fil0" points="51875,9375 51875,5000 52500,5625 52500,10000 48125,10000 47500,9375 "/>
  <polygon class="fil0" points="51875,14375 51875,10000 52500,10625 52500,15000 48125,15000 47500,14375 "/>
  <polygon class="fil0" points="51875,19375 51875,15000 52500,15625 52500,20000 48125,20000 47500,19375 "/>
  <polygon class="fil0" points="51875,24375 51875,20000 52500,20625 52500,25000 48125,25000 47500,24375 "/>
  <polygon class="fil0" points="51875,29375 51875,25000 52500,25625 52500,30000 48125,30000 47500,29375 "/>
  <polygon class="fil0" points="56875,4375 56875,0 57500,625 57500,5000 53125,5000 52500,4375 "/>
  <polygon class="fil0" points="61875,4375 61875,0 62500,625 62500,5000 58125,5000 57500,4375 "/>
  <polygon class="fil0" points="66875,9375 66875,5000 67500,5625 67500,10000 63125,10000 62500,9375 "/>
  <polygon class="fil0" points="66875,14375 66875,10000 67500,10625 67500,15000 63125,15000 62500,14375 "/>
  <polygon class="fil0" points="61875,19375 61875,15000 62500,15625 62500,20000 58125,20000 57500,19375 "/>
  <polygon class="fil0" points="56875,19375 56875,15000 57500,15625 57500,20000 53125,20000 52500,19375 "/>
  <polygon class="fil0" points="74375,4375 74375,0 75000,625 75000,5000 70625,5000 70000,4375 "/>
  <polygon class="fil0" points="74375,14375 74375,10000 75000,10625 75000,15000 70625,15000 70000,14375 "/>
  <polygon class="fil0" points="74375,19375 74375,15000 75000,15625 75000,20000 70625,20000 70000,19375 "/>
  <polygon class="fil0" points="74375,24375 74375,20000 75000,20625 75000,25000 70625,25000 70000,24375 "/>
  <polygon class="fil0" points="74375,29375 74375,25000 75000,25625 75000,30000 70625,30000 70000,29375 "/>
  <polygon class="fil1" points="84375,9375 84375,5000 85000,5625 85000,10000 80625,10000 80000,9375 "/>
  <polygon class="fil1" points="84375,14375 84375,10000 85000,10625 85000,15000 80625,15000 80000,14375 "/>
  <polygon class="fil1" points="84375,19375 84375,15000 85000,15625 85000,20000 80625,20000 80000,19375 "/>
  <polygon class="fil1" points="84375,24375 84375,20000 85000,20625 85000,25000 80625,25000 80000,24375 "/>
  <polygon class="fil1" points="89375,4375 89375,0 90000,625 90000,5000 85625,5000 85000,4375 "/>
  <polygon class="fil1" points="94375,4375 94375,0 95000,625 95000,5000 90625,5000 90000,4375 "/>
  <polygon class="fil1" points="89375,29375 89375,25000 90000,25625 90000,30000 85625,30000 85000,29375 "/>
  <polygon class="fil1" points="94375,29375 94375,25000 95000,25625 95000,30000 90625,30000 90000,29375 "/>
  <polygon class="fil1" points="99375,4375 99375,0 100000,625 100000,5000 95625,5000 95000,4375 "/>
  <polygon class="fil1" points="99375,29375 99375,25000 100000,25625 100000,30000 95625,30000 95000,29375 "/>
  <polygon class="fil2" points="31875,29375 31875,25000 32500,25625 32500,30000 28125,30000 27500,29375 "/>
  <polygon class="fil2" points="36875,29375 36875,25000 37500,25625 37500,30000 33125,30000 32500,29375 "/>
  <polygon class="fil2" points="41875,29375 41875,25000 42500,25625 42500,30000 38125,30000 37500,29375 "/>
  <polygon class="fil2" points="9375,29375 9375,25000 10000,25625 10000,30000 5625,30000 5000,29375 "/>
  <polygon class="fil2" points="14375,29375 14375,25000 15000,25625 15000,30000 10625,30000 10000,29375 "/>
  <polygon class="fil2" points="19375,29375 19375,25000 20000,25625 20000,30000 15625,30000 15000,29375 "/>
  <polygon class="fil2" points="26875,29375 26875,25000 27500,25625 27500,30000 23125,30000 22500,29375 "/>
  <polygon class="fil2" points="31875,9375 31875,5000 32500,5625 32500,10000 28125,10000 27500,9375 "/>
  <polygon class="fil2" points="36875,9375 36875,5000 37500,5625 37500,10000 33125,10000 32500,9375 "/>
  <polygon class="fil2" points="41875,9375 41875,5000 42500,5625 42500,10000 38125,10000 37500,9375 "/>
  <polygon class="fil2" points="26875,9375 26875,5000 27500,5625 27500,10000 23125,10000 22500,9375 "/>
  <polygon class="fil2" points="9375,19375 9375,15000 10000,15625 10000,20000 5625,20000 5000,19375 "/>
  <polygon class="fil2" points="14375,19375 14375,15000 15000,15625 15000,20000 10625,20000 10000,19375 "/>
  <polygon class="fil2" points="19375,19375 19375,15000 20000,15625 20000,20000 15625,20000 15000,19375 "/>
  <polygon class="fil2" points="4375,19375 4375,15000 5000,15625 5000,20000 625,20000 0,19375 "/>
  <polygon class="fil2" points="31875,24375 31875,20000 32500,20625 32500,25000 28125,25000 27500,24375 "/>
  <polygon class="fil2" points="36875,19375 36875,15000 37500,15625 37500,20000 33125,20000 32500,19375 "/>
  <polygon class="fil2" points="41875,14375 41875,10000 42500,10625 42500,15000 38125,15000 37500,14375 "/>
  <polygon class="fil2" points="9375,9375 9375,5000 10000,5625 10000,10000 5625,10000 5000,9375 "/>
  <polygon class="fil2" points="14375,9375 14375,5000 15000,5625 15000,10000 10625,10000 10000,9375 "/>
  <polygon class="fil2" points="19375,14375 19375,10000 20000,10625 20000,15000 15625,15000 15000,14375 "/>
  <polygon class="fil2" points="4375,14375 4375,10000 5000,10625 5000,15000 625,15000 0,14375 "/>
  <polygon class="fil2" points="4375,24375 4375,20000 5000,20625 5000,25000 625,25000 0,24375 "/>
 </g>
</svg>
