<?xml version="1.0" encoding="UTF-8"?>
<!DOCTYPE svg PUBLIC "-//W3C//DTD SVG 1.0//EN" "http://www.w3.org/TR/2001/REC-SVG-20010904/DTD/svg10.dtd">
<!-- Creator: CorelDRAW Home & Student X8 -->
<svg xmlns="http://www.w3.org/2000/svg" xml:space="preserve" width="2480px" height="3508px" version="1.0" style="shape-rendering:geometricPrecision; text-rendering:geometricPrecision; image-rendering:optimizeQuality; fill-rule:evenodd; clip-rule:evenodd"
viewBox="0 0 2156522 646957"
 xmlns:xlink="http://www.w3.org/1999/xlink">
 <defs>
  <style type="text/css">
   <![CDATA[
    .fil1 {fill:#38CAE0}
    .fil0 {fill:#ED5121}
    .fil2 {fill:#FFCE3B}
   ]]>
  </style>
 </defs>
 <g id="Ebene_x0020_1">
  <metadata id="CorelCorpID_0Corel-Layer"/>
  <polygon class="fil0" points="1118696,94348 1118696,0 1132174,13478 1132174,107826 1037826,107826 1024348,94348 "/>
  <polygon class="fil0" points="1118696,202174 1118696,107826 1132174,121304 1132174,215652 1037826,215652 1024348,202174 "/>
  <polygon class="fil0" points="1118696,310000 1118696,215652 1132174,229130 1132174,323478 1037826,323478 1024348,310000 "/>
  <polygon class="fil0" points="1118696,417826 1118696,323478 1132174,336957 1132174,431304 1037826,431304 1024348,417826 "/>
  <polygon class="fil0" points="1118696,525652 1118696,431304 1132174,444783 1132174,539130 1037826,539130 1024348,525652 "/>
  <polygon class="fil0" points="1118696,633478 1118696,539130 1132174,552609 1132174,646957 1037826,646957 1024348,633478 "/>
  <polygon class="fil0" points="1226522,94348 1226522,0 1240000,13478 1240000,107826 1145652,107826 1132174,94348 "/>
  <polygon class="fil0" points="1334348,94348 1334348,0 1347826,13478 1347826,107826 1253478,107826 1240000,94348 "/>
  <polygon class="fil0" points="1442174,202174 1442174,107826 1455652,121304 1455652,215652 1361304,215652 1347826,202174 "/>
  <polygon class="fil0" points="1442174,310000 1442174,215652 1455652,229130 1455652,323478 1361304,323478 1347826,310000 "/>
  <polygon class="fil0" points="1334348,417826 1334348,323478 1347826,336957 1347826,431304 1253478,431304 1240000,417826 "/>
  <polygon class="fil0" points="1226522,417826 1226522,323478 1240000,336957 1240000,431304 1145652,431304 1132174,417826 "/>
  <polygon class="fil0" points="1603913,94348 1603913,0 1617391,13478 1617391,107826 1523043,107826 1509565,94348 "/>
  <polygon class="fil0" points="1603913,310000 1603913,215652 1617391,229130 1617391,323478 1523043,323478 1509565,310000 "/>
  <polygon class="fil0" points="1603913,417826 1603913,323478 1617391,336957 1617391,431304 1523043,431304 1509565,417826 "/>
  <polygon class="fil0" points="1603913,525652 1603913,431304 1617391,444783 1617391,539130 1523043,539130 1509565,525652 "/>
  <polygon class="fil0" points="1603913,633478 1603913,539130 1617391,552609 1617391,646957 1523043,646957 1509565,633478 "/>
  <polygon class="fil1" points="1819565,202174 1819565,107826 1833043,121304 1833043,215652 1738696,215652 1725217,202174 "/>
  <polygon class="fil1" points="1819565,310000 1819565,215652 1833043,229130 1833043,323478 1738696,323478 1725217,310000 "/>
  <polygon class="fil1" points="1819565,417826 1819565,323478 1833043,336957 1833043,431304 1738696,431304 1725217,417826 "/>
  <polygon class="fil1" points="1819565,525652 1819565,431304 1833043,444783 1833043,539130 1738696,539130 1725217,525652 "/>
  <polygon class="fil1" points="1927391,94348 1927391,0 1940870,13478 1940870,107826 1846522,107826 1833043,94348 "/>
  <polygon class="fil1" points="2035217,94348 2035217,0 2048696,13478 2048696,107826 1954348,107826 1940870,94348 "/>
  <polygon class="fil1" points="1927391,633478 1927391,539130 1940870,552609 1940870,646957 1846522,646957 1833043,633478 "/>
  <polygon class="fil1" points="2035217,633478 2035217,539130 2048696,552609 2048696,646957 1954348,646957 1940870,633478 "/>
  <polygon class="fil1" points="2143043,94348 2143043,0 2156522,13478 2156522,107826 2062174,107826 2048696,94348 "/>
  <polygon class="fil1" points="2143043,633478 2143043,539130 2156522,552609 2156522,646957 2062174,646957 2048696,633478 "/>
  <polygon class="fil2" points="687391,633478 687391,539130 700870,552609 700870,646957 606522,646957 593043,633478 "/>
  <polygon class="fil2" points="795217,633478 795217,539130 808696,552609 808696,646957 714348,646957 700870,633478 "/>
  <polygon class="fil2" points="903043,633478 903043,539130 916522,552609 916522,646957 822174,646957 808696,633478 "/>
  <polygon class="fil2" points="202174,633478 202174,539130 215652,552609 215652,646957 121304,646957 107826,633478 "/>
  <polygon class="fil2" points="310000,633478 310000,539130 323478,552609 323478,646957 229130,646957 215652,633478 "/>
  <polygon class="fil2" points="417826,633478 417826,539130 431304,552609 431304,646957 336957,646957 323478,633478 "/>
  <polygon class="fil2" points="579565,633478 579565,539130 593043,552609 593043,646957 498696,646957 485217,633478 "/>
  <polygon class="fil2" points="687391,202174 687391,107826 700870,121304 700870,215652 606522,215652 593043,202174 "/>
  <polygon class="fil2" points="795217,202174 795217,107826 808696,121304 808696,215652 714348,215652 700870,202174 "/>
  <polygon class="fil2" points="903043,202174 903043,107826 916522,121304 916522,215652 822174,215652 808696,202174 "/>
  <polygon class="fil2" points="579565,202174 579565,107826 593043,121304 593043,215652 498696,215652 485217,202174 "/>
  <polygon class="fil2" points="202174,417826 202174,323478 215652,336957 215652,431304 121304,431304 107826,417826 "/>
  <polygon class="fil2" points="310000,417826 310000,323478 323478,336957 323478,431304 229130,431304 215652,417826 "/>
  <polygon class="fil2" points="417826,417826 417826,323478 431304,336957 431304,431304 336957,431304 323478,417826 "/>
  <polygon class="fil2" points="94348,417826 94348,323478 107826,336957 107826,431304 13478,431304 0,417826 "/>
  <polygon class="fil2" points="687391,525652 687391,431304 700870,444783 700870,539130 606522,539130 593043,525652 "/>
  <polygon class="fil2" points="795217,417826 795217,323478 808696,336957 808696,431304 714348,431304 700870,417826 "/>
  <polygon class="fil2" points="903043,310000 903043,215652 916522,229130 916522,323478 822174,323478 808696,310000 "/>
  <polygon class="fil2" points="202174,202174 202174,107826 215652,121304 215652,215652 121304,215652 107826,202174 "/>
  <polygon class="fil2" points="310000,202174 310000,107826 323478,121304 323478,215652 229130,215652 215652,202174 "/>
  <polygon class="fil2" points="417826,310000 417826,215652 431304,229130 431304,323478 336957,323478 323478,310000 "/>
  <polygon class="fil2" points="94348,310000 94348,215652 107826,229130 107826,323478 13478,323478 0,310000 "/>
  <polygon class="fil2" points="94348,525652 94348,431304 107826,444783 107826,539130 13478,539130 0,525652 "/>
 </g>
</svg>
